<?xml version="1.0" encoding="UTF-8" standalone="no"?>
<svg
   xmlns:dc="http://purl.org/dc/elements/1.1/"
   xmlns:cc="http://creativecommons.org/ns#"
   xmlns:rdf="http://www.w3.org/1999/02/22-rdf-syntax-ns#"
   xmlns:svg="http://www.w3.org/2000/svg"
   xmlns="http://www.w3.org/2000/svg"
   viewBox="0 0 237.10001 57.612499"
   height="57.612499"
   width="237.10001"
   xml:space="preserve"
   version="1.1"
   id="svg2"><metadata
     id="metadata8"><rdf:RDF><cc:Work
         rdf:about=""><dc:format>image/svg+xml</dc:format><dc:type
           rdf:resource="http://purl.org/dc/dcmitype/StillImage" /><dc:title></dc:title></cc:Work></rdf:RDF></metadata><defs
     id="defs6"><clipPath
       id="clipPath34"
       clipPathUnits="userSpaceOnUse"><path
         id="path36"
         d="m 399.73,246.641 -17.48,55.839 -43.645,137.383 c 0,0 -6.535,20.961 -16.593,20.961 -1.867,-0.136 -5.176,-0.742 -9.492,-3.094 -5.149,-2.804 -10.704,-7.773 -21.137,-19.179 L 264.902,409.516 369.734,287.934 c 0,0 21.618,-24.829 34.52,-58.391 1.238,-3.234 2.726,-6.34 3.793,-9.512 l -0.027,0.176 -0.305,0.977 -7.985,25.457 z" /></clipPath><linearGradient
       id="linearGradient38"
       spreadMethod="pad"
       gradientTransform="matrix(126.242,-225.706,-225.706,-126.242,290.068,446.778)"
       gradientUnits="userSpaceOnUse"
       y2="0"
       x2="1"
       y1="0"
       x1="0"><stop
         id="stop40"
         offset="0"
         style="stop-opacity:1;stop-color:#bbbbbc" /><stop
         id="stop42"
         offset="0.187879"
         style="stop-opacity:1;stop-color:#f3f3f4" /><stop
         id="stop44"
         offset="1"
         style="stop-opacity:1;stop-color:#a3a5a8" /></linearGradient><clipPath
       id="clipPath52"
       clipPathUnits="userSpaceOnUse"><path
         id="path54"
         d="M 136.43,268.926 10.7188,131.379 c 0,0 -14.29693,-16.172 -9.871144,-24.746 l 0.718754,-1.309 c 1.0039,-1.465 2.79297,-3.457 6.35937,-5.6248 4.98052,-3.0469 12.13282,-5.664 27.24612,-8.9648 L 73.6875,82.2969 126.738,234.309 c 0,0 10.696,31.156 33.297,59.086 2.176,2.699 4.113,5.523 6.348,8.066 l -0.129,-0.121 -29.824,-32.414 z" /></clipPath><linearGradient
       id="linearGradient56"
       spreadMethod="pad"
       gradientTransform="matrix(133.893,233.994,233.994,-133.893,33.4424,92.725)"
       gradientUnits="userSpaceOnUse"
       y2="0"
       x2="1"
       y1="0"
       x1="0"><stop
         id="stop58"
         offset="0"
         style="stop-opacity:1;stop-color:#bbbbbc" /><stop
         id="stop60"
         offset="0.187879"
         style="stop-opacity:1;stop-color:#f3f3f4" /><stop
         id="stop62"
         offset="1"
         style="stop-opacity:1;stop-color:#a3a5a8" /></linearGradient><clipPath
       id="clipPath70"
       clipPathUnits="userSpaceOnUse"><path
         id="path72"
         d="m 464.285,43.1953 -7.058,22.1875 -4.75,14.9414 -158.114,-30.0586 c 0,0 -32.383,-6.582 -67.886,-1.0156 -3.149,0.4883 -6.36,1.0352 -9.446,1.6211 l 7.309,-1.6016 63.875,-14.3359 9.652,-2.1484 143.656,-31.50395 c 0,0 19.715,-4.64844 26.368,3.80859 l 0.375,0.60547 c 0.793,1.75782 1.793,4.84379 1.894,9.45309 0.149,5.8594 -1.215,13.3399 -5.875,28.0469 z" /></clipPath><linearGradient
       id="linearGradient74"
       spreadMethod="pad"
       gradientTransform="matrix(-243.563,10.2014,10.2014,243.563,465.527,39.61)"
       gradientUnits="userSpaceOnUse"
       y2="0"
       x2="1"
       y1="0"
       x1="0"><stop
         id="stop76"
         offset="0"
         style="stop-opacity:1;stop-color:#bbbbbc" /><stop
         id="stop78"
         offset="0.187879"
         style="stop-opacity:1;stop-color:#f3f3f4" /><stop
         id="stop80"
         offset="1"
         style="stop-opacity:1;stop-color:#a3a5a8" /></linearGradient></defs><g
     transform="matrix(1.25,0,0,-1.25,0,57.6125)"
     id="g10"><g
       transform="scale(0.1,0.1)"
       id="g12"><path
         id="path14"
         style="fill:#7a7b7c;fill-opacity:1;fill-rule:nonzero;stroke:none"
         d="m 854.797,297.855 c -9.414,29.911 -11.059,45.965 -11.059,45.965 l -1.109,0 c 0,0 -2.231,-16.054 -11.66,-45.965 l -45.41,-144.601 113.574,0 -44.336,144.601 z M 943.43,8.68359 907.434,122.805 l -130.746,0 -37.086,-114.12141 -46.528,0 129.043,381.11741 45.434,0 128.512,-381.11741 -52.633,0" /><path
         id="path16"
         style="fill:#7a7b7c;fill-opacity:1;fill-rule:nonzero;stroke:none"
         d="m 1049.25,8.68359 48.7695,0 0,434.852 -48.7695,0 0,-434.852 z" /><path
         id="path18"
         style="fill:#7a7b7c;fill-opacity:1;fill-rule:nonzero;stroke:none"
         d="m 1271.4,5.91016 c -54.28,0 -74.24,38.78904 -74.24,75.35154 l 0,195.5393 -34.34,0 0,30.457 34.34,0 0,68.691 48.77,14.953 0,-83.644 52.05,0 0,-30.457 -52.05,0 0,-194.4455 c 0,-23.8086 10.49,-43.2032 37.63,-43.2032 5,0 9.42,1.0938 14.42,2.2071 l 0,-31.0156 c -5.53,-1.66021 -14.42,-4.43364 -26.58,-4.43364" /><path
         id="path20"
         style="fill:#7a7b7c;fill-opacity:1;fill-rule:nonzero;stroke:none"
         d="m 1510.15,178.215 c -75.34,-9.434 -120.22,-25.508 -120.22,-85.8986 0,-43.2031 26.6,-60.918 70.92,-60.918 18.83,0 37.11,3.3204 49.3,9.961 l 0,136.8556 z M 1456.96,3.13672 c -77.56,0 -113.55,33.78908 -113.55,88.08598 0,79.1993 74.22,102.4803 166.74,111.9143 l 0,18.261 c 0,45.985 -27.7,59.27 -65.92,59.27 -28.81,0 -55.41,-10.516 -72.01,-18.832 l -11.64,28.82 c 17.18,9.399 50.41,22.168 91.4,22.168 55.41,0 104.14,-23.847 104.14,-96.953 l 0,-191.6601 C 1533.41,11.4375 1498.53,3.13672 1456.96,3.13672" /><path
         id="path22"
         style="fill:#7a7b7c;fill-opacity:1;fill-rule:nonzero;stroke:none"
         d="m 1638.1,8.68359 0,298.57441 48.75,0 0,-298.57441 -48.75,0 z m 24.39,356.19541 c -16.07,0 -28.81,12.184 -28.81,26.586 0,14.965 12.74,27.14 28.81,27.14 15.51,0 28.24,-12.175 28.24,-27.14 0,-14.402 -12.73,-26.586 -28.24,-26.586" /><path
         id="path24"
         style="fill:#7a7b7c;fill-opacity:1;fill-rule:nonzero;stroke:none"
         d="m 1885.19,275.137 c -24.4,7.203 -52.07,4.98 -68.15,-5.547 l 0,-260.90641 -48.75,0 0,282.52341 c 29.38,14.945 57.62,22.711 128.52,21.031 l -11.62,-37.101" /><path
         id="path26"
         style="fill:#d71a34;fill-opacity:1;fill-rule:nonzero;stroke:none"
         d="m 321.879,460.844 -1.125,0.019 -1.043,0 -105.43,0.075 c -18.777,0 -24.031,-17.715 -24.031,-17.715 0,0 -62.793,-166.11 -80.223,-202.977 l 56.227,61.094 98.648,108.176 26.481,29.035 c 10.433,11.406 15.988,16.375 21.137,19.179 4.316,2.352 7.625,2.958 9.492,3.094 -0.059,0 -0.102,0.02 -0.133,0.02" /><path
         id="path28"
         style="fill:#49ace4;fill-opacity:1;fill-rule:nonzero;stroke:none"
         d="m 516.52,131.691 -134.27,170.789 17.48,-55.839 8.29,-26.434 56.265,-177.0117 c 4.66,-14.707 6.024,-22.1875 5.875,-28.0469 -0.101,-4.6093 -1.101,-7.69527 -1.894,-9.45309 l 0.293,0.48828 0.687,1.32813 50.59,94.51128 c 8.34,15.821 -3.316,29.668 -3.316,29.668" /><g
         id="g30"><g
           clip-path="url(#clipPath34)"
           id="g32"><path
             id="path46"
             style="fill:url(#linearGradient38);fill-opacity:1;fill-rule:nonzero;stroke:none"
             d="m 399.73,246.641 -17.48,55.839 -43.645,137.383 c 0,0 -6.535,20.961 -16.593,20.961 -1.867,-0.136 -5.176,-0.742 -9.492,-3.094 -5.149,-2.804 -10.704,-7.773 -21.137,-19.179 L 264.902,409.516 369.734,287.934 c 0,0 21.618,-24.829 34.52,-58.391 1.238,-3.234 2.726,-6.34 3.793,-9.512 l -0.027,0.176 -0.305,0.977 -7.985,25.457" /></g></g><g
         id="g48"><g
           clip-path="url(#clipPath52)"
           id="g50"><path
             id="path64"
             style="fill:url(#linearGradient56);fill-opacity:1;fill-rule:nonzero;stroke:none"
             d="M 136.43,268.926 10.7188,131.379 c 0,0 -14.29693,-16.172 -9.871144,-24.746 l 0.718754,-1.309 c 1.0039,-1.465 2.79297,-3.457 6.35937,-5.6248 4.98052,-3.0469 12.13282,-5.664 27.24612,-8.9648 L 73.6875,82.2969 126.738,234.309 c 0,0 10.696,31.156 33.297,59.086 2.176,2.699 4.113,5.523 6.348,8.066 l -0.129,-0.121 -29.824,-32.414" /></g></g><g
         id="g66"><g
           clip-path="url(#clipPath70)"
           id="g68"><path
             id="path82"
             style="fill:url(#linearGradient74);fill-opacity:1;fill-rule:nonzero;stroke:none"
             d="m 464.285,43.1953 -7.058,22.1875 -4.75,14.9414 -158.114,-30.0586 c 0,0 -32.383,-6.582 -67.886,-1.0156 -3.149,0.4883 -6.36,1.0352 -9.446,1.6211 l 7.309,-1.6016 63.875,-14.3359 9.652,-2.1484 143.656,-31.50395 c 0,0 19.715,-4.64844 26.368,3.80859 l 0.375,0.60547 c 0.793,1.75782 1.793,4.84379 1.894,9.45309 0.149,5.8594 -1.215,13.3399 -5.875,28.0469" /></g></g><path
         id="path84"
         style="fill:#fbc22d;fill-opacity:1;fill-rule:nonzero;stroke:none"
         d="m 1.55859,105.324 0,0 0,0 0,0 z" /><path
         id="path86"
         style="fill:#fbc42d;fill-opacity:1;fill-rule:nonzero;stroke:none"
         d="M 288.215,34.9336 224.34,49.2695 217.031,50.8711 35.1719,90.7344 c -15.1133,3.3008 -22.2656,5.9179 -27.24612,8.9648 -3.5664,2.1678 -5.35547,4.1598 -6.35937,5.6248 l -0.00782,0 C 3.14453,102.727 58.3047,13.2344 58.3047,13.2344 67.0977,-1.84375 85.6563,1.28125 85.6563,1.28125 l 212.1917,31.46485 0.113,0.0195 -9.746,2.168" /></g></g></svg>