<?xml version="1.0" encoding="UTF-8" standalone="no"?>
<!-- Created with Inkscape (http://www.inkscape.org/) -->

<svg
   xmlns:dc="http://purl.org/dc/elements/1.1/"
   xmlns:cc="http://creativecommons.org/ns#"
   xmlns:rdf="http://www.w3.org/1999/02/22-rdf-syntax-ns#"
   xmlns:svg="http://www.w3.org/2000/svg"
   xmlns="http://www.w3.org/2000/svg"
   xmlns:sodipodi="http://sodipodi.sourceforge.net/DTD/sodipodi-0.dtd"
   xmlns:inkscape="http://www.inkscape.org/namespaces/inkscape"
   id="svg2"
   version="1.1"
   inkscape:version="0.91 r13725"
   xml:space="preserve"
   width="158.23184"
   height="42.865578"
   viewBox="0 0 341.63596 92.550679"
   sodipodi:docname="liu_primary_black.svg"><metadata
     id="metadata8"><rdf:RDF><cc:Work
         rdf:about=""><dc:format>image/svg+xml</dc:format><dc:type
           rdf:resource="http://purl.org/dc/dcmitype/StillImage" /><dc:title></dc:title></cc:Work></rdf:RDF></metadata><defs
     id="defs6"><clipPath
       clipPathUnits="userSpaceOnUse"
       id="clipPath18"><path
         d="m 0,113.82 313.211,0 L 313.211,0 0,0 0,113.82 Z"
         id="path20"
         inkscape:connector-curvature="0" /></clipPath><clipPath
       clipPathUnits="userSpaceOnUse"
       id="clipPath28"><path
         d="m 21,20 271,0 0,71 -271,0 0,-71 z"
         id="path30"
         inkscape:connector-curvature="0" /></clipPath></defs><sodipodi:namedview
     pagecolor="#ffffff"
     bordercolor="#666666"
     borderopacity="1"
     objecttolerance="10"
     gridtolerance="10"
     guidetolerance="10"
     inkscape:pageopacity="0"
     inkscape:pageshadow="2"
     inkscape:window-width="640"
     inkscape:window-height="480"
     id="namedview4"
     showgrid="false"
     inkscape:zoom="1.011465"
     inkscape:cx="184.70048"
     inkscape:cy="60.494473"
     inkscape:window-x="0"
     inkscape:window-y="0"
     inkscape:window-maximized="0"
     inkscape:current-layer="g10"
     fit-margin-left="1"
     fit-margin-top="1"
     fit-margin-right="1"
     fit-margin-bottom="1" /><g
     id="g10"
     inkscape:groupmode="layer"
     inkscape:label="LiU_primary_black_marsj"
     transform="matrix(1.25,0,0,-1.25,-24.936469,115.77284)"><g
       id="g12" /><g
       id="g14"><g
         id="g16"
         clip-path="url(#clipPath18)"><g
           id="g22"><g
             id="g24"><g
               id="g26"
               clip-path="url(#clipPath28)"><g
                 id="g32"><path
                   d="m 38.82,43.117 23.867,0 0,-21.441 -23.867,0 0,21.441 z"
                   style="fill:#231f20;fill-opacity:1;fill-rule:nonzero;stroke:none"
                   id="path34"
                   inkscape:connector-curvature="0" /><path
                   d="m 69.047,69.465 21.441,0 0,-47.789 -21.441,0 0,47.789 z"
                   style="fill:#231f20;fill-opacity:1;fill-rule:nonzero;stroke:none"
                   id="path36"
                   inkscape:connector-curvature="0" /><path
                   d="m 122.613,69.465 0,-27.735 c 0,-2.457 -1.015,-3.687 -3.039,-3.687 -2.054,0 -3.082,1.23 -3.082,3.687 l 0,27.735 -21.379,0 0,-22.395 c 0,-7.89 1.856,-14.054 5.559,-18.496 4.769,-5.687 11.062,-8.269 18.879,-8.269 7.816,0 14.109,2.582 18.883,8.269 3.703,4.442 5.554,10.606 5.554,18.496 l 0,22.395 -21.375,0"
                   style="fill:#231f20;fill-opacity:1;fill-rule:nonzero;stroke:none"
                   id="path38"
                   inkscape:connector-curvature="0" /><path
                   d="m 189.121,48.961 -1.699,0 -0.027,0.047 -10.004,16.812 0,-16.859 -1.883,0 0,20.504 1.672,0 0.027,-0.043 10.027,-16.871 0,16.914 1.887,0 0,-20.504"
                   style="fill:#231f20;fill-opacity:1;fill-rule:nonzero;stroke:none"
                   id="path40"
                   inkscape:connector-curvature="0" /><path
                   d="m 261.121,48.961 -1.703,0 -0.023,0.047 -10.004,16.812 0,-16.859 -1.887,0 0,20.504 1.672,0 0.027,-0.043 10.031,-16.871 0,16.914 1.887,0 0,-20.504"
                   style="fill:#231f20;fill-opacity:1;fill-rule:nonzero;stroke:none"
                   id="path42"
                   inkscape:connector-curvature="0" /><path
                   d="m 167.238,48.961 -10.82,0 0,20.504 1.883,0 0,-18.676 8.937,0 0,-1.828"
                   style="fill:#231f20;fill-opacity:1;fill-rule:nonzero;stroke:none"
                   id="path44"
                   inkscape:connector-curvature="0" /><path
                   d="m 169.461,69.465 1.883,0 0,-20.504 -1.883,0 0,20.504 z"
                   style="fill:#231f20;fill-opacity:1;fill-rule:nonzero;stroke:none"
                   id="path46"
                   inkscape:connector-curvature="0" /><path
                   d="m 211.832,70.672 c -0.621,0 -1.148,0.527 -1.148,1.148 0,0.621 0.527,1.149 1.148,1.149 0.621,0 1.148,-0.528 1.148,-1.149 0,-0.621 -0.527,-1.148 -1.148,-1.148 z m 5.25,0 c -0.621,0 -1.144,0.527 -1.144,1.148 0,0.621 0.523,1.149 1.144,1.149 0.625,0 1.148,-0.528 1.148,-1.149 0,-0.621 -0.523,-1.148 -1.148,-1.148 z m -2.625,-2.715 c -2.996,0 -5.008,-2.117 -5.008,-5.269 l 0,-6.86 c 0,-3.152 2.012,-5.269 5.008,-5.269 2.996,0 5.008,2.117 5.008,5.269 l 0,6.832 c 0,3.168 -2.012,5.297 -5.008,5.297 z m 0,-19.227 c -4.059,0 -6.895,2.942 -6.895,7.153 l 0,6.719 c 0,4.23 2.836,7.179 6.895,7.179 4.059,0 6.895,-2.949 6.895,-7.179 l 0,-6.719 c 0,-4.211 -2.836,-7.153 -6.895,-7.153"
                   style="fill:#231f20;fill-opacity:1;fill-rule:nonzero;stroke:none"
                   id="path48"
                   inkscape:connector-curvature="0" /><path
                   d="m 226.973,56.668 3.941,0 c 3.227,0 5.156,1.894 5.156,5.066 l 0,0.723 c 0,3.273 -1.879,5.152 -5.156,5.152 l -3.941,0 0,-10.941 z m 0,-7.707 -1.887,0 0,20.504 5.887,0 c 4.242,0 6.98,-2.75 6.98,-7.008 l 0,-0.75 c 0,-4.234 -2.676,-6.863 -6.98,-6.863 l -4,0 0,-5.883"
                   style="fill:#231f20;fill-opacity:1;fill-rule:nonzero;stroke:none"
                   id="path50"
                   inkscape:connector-curvature="0" /><path
                   d="m 241.238,69.465 1.887,0 0,-20.504 -1.887,0 0,20.504 z"
                   style="fill:#231f20;fill-opacity:1;fill-rule:nonzero;stroke:none"
                   id="path52"
                   inkscape:connector-curvature="0" /><path
                   d="m 271.707,48.672 c -4.043,0 -6.867,2.941 -6.867,7.156 l 0,6.832 c 0,4.211 2.824,7.152 6.867,7.152 3.969,0 6.805,-2.871 6.895,-6.98 l 0,-0.094 -1.883,0 -0.004,0.094 c -0.055,3.082 -2.067,5.152 -5.008,5.152 -3.121,0 -4.98,-2.152 -4.98,-5.757 l 0,-6.43 c 0,-3.152 2,-5.266 4.98,-5.266 2.996,0 5.008,2.114 5.008,5.266 l 0,1.062 -5.07,0 0,1.711 6.957,0 0,-2.742 c 0,-4.215 -2.836,-7.156 -6.895,-7.156"
                   style="fill:#231f20;fill-opacity:1;fill-rule:nonzero;stroke:none"
                   id="path54"
                   inkscape:connector-curvature="0" /><path
                   d="m 207.188,48.961 -2.243,0 -0.027,0.035 -7.129,9.508 -2.101,0 0,-9.543 -1.887,0 0,20.504 1.887,0 0,-9.192 2.128,0 6.086,9.192 2.157,0 -6.664,-10.094 7.793,-10.41"
                   style="fill:#231f20;fill-opacity:1;fill-rule:nonzero;stroke:none"
                   id="path56"
                   inkscape:connector-curvature="0" /><path
                   d="m 188.059,21.676 -1.704,0 -0.027,0.047 -10,16.812 0,-16.859 -1.887,0 0,20.504 1.672,0 0.028,-0.043 10.031,-16.871 0,16.914 1.887,0 0,-20.504"
                   style="fill:#231f20;fill-opacity:1;fill-rule:nonzero;stroke:none"
                   id="path58"
                   inkscape:connector-curvature="0" /><path
                   d="m 205.047,21.676 -1.805,0 -0.023,0.062 -6.696,20.442 1.985,0 0.019,-0.063 5.618,-17.461 5.667,17.524 1.981,0 -0.043,-0.121 -6.703,-20.383"
                   style="fill:#231f20;fill-opacity:1;fill-rule:nonzero;stroke:none"
                   id="path60"
                   inkscape:connector-curvature="0" /><path
                   d="m 163.023,21.445 c -4.058,0 -6.894,2.942 -6.894,7.153 l 0,13.582 1.887,0 0,-13.637 c 0,-3.152 2.011,-5.27 5.007,-5.27 2.997,0 5.012,2.118 5.012,5.27 l 0,13.637 1.883,0 0,-13.582 c 0,-4.211 -2.836,-7.153 -6.895,-7.153"
                   style="fill:#231f20;fill-opacity:1;fill-rule:nonzero;stroke:none"
                   id="path62"
                   inkscape:connector-curvature="0" /><path
                   d="m 192.477,42.18 1.883,0 0,-20.504 -1.883,0 0,20.504 z"
                   style="fill:#231f20;fill-opacity:1;fill-rule:nonzero;stroke:none"
                   id="path64"
                   inkscape:connector-curvature="0" /><path
                   d="m 229.965,29.965 3.945,0 c 3.227,0 5.152,1.762 5.152,4.719 l 0,0.808 c 0,3.117 -1.828,4.836 -5.152,4.836 l -3.945,0 0,-10.363 z m 11.023,-8.285 -2.281,0 -0.027,0.035 -4.903,6.422 -3.812,0 0,-6.457 -1.883,0 0,20.504 5.973,0 c 4.25,0 6.894,-2.586 6.894,-6.75 l 0,-0.75 c 0,-3.372 -1.953,-5.692 -5.226,-6.235 l 5.265,-6.769"
                   style="fill:#231f20;fill-opacity:1;fill-rule:nonzero;stroke:none"
                   id="path66"
                   inkscape:connector-curvature="0" /><path
                   d="m 260.211,42.184 1.887,0 0,-20.504 -1.887,0 0,20.504 z"
                   style="fill:#231f20;fill-opacity:1;fill-rule:nonzero;stroke:none"
                   id="path68"
                   inkscape:connector-curvature="0" /><path
                   d="m 225.316,21.676 -11.453,0 0,20.504 11.192,0 0,-1.852 -9.309,0 0,-7.426 6.863,0 0,-1.714 -6.863,0 0,-7.68 9.57,0 0,-1.832"
                   style="fill:#231f20;fill-opacity:1;fill-rule:nonzero;stroke:none"
                   id="path70"
                   inkscape:connector-curvature="0" /><path
                   d="m 250.391,32.75 c -2.692,0.672 -5.235,1.312 -5.235,4.184 0,2.359 1.614,3.769 4.532,3.769 2.226,0 4.597,-1.277 4.71,-4.808 l 1.891,0 c -0.113,4.886 -3.434,6.636 -6.543,6.636 -4.058,0 -6.445,-2.144 -6.445,-5.597 0,-4.243 3.387,-5.102 6.375,-5.856 2.605,-0.66 5.066,-1.281 5.066,-3.976 0,-2.926 -2.543,-3.969 -4.922,-3.969 -3.121,0 -4.98,2.031 -4.98,5.441 l 0,0.09 -1.86,0 0,-0.09 c 0,-4.398 2.688,-7.238 6.84,-7.238 4.133,0 6.809,2.273 6.809,5.797 0,4.051 -3.172,4.847 -6.238,5.617"
                   style="fill:#231f20;fill-opacity:1;fill-rule:nonzero;stroke:none"
                   id="path72"
                   inkscape:connector-curvature="0" /><path
                   d="m 271.191,21.68 -1.882,0 0,18.648 -5.481,0 0,1.856 12.641,0 0,-1.856 -5.278,0 0,-18.648"
                   style="fill:#231f20;fill-opacity:1;fill-rule:nonzero;stroke:none"
                   id="path74"
                   inkscape:connector-curvature="0" /><path
                   d="m 279.215,42.184 5.164,-11.09 5.18,11.09 1.972,0 -6.281,-12.848 0,-7.656 -1.715,0 0,7.656 -6.254,12.848 1.934,0"
                   style="fill:#231f20;fill-opacity:1;fill-rule:nonzero;stroke:none"
                   id="path76"
                   inkscape:connector-curvature="0" /><path
                   d="m 21.676,90.891 21.438,0 0,-69.215 -21.438,0 0,69.215 z"
                   style="fill:#231f20;fill-opacity:1;fill-rule:nonzero;stroke:none"
                   id="path78"
                   inkscape:connector-curvature="0" /></g></g></g></g></g></g></g></svg>