<?xml version="1.0" encoding="UTF-8" standalone="no"?>
<!-- Generator: Adobe Illustrator 15.1.0, SVG Export Plug-In . SVG Version: 6.00 Build 0)  -->

<svg
   xmlns:dc="http://purl.org/dc/elements/1.1/"
   xmlns:cc="http://creativecommons.org/ns#"
   xmlns:rdf="http://www.w3.org/1999/02/22-rdf-syntax-ns#"
   xmlns:svg="http://www.w3.org/2000/svg"
   xmlns="http://www.w3.org/2000/svg"
   xmlns:sodipodi="http://sodipodi.sourceforge.net/DTD/sodipodi-0.dtd"
   xmlns:inkscape="http://www.inkscape.org/namespaces/inkscape"
   version="1.0"
   id="Layer_1"
   x="0px"
   y="0px"
   width="116.3194"
   height="47.524624"
   viewBox="0 0 116.3194 47.524624"
   enable-background="new 0 0 387.729 158.416"
   xml:space="preserve"
   inkscape:version="0.91 r13725"
   sodipodi:docname="Maplesoft_logo.svg"><metadata
     id="metadata256"><rdf:RDF><cc:Work
         rdf:about=""><dc:format>image/svg+xml</dc:format><dc:type
           rdf:resource="http://purl.org/dc/dcmitype/StillImage" /><dc:title></dc:title></cc:Work></rdf:RDF></metadata><defs
     id="defs254" /><sodipodi:namedview
     pagecolor="#ffffff"
     bordercolor="#666666"
     borderopacity="1"
     objecttolerance="10"
     gridtolerance="10"
     guidetolerance="10"
     inkscape:pageopacity="0"
     inkscape:pageshadow="2"
     inkscape:window-width="730"
     inkscape:window-height="480"
     id="namedview252"
     showgrid="false"
     fit-margin-top="0"
     fit-margin-left="0"
     fit-margin-right="0"
     fit-margin-bottom="0"
     inkscape:zoom="0.80984398"
     inkscape:cx="58.159352"
     inkscape:cy="23.762606"
     inkscape:window-x="0"
     inkscape:window-y="0"
     inkscape:window-maximized="0"
     inkscape:current-layer="Layer_1" /><g
     id="g3"
     transform="matrix(0.3,0,0,0.3,0,-1.7615589e-4)"><g
       id="g5"><path
         d="m 101.652,75.777 c -0.594,-2.723 -2.396,-5.053 -5.363,-6.939 -2.986,-1.902 -7.525,-2.861 -13.486,-2.861 -4.961,0 -9.051,0.848 -12.131,2.531 -3.074,1.672 -5.139,3.605 -6.139,5.758 -1.029,2.189 -1.545,5.369 -1.545,9.453 l 0,3.123 15.783,0 0,-5.145 c 0,-3.096 0.158,-4.979 0.48,-5.76 0.264,-0.635 0.965,-1.393 2.781,-1.393 1.275,0 2.238,0.539 2.793,1.553 0.502,0.932 0.744,2.797 0.744,5.713 0,2.346 -0.227,3.883 -0.682,4.693 -0.336,0.59 -1.754,1.641 -9.775,4.52 -5.414,1.92 -8.838,3.607 -10.162,5.004 -1.303,1.369 -1.963,4.047 -1.963,7.959 l 0,4.445 c 0,5.27 1.25,8.713 3.713,10.219 2.529,1.557 5.348,2.344 8.381,2.344 2.297,0 4.295,-0.463 5.941,-1.379 1.656,-0.916 3.02,-2.32 4.064,-4.168 l 1.025,0.223 0,4.336 16.463,0 0,-26.633 c 0.002,-8.856 -0.311,-14.776 -0.922,-17.596 z m -16.082,30.14 c 0,3.766 -0.328,4.813 -0.564,5.266 -0.443,0.826 -1.348,1.244 -2.703,1.244 -1.771,0 -2.547,-0.83 -2.887,-1.521 -0.43,-0.893 -0.645,-2.732 -0.645,-5.641 0,-2.529 0.23,-4.424 0.711,-5.797 0.506,-1.424 2.211,-3.092 5.221,-5.113 l 0.867,-0.584 0,12.146 z"
         id="path7"
         inkscape:connector-curvature="0"
         style="fill:#005581" /></g><g
       id="g9"><path
         d="m 148.619,72.402 c -0.469,-1.67 -1.682,-3.172 -3.6,-4.473 -1.928,-1.297 -4.252,-1.953 -6.904,-1.953 -2.186,0 -4.213,0.453 -6.057,1.369 -1.85,0.926 -3.574,2.334 -5.119,4.205 l -1.084,1.311 0.107,-1.637 0.268,-4.254 -17.271,0 0,60.734 17.004,0 0,-13.373 0.977,1.172 c 1.52,1.82 3.215,3.207 5.035,4.123 1.805,0.904 3.797,1.367 5.92,1.367 2.66,0 4.959,-0.592 6.836,-1.766 1.85,-1.16 3.096,-2.738 3.693,-4.697 0.621,-2.021 0.939,-5.504 0.939,-10.35 l 0,-22.77 c 0,-4.233 -0.25,-7.26 -0.744,-9.008 z m -16.258,32.961 c 0,2.965 -0.148,4.795 -0.455,5.607 -0.238,0.664 -0.898,1.457 -2.619,1.457 -1.742,0 -2.465,-0.842 -2.768,-1.541 -0.371,-0.877 -0.557,-2.936 -0.557,-6.291 l 0,-22.42 c 0,-3.223 0.176,-5.209 0.533,-6.088 0.289,-0.707 0.996,-1.543 2.752,-1.543 1.793,0 2.455,0.762 2.693,1.398 0.273,0.77 0.42,2.805 0.42,6.232 l 0,23.189 z"
         id="path11"
         inkscape:connector-curvature="0"
         style="fill:#005581" /></g><g
       id="g13"><rect
         x="155.035"
         y="55.042"
         width="17.551001"
         height="64.962997"
         id="rect15"
         style="fill:#005581" /></g><g
       id="g17"><path
         d="m 218.432,93.916 0,-6.66 c 0,-5.143 -0.648,-9.184 -1.947,-12 -1.268,-2.775 -3.52,-5.033 -6.685,-6.723 -3.191,-1.703 -7.305,-2.557 -12.244,-2.557 -4.027,0 -7.631,0.713 -10.73,2.125 -3.053,1.395 -5.279,3.424 -6.619,6.039 -1.354,2.65 -2.043,6.342 -2.043,10.975 l 0,15.762 c 0,3.967 0.305,7.012 0.916,9.059 0.602,2.027 1.697,3.91 3.26,5.596 1.551,1.674 3.764,3.02 6.584,3.992 2.838,0.979 6.162,1.471 9.883,1.471 3.84,0 7.057,-0.496 9.584,-1.484 2.503,-0.986 4.595,-2.475 6.226,-4.438 1.637,-1.979 2.693,-3.855 3.135,-5.574 0.455,-1.76 0.682,-4.322 0.682,-7.6 l 0,-3.509 -16.054,0 0,6.66 c 0,2.795 -0.24,4.646 -0.727,5.67 -0.363,0.771 -1.23,1.707 -3.188,1.707 -1.619,0 -2.352,-0.729 -2.672,-1.34 -0.422,-0.783 -0.627,-2.406 -0.627,-4.955 l 0,-12.216 23.266,0 z M 195.166,81.658 c 0,-4.162 0.273,-5.285 0.479,-5.758 0.254,-0.619 0.953,-1.355 2.783,-1.355 1.225,0 2.088,0.531 2.482,1.545 0.344,0.873 0.518,2.695 0.518,5.568 l 0,4.439 -6.262,0 0,-4.439 z"
         id="path19"
         inkscape:connector-curvature="0"
         style="fill:#005581" /></g><path
       d="m 57.052,55.042 0,64.99 -16.162,0 -0.057,-43.879 -6.452,43.879 -11.387,0 -6.771,-42.949 -0.043,42.949 -16.17,0 0,-64.99 23.871,0 c 0.696,3.939 1.434,8.555 2.214,13.852 l 2.643,16.498 4.245,-30.35 24.069,0 z"
       id="path21"
       inkscape:connector-curvature="0"
       style="fill:#005581" /></g><path
     d="m 68.4294,32.794024 c 0.4611,0.8859 1.8726,2.2641 3.7137,2.2641 1.6389,0 3.1833,-1.0179 3.1833,-2.9556 0,-4.0716 -7.7472,-1.6734 -7.7472,-7.2216 0,-2.8581 1.9683,-4.9575 5.4486,-4.9575 1.6095,0 2.628,0.5895 3.6423,0.9189 -0.3567,0.6228 -0.7212,1.8375 -0.7857,2.331 l -0.3954,0 c -0.3288,-1.0518 -1.4103,-2.0379 -2.8893,-2.0379 -1.2798,0 -2.7927,0.8208 -2.7927,2.7591 0,4.269 7.7526,1.6431 7.7526,7.1919 0,2.4942 -2.2665,5.1879 -5.9109,5.1879 -2.0022,0 -3.3153,-0.5589 -4.2357,-1.0863 0.2625,-0.555 0.6234,-1.7385 0.6234,-2.3937 l 0.393,0 z"
     id="path23"
     inkscape:connector-curvature="0" /><path
     d="m 86.6127,19.923424 c 3.8085,0 7.9788,2.1978 7.9788,8.1732 0,5.9784 -4.17,8.1774 -7.9788,8.1774 -3.8103,0 -7.98,-2.199 -7.98,-8.1774 3e-4,-5.9754 4.1697,-8.1732 7.98,-8.1732 z m 0,15.2982 c 3.873,0 5.0853,-3.4458 5.0853,-7.125 0,-3.6756 -1.2123,-7.122 -5.0853,-7.122 -3.876,0 -5.0919,3.4464 -5.0919,7.122 3e-4,3.6789 1.2162,7.125 5.0919,7.125 z"
     id="path25"
     inkscape:connector-curvature="0" /><path
     d="m 103.5993,13.814224 c -0.5232,-0.3276 -1.1442,-0.4929 -1.806,-0.4929 -1.9383,0 -2.6883,1.5774 -2.6883,3.2823 0,0.7899 0.1962,2.4978 0.3903,3.8439 1.1175,0 2.2671,-0.0333 3.3843,-0.0333 -0.0345,0.231 -0.0681,0.4611 -0.0681,0.6564 0,0.2304 0.0333,0.4617 0.0681,0.6573 -1.1175,-0.0321 -2.2671,-0.0966 -3.3843,-0.0966 0,4.7583 0,9.4869 0.1308,14.3121 -0.4563,-0.0984 -0.9474,-0.1641 -1.4103,-0.1641 -0.4581,0 -0.951,0.0657 -1.4415,0.1641 0.2919,-4.8252 0.2919,-9.5187 0.2919,-14.3121 -0.7863,0 -1.5738,0.0645 -2.3625,0.0966 0.0333,-0.1956 0.0645,-0.4272 0.0645,-0.6573 0,-0.195 -0.0312,-0.4254 -0.0645,-0.6564 0.7887,0 1.6095,0.0333 2.3625,0.0333 0,-2.5611 1.1175,-6.2052 2.8575,-7.9458 0.7863,-0.7869 2.0994,-1.5105 3.3498,-1.5105 0.1956,0 0.4587,0.0333 0.6552,0.099 -0.0312,0.8871 -0.1296,1.7742 -0.1296,2.6262 l -0.1998,0.0978 z"
     id="path27"
     inkscape:connector-curvature="0" /><path
     d="m 109.2465,15.850924 0.1659,0 c -0.1296,1.6431 -0.1992,3.2508 -0.2637,4.8591 0.4599,0 1.9728,-0.0339 3.4827,-0.0966 -0.0333,0.2286 -0.0333,0.4569 -0.0333,0.6873 0,0.2313 0,0.4599 0.0333,0.6885 -1.152,-0.0627 -2.6931,-0.0627 -3.4827,-0.0627 -0.0651,0.3276 -0.2286,5.4804 -0.2286,8.3391 0,2.4621 0.0639,4.956 2.6583,4.956 0.3603,0 1.053,-0.0966 1.4796,-0.2292 l 0,0.7869 c -0.7587,0.2631 -1.7091,0.4944 -2.5314,0.4944 -2.7252,0 -4.0365,-1.5435 -4.0365,-4.1058 0,-2.3964 0.195,-5.352 0.2298,-10.2417 -0.6564,0 -1.38,0 -2.2359,0.0627 0.0351,-0.2613 0.0696,-0.4911 0.0696,-0.7548 0,-0.2268 -0.0345,-0.4266 -0.0696,-0.6573 0.9915,0.0681 1.7103,0.099 2.1702,0.099 -0.0339,-0.8532 -0.0669,-2.2653 -0.1314,-3.6774 l 2.7237,-1.1475 z"
     id="path29"
     inkscape:connector-curvature="0" /><linearGradient
     id="SVGID_1_"
     gradientUnits="userSpaceOnUse"
     x1="361.94971"
     y1="-16.3633"
     x2="370.33511"
     y2="22.644501"
     gradientTransform="matrix(-0.2907,0.0741,0.0741,0.2907,180.74031,-23.025746)"><stop
       offset="0"
       style="stop-color:#FFFFFF"
       id="stop32" /><stop
       offset="1"
       style="stop-color:#005581"
       id="stop34" /></linearGradient><path
     d="m 95.0862,0.73542384 c -0.4986,-0.0741 -1.3764,0.1419 -2.2653,0.41699996 -1.5276,0.4698 -4.2867,3.3612 -6.5913,5.3796 -2.1357,1.8702 -5.2827,5.7996002 -12.7641,6.5442002 -4.3746,0.1893 -6.0333,-1.2708 -6.7407,-1.854 -0.4284,-0.3492 -3.6819,-2.3325002 -6.2925,-3.0609002 -2.0316,-0.5676 -3.8265,-0.8115 -4.1355,-0.699 -0.5712,0.2079 -2.124,0.2391 -2.124,0.2391 0,0 -1.3983,-0.3504 -1.2285,-1.1316 0.1701,-0.783 1.0518,-0.0987 1.6578,-0.087 0.6093,0.0126 2.9292,0.0315 5.2302,0.7455 2.2182,0.6855 6.1482,2.7411 7.179,2.5485 1.0236,-0.195 3.3639,-3.2787 3.4605,-4.2123 0.0978,-0.9327 0.6411,-0.1302 0.87,0.2496 0.2325,0.3768 0.3645,1.2855 0.8373,0.7611 0.4698,-0.5229 2.85,-3.3144 3.1635,-3.7986 0.3165,-0.4848 0.8058,-0.0051 0.9978,0.2163 0.1911,0.2214 1.2516,2.2692 1.8909,2.2758 0.6399,0.0042 3.0099,-2.5818 3.8679,-2.4984 0,0 -1.3113,2.2194 -1.146,2.6139 0.1683,0.3942 1.7004,0.3708 3.3687,-0.8205 1.3935,-0.9936 4.0722,-3.1773 4.3683,-3.3642 1.5726,-0.97589996 2.7819,-1.24889996 3.1938,-1.19249996 -0.5268,0.1701 -1.2855,0.6213 -1.2855,0.6213 0,0 3.0633,-0.7716 4.0206,-0.579 0.9552,0.1929 1.3629,0.7296 1.4274,0.8466 0.0609,0.11849996 -0.9603,-0.1605 -0.9603,-0.1605 z"
     id="path36"
     style="fill:url(#SVGID_1_)"
     inkscape:connector-curvature="0" /><radialGradient
     id="SVGID_2_"
     cx="327.18991"
     cy="-35.290501"
     r="67.757004"
     gradientTransform="matrix(-0.2907,0.0741,0.0741,0.2907,180.74031,-23.025746)"
     gradientUnits="userSpaceOnUse"><stop
       offset="0"
       style="stop-color:#FFFFFF"
       id="stop39" /><stop
       offset="1"
       style="stop-color:#005581"
       id="stop41" /></radialGradient><path
     d="m 89.8608,2.6311238 c -1.3335,0.5733 -1.9065,-0.7737 -2.22,-1.3341 -0.3105,-0.56009996 -0.6222,-0.2895 -0.8613,-0.0756 -0.3345,0.3 -3.5097,3.8706 -4.4139,4.8069 -0.9042,0.9369 -1.8843,-1.3395 -2.3343,-2.0583 -0.6111,-0.9714 -1.7304,2.691 -2.5857,2.7897 -0.5823,0.0675 -2.5893,-2.3532 -2.9724,-2.6601 -0.3774,-0.3075 -0.8736,-1.0635 -1.1496,0.3732 -0.2667,1.3812 -1.629,4.6212 -2.1321,4.8861 -0.5046,0.2619 -2.8266,-1.0272 -3.2466,-1.2228 -0.4194,-0.195 -0.1353,3.0345002 -0.6978,3.0774002 l -0.5442,-0.0669 c 0,0 0.9798,2.6544 7.3212,1.8669 4.5327,-0.5637 7.2429,-1.8393 11.4276,-5.7603002 3.7875,-3.5508 6.2964,-5.5383 6.2964,-5.5383 l -1.8873,0.9162 z"
     id="path43"
     style="fill:url(#SVGID_2_)"
     inkscape:connector-curvature="0" /><g
     id="g45"
     transform="matrix(0.3,0,0,0.3,0,-1.7615589e-4)"><g
       id="g47"
       style="opacity:0.75"><linearGradient
         id="SVGID_3_"
         gradientUnits="userSpaceOnUse"
         x1="159.1514"
         y1="183.2446"
         x2="163.0955"
         y2="211.2258"
         gradientTransform="matrix(-0.996,0.0231,-2.2885,-0.951,875.8492,246.8432)"><stop
           offset="0"
           style="stop-color:#FFFFFF"
           id="stop50" /><stop
           offset="1"
           style="stop-color:#005581"
           id="stop52" /></linearGradient><path
         d="m 311.985,55.755 c -0.984,0.223 -3.695,0.293 -6.605,0.314 -5.008,0.041 -20.041,-1.777 -31.438,-2.93 -10.559,-1.063 -30.463,-3.629 -50.418,-1.992 -10.947,1.188 -9.51,2.99 -10.365,3.418 -0.531,0.262 -6.516,1.512 -13.949,1.596 -5.79,0.07 -11.676,-0.141 -13.151,-0.344 -2.739,-0.371 -8.557,-0.803 -8.557,-0.803 0,0 -4.113,0.006 -1.116,0.871 2.994,0.875 4.184,0.387 6.378,0.527 2.213,0.148 10.719,0.732 17.059,0.578 6.102,-0.148 14.378,-1.291 18.765,-0.814 4.369,0.467 17.793,1.928 20.762,2.758 2.971,0.832 1.9,-0.076 1.34,-0.494 -0.559,-0.43 -2.914,-1.309 -0.254,-0.975 2.65,0.342 16.502,2.188 18.658,2.541 2.166,0.348 1.932,-0.252 1.734,-0.512 -0.195,-0.266 -3.689,-2.492 -2.18,-2.701 1.5,-0.191 14.723,1.467 16.518,1.115 0,0 -9.635,-1.645 -10.395,-2.064 -0.754,-0.41 2.949,-0.875 10.406,-0.285 6.229,0.482 18.977,1.652 20.25,1.754 1.285,0.098 7.516,0.23 8.027,0.182 0.525,-0.043 -3.035,-0.223 -3.035,-0.223 0,0 10.752,-0.258 12.461,-0.742 1.717,-0.477 1.1,-1.096 0.9,-1.225 -0.184,-0.126 -1.795,0.45 -1.795,0.45 z"
         id="path54"
         style="opacity:0.2;fill:url(#SVGID_3_)"
         inkscape:connector-curvature="0" /><radialGradient
         id="SVGID_4_"
         cx="143.2583"
         cy="324.54251"
         r="77.723999"
         gradientTransform="matrix(-0.9589,0.0231,-0.715,-0.3086,677.7723,171.48)"
         gradientUnits="userSpaceOnUse"><stop
           offset="0.0056"
           style="stop-color:#FFFFFF"
           id="stop57" /><stop
           offset="1"
           style="stop-color:#005581"
           id="stop59" /></radialGradient><path
         d="m 294.012,55.63 c -4.859,-0.123 -3.932,0.816 -3.021,1.434 0.891,0.607 -0.859,0.537 -2.059,0.418 -1.68,-0.184 -17.799,-2.082 -22.709,-2.678 -4.881,-0.582 -0.531,1.832 0.506,2.637 1.395,1.09 -11.998,-1.951 -14.322,-1.775 -1.588,0.117 0.756,2.979 0.748,3.391 0,0.398 1.045,1.252 -3.83,0.008 -4.686,-1.195 -17.422,-3.777 -19.404,-3.859 -1.965,-0.084 -3.695,1.83 -4.115,2.135 -0.424,0.318 -8.498,-2.439 -10.686,-2.633 l -1.814,-0.066 c 0,0 -1.043,-2.5 11.131,-3.475 12.18,-0.977 24.148,-0.695 45.529,1.549 21.4,2.256 31.223,3.215 31.223,3.215 l -7.177,-0.301 z"
         id="path61"
         style="opacity:0.2;fill:url(#SVGID_4_)"
         inkscape:connector-curvature="0" /></g><g
       id="g63"
       style="opacity:0.75"><linearGradient
         id="SVGID_5_"
         gradientUnits="userSpaceOnUse"
         x1="490.34909"
         y1="182.59331"
         x2="494.3223"
         y2="210.78059"
         gradientTransform="matrix(-1.0025,0.0016,1.5264,-1,446.8361,258.2905)"><stop
           offset="0"
           style="stop-color:#FFFFFF"
           id="stop66" /><stop
           offset="1"
           style="stop-color:#005581"
           id="stop68" /></linearGradient><path
         d="m 325.297,56.177 c -1.707,0.197 -4.477,0.215 -7.234,0.172 -4.742,-0.07 -11.875,-2.223 -18.107,-3.635 -5.766,-1.303 -14.637,-4.309 -38.967,-3.119 -14.402,0.945 -19.713,2.773 -22.08,3.188 -1.41,0.246 -11.508,1.355 -18.664,1.285 -5.566,-0.061 -10.205,-0.406 -10.813,-0.637 -1.163,-0.428 -4.908,-1 -4.908,-1 0,0 -3.784,-0.088 -4.229,0.854 -0.456,0.938 2.436,0.471 3.936,0.666 1.487,0.197 7.141,0.971 13.533,0.967 6.146,-0.018 17.971,-0.982 20.248,-0.412 2.279,0.572 9.236,2.334 8.912,3.232 -0.34,0.9 2.02,-0.031 3.055,-0.465 1.035,-0.439 2.117,-1.379 3.318,-0.971 1.193,0.396 7.131,2.549 7.838,2.941 0.693,0.4 2.668,-0.195 3.461,-0.469 0.787,-0.273 5.754,-2.572 7.895,-2.74 2.125,-0.174 8.17,1.773 11.088,1.477 0,0 -2.803,-1.861 -1.969,-2.295 0.838,-0.436 5.928,-0.809 10.627,-0.063 3.918,0.629 11.35,2.078 12.137,2.217 0.797,0.125 6.059,0.389 6.695,0.361 0.648,-0.035 -1.939,-0.301 -1.939,-0.301 0,0 10.824,-0.02 14.131,-0.453 3.318,-0.441 5.039,-1.074 5.344,-1.209 0.294,-0.132 -3.308,0.409 -3.308,0.409 z"
         id="path70"
         style="opacity:0.2;fill:url(#SVGID_5_)"
         inkscape:connector-curvature="0" /><radialGradient
         id="SVGID_6_"
         cx="474.1333"
         cy="323.59811"
         r="77.690102"
         gradientTransform="matrix(-0.9652,0.0016,0.4769,-0.3245,555.9385,179.2102)"
         gradientUnits="userSpaceOnUse"><stop
           offset="0"
           style="stop-color:#FFFFFF"
           id="stop73" /><stop
           offset="1"
           style="stop-color:#005581"
           id="stop75" /></radialGradient><path
         d="m 309.272,55.65 c -4.029,-0.232 -6.617,0.725 -8.043,1.365 -1.434,0.633 -2.783,0.514 -3.424,0.369 -0.9,-0.215 -8.705,-2.477 -11.049,-3.176 -2.352,-0.689 -7.205,1.813 -9.213,2.646 -2.709,1.115 -3.83,-2.225 -6.623,-2.098 -1.879,0.08 -10.266,2.998 -11.75,3.4 -1.48,0.4 -3.652,1.281 -3.553,-0.076 0.088,-1.297 -2.146,-4.158 -3.629,-4.283 -1.496,-0.137 -10.127,1.74 -11.666,2.047 -1.529,0.301 1.168,-2.633 -0.146,-2.873 l -1.4,-0.111 c 0,0 8.215,-2.525 22.986,-3.227 14.758,-0.697 24.732,-0.16 36.105,2.566 11.396,2.727 16.865,3.91 16.865,3.91 l -5.46,-0.459 z"
         id="path77"
         style="opacity:0.2;fill:url(#SVGID_6_)"
         inkscape:connector-curvature="0" /></g></g><path
     d="m 115.2189,20.738824 -0.702,0 0,0.1512 0.2742,0 0,0.9042 0.1536,0 0,-0.9042 0.2742,0 0,-0.1512 z m 1.0998,0 -0.2202,0 -0.2571,0.7446 -0.004,0 -0.2439,-0.7446 -0.225,0 0,1.0554 0.1383,0 0,-0.9042 0.004,0 0.2895,0.9042 0.0813,0 0.2937,-0.9042 0.007,0 0,0.9042 0.1371,0 0,-1.0554 z"
     id="path79"
     inkscape:connector-curvature="0" /><g
     id="g81"
     transform="matrix(0.3,0,0,0.3,0,-1.7615589e-4)"><path
       d="m 12.743,141.109 2.691,0 0,13.824 -1.528,0 0,-11.391 c 0,-0.59 0.033,-1.16 0,-1.75 l -0.037,0 c -0.169,0.811 -0.297,1.326 -0.426,1.863 l -2.891,11.277 -1.83,0 -2.894,-11.445 c -0.125,-0.48 -0.239,-0.941 -0.401,-1.695 l -0.033,0 c 0,0.59 0.032,1.197 0.032,1.787 l 0,11.354 -1.53,0 0,-13.824 2.709,0 2.709,10.783 c 0.145,0.59 0.222,1.16 0.292,2.047 l 0.041,0 c 0.091,-0.701 0.184,-1.385 0.35,-2.068 l 2.746,-10.762 z"
       id="path83"
       inkscape:connector-curvature="0"
       style="fill:#005581" /><path
       d="m 27.49,154.933 c -0.115,0.018 -0.226,0.035 -0.336,0.07 -1.234,0.059 -1.694,-0.053 -1.841,-1.451 l -0.037,0 c -0.354,0.898 -1.292,1.656 -2.265,1.656 -2.051,0 -2.636,-1.143 -2.636,-3.004 0,-0.387 0.051,-1.861 1.469,-2.486 0.832,-0.369 2.898,-1.145 3.078,-1.293 0.313,-0.238 0.28,-0.645 0.28,-1.18 0,-1.16 -0.442,-1.605 -1.624,-1.605 -1.326,0 -1.514,0.607 -1.491,1.811 l -1.31,0 c -0.074,-2.119 0.979,-3.043 3.041,-3.043 3.042,0 2.784,2.547 2.784,2.785 l 0,5.877 c 0,0.258 -0.034,0.627 0.258,0.775 0.206,0.055 0.426,0.035 0.63,0.018 l 0,1.07 z m -2.398,-5.531 c -0.722,0.424 -1.528,0.738 -2.305,1.109 -0.681,0.311 -0.905,1.066 -0.905,1.768 0,1.031 0.26,1.695 1.443,1.695 0.548,0 1.767,-0.422 1.767,-2.082 l 0,-2.49 z"
       id="path85"
       inkscape:connector-curvature="0"
       style="fill:#005581" /><path
       d="m 33.973,144.685 1.715,0 0,1.234 -1.693,0 0,6.986 c 0,0.35 -0.13,0.791 0.681,0.791 l 0.973,0 0,1.236 -1.603,0 c -0.865,0.018 -1.509,-0.131 -1.509,-1.678 l 0,-7.336 -1.417,0 0,-1.234 1.418,0 0,-2.783 1.436,0 0,2.784 z"
       id="path87"
       inkscape:connector-curvature="0"
       style="fill:#005581" /><path
       d="m 41.841,154.933 -1.454,0 0,-13.824 1.454,0 0,4.699 0.042,0 c 0.662,-0.883 1.417,-1.4 2.521,-1.4 1.53,0 2.526,0.811 2.526,2.617 l 0,7.908 -1.459,0 0,-7.502 c 0,-1.068 -0.351,-1.791 -1.527,-1.791 -0.539,0 -1.047,0.207 -1.437,0.574 -0.593,0.535 -0.667,1.125 -0.667,1.861 l 0,6.858 z"
       id="path89"
       inkscape:connector-curvature="0"
       style="fill:#005581" /><path
       d="m 58.432,151.521 c 0.092,2.01 -0.943,3.688 -3.096,3.688 -1.935,0 -3.318,-1.291 -3.318,-5.42 0,-2.156 0.567,-5.381 3.276,-5.381 3.321,0 3.138,3.135 3.207,5.527 l -4.975,0 c 0.037,1.383 -0.201,4.039 1.847,4.039 1.397,0 1.78,-1.291 1.692,-2.453 l 1.367,0 z m -1.437,-2.783 c -0.058,-1.195 0.017,-3.098 -1.679,-3.098 -1.696,0 -1.732,1.885 -1.789,3.098 l 3.468,0 z"
       id="path91"
       inkscape:connector-curvature="0"
       style="fill:#005581" /><path
       d="m 65.228,154.933 -1.449,0 0,-10.248 1.398,0 0,1.309 0.037,0 c 0.474,-0.865 1.36,-1.586 2.43,-1.586 1.09,0 1.97,0.646 2.434,1.625 0.722,-1.053 1.458,-1.625 2.75,-1.625 0.695,0 1.341,0.242 1.878,0.721 0.659,0.607 0.622,1.75 0.622,2.396 l 0,7.408 -1.455,0 0,-7.502 c 0,-1.145 -0.313,-1.791 -1.563,-1.791 -0.498,0.023 -1.001,0.225 -1.366,0.574 -0.589,0.535 -0.662,1.125 -0.662,1.861 l 0,6.857 -1.455,0 0,-7.502 c 0,-1.068 -0.35,-1.791 -1.531,-1.791 -0.536,0 -1.049,0.207 -1.437,0.574 -0.589,0.535 -0.63,1.125 -0.63,1.861 l 0,6.859 z"
       id="path93"
       inkscape:connector-curvature="0"
       style="fill:#005581" /><path
       d="m 87.365,154.933 c -0.111,0.018 -0.222,0.035 -0.331,0.07 -1.238,0.059 -1.699,-0.053 -1.846,-1.451 l -0.04,0 c -0.344,0.898 -1.285,1.656 -2.26,1.656 -2.048,0 -2.634,-1.143 -2.634,-3.004 0,-0.387 0.052,-1.861 1.474,-2.486 0.828,-0.369 2.89,-1.145 3.076,-1.293 0.31,-0.238 0.272,-0.645 0.272,-1.18 0,-1.16 -0.436,-1.605 -1.619,-1.605 -1.324,0 -1.514,0.607 -1.492,1.811 l -1.307,0 c -0.076,-2.119 0.977,-3.043 3.038,-3.043 3.044,0 2.783,2.547 2.783,2.785 l 0,5.877 c 0,0.258 -0.036,0.627 0.261,0.775 0.199,0.055 0.421,0.035 0.624,0.018 l 0,1.07 z m -2.399,-5.531 c -0.714,0.424 -1.527,0.738 -2.301,1.109 -0.685,0.311 -0.901,1.066 -0.901,1.768 0,1.031 0.254,1.695 1.436,1.695 0.554,0 1.767,-0.422 1.767,-2.082 l 0,-2.49 z"
       id="path95"
       inkscape:connector-curvature="0"
       style="fill:#005581" /><path
       d="m 93.855,144.685 1.716,0 0,1.234 -1.701,0 0,6.986 c 0,0.35 -0.129,0.791 0.682,0.791 l 0.977,0 0,1.236 -1.603,0 c -0.864,0.018 -1.509,-0.131 -1.509,-1.678 l 0,-7.336 -1.418,0 0,-1.234 1.418,0 0,-2.783 1.438,0 0,2.784 z"
       id="path97"
       inkscape:connector-curvature="0"
       style="fill:#005581" /><path
       d="m 100.247,142.953 0,-1.844 1.459,0 0,1.844 -1.459,0 z m 0,11.98 0,-10.248 1.459,0 0,10.248 -1.459,0 z"
       id="path99"
       inkscape:connector-curvature="0"
       style="fill:#005581" /><path
       d="m 108.299,150.251 c 0,1.344 0.092,3.723 1.955,3.723 1.583,0 1.734,-1.365 1.809,-2.619 l 1.38,0 c -0.055,1.973 -0.795,3.854 -3.075,3.854 -3.132,0 -3.578,-2.617 -3.578,-5.273 0,-2.504 0.402,-5.527 3.539,-5.527 2.064,0 3.06,1.605 3.04,3.504 l -1.361,0 c -0.019,-1.125 -0.317,-2.271 -1.697,-2.271 -2.119,-0.002 -2.012,3.152 -2.012,4.609 z"
       id="path101"
       inkscape:connector-curvature="0"
       style="fill:#005581" /><path
       d="m 122.714,147.431 c 0.056,-1.217 -0.39,-1.791 -1.623,-1.791 -1.032,0 -1.62,0.482 -1.62,1.553 0,1.328 1.087,1.49 2.08,1.916 1.477,0.664 2.948,1.031 2.948,2.949 0,1.951 -1.36,3.17 -3.46,3.15 -0.91,0.02 -2.011,-0.295 -2.55,-1.066 -0.606,-0.814 -0.569,-1.496 -0.569,-2.197 l 1.384,0 c -0.054,1.256 0.369,2.029 1.735,2.029 1.177,0 1.947,-0.48 1.947,-1.732 0,-1.459 -1.473,-1.586 -2.523,-2.029 -1.586,-0.588 -2.509,-1.123 -2.509,-2.91 0,-1.77 1.237,-2.895 3.011,-2.895 2.021,0 3.203,0.924 3.166,3.023 l -1.417,0 z"
       id="path103"
       inkscape:connector-curvature="0"
       style="fill:#005581" /><path
       d="m 138.911,150.841 c -1.526,0 -2.784,-1.289 -2.784,-2.818 0,-1.549 1.258,-2.842 2.784,-2.842 1.547,0 2.803,1.293 2.803,2.842 -0.001,1.529 -1.256,2.818 -2.803,2.818 z"
       id="path105"
       inkscape:connector-curvature="0"
       style="fill:#005581" /><path
       d="m 162.782,141.109 2.687,0 0,13.824 -1.527,0 0,-11.391 c 0,-0.59 0.032,-1.16 0,-1.75 l -0.036,0 c -0.167,0.811 -0.3,1.326 -0.425,1.863 l -2.892,11.277 -1.824,0 -2.899,-11.445 c -0.123,-0.48 -0.234,-0.941 -0.399,-1.695 l -0.037,0 c 0,0.59 0.037,1.197 0.037,1.787 l 0,11.354 -1.537,0 0,-13.824 2.711,0 2.715,10.783 c 0.143,0.59 0.221,1.16 0.294,2.047 l 0.037,0 c 0.092,-0.701 0.179,-1.385 0.35,-2.068 l 2.745,-10.762 z"
       id="path107"
       inkscape:connector-curvature="0"
       style="fill:#005581" /><path
       d="m 174.445,155.208 c -2.213,0 -3.663,-1.328 -3.663,-5.75 0,-3.096 1.142,-5.051 3.663,-5.051 2.525,0 3.671,1.955 3.671,5.051 0,4.442 -1.418,5.75 -3.671,5.75 z m 0,-9.568 c -1.489,0 -2.156,1.182 -2.156,4.279 0,2.412 0.46,4.055 2.156,4.055 1.734,0 2.157,-1.643 2.157,-4.055 0,-3.097 -0.63,-4.279 -2.157,-4.279 z"
       id="path109"
       inkscape:connector-curvature="0"
       style="fill:#005581" /><path
       d="m 188.376,141.109 1.458,0 0,13.824 -1.4,0 0,-1.346 -0.034,0 c -0.63,1.215 -1.257,1.621 -2.49,1.621 -3.224,0 -2.971,-4.516 -3.003,-5.42 -0.113,-3.002 0.883,-5.381 3.076,-5.381 1.048,0 1.676,0.443 2.357,1.328 l 0.036,0 0,-4.626 z m 0,8.533 c 0,-1.4 -0.036,-4.002 -1.99,-4.002 -1.217,0 -2.004,0.961 -2.004,4.111 0,2.211 0.07,4.223 2.062,4.223 1.506,0 1.933,-1.898 1.933,-3.061 l 0,-1.271 z"
       id="path111"
       inkscape:connector-curvature="0"
       style="fill:#005581" /><path
       d="m 201.411,151.521 c 0.089,2.01 -0.941,3.688 -3.097,3.688 -1.935,0 -3.321,-1.291 -3.321,-5.42 0,-2.156 0.572,-5.381 3.282,-5.381 3.317,0 3.136,3.135 3.21,5.527 l -4.977,0 c 0.031,1.383 -0.207,4.039 1.841,4.039 1.401,0 1.788,-1.291 1.692,-2.453 l 1.37,0 z m -1.444,-2.783 c -0.051,-1.195 0.023,-3.098 -1.67,-3.098 -1.698,0 -1.738,1.885 -1.789,3.098 l 3.459,0 z"
       id="path113"
       inkscape:connector-curvature="0"
       style="fill:#005581" /><path
       d="m 206.679,154.933 0,-13.824 1.459,0 0,13.824 -1.459,0 z"
       id="path115"
       inkscape:connector-curvature="0"
       style="fill:#005581" /><path
       d="m 213.74,142.953 0,-1.844 1.455,0 0,1.844 -1.455,0 z m 0,11.98 0,-10.248 1.455,0 0,10.248 -1.455,0 z"
       id="path117"
       inkscape:connector-curvature="0"
       style="fill:#005581" /><path
       d="m 222.234,145.808 0.037,0 c 0.701,-0.883 1.457,-1.4 2.566,-1.4 1.527,0 2.521,0.811 2.521,2.617 l 0,7.908 -1.455,0 0,-7.502 c 0,-1.068 -0.352,-1.791 -1.527,-1.791 -0.537,0 -1.055,0.207 -1.441,0.574 -0.588,0.535 -0.664,1.125 -0.664,1.861 l 0,6.857 -1.451,0 0,-10.248 1.414,0 0,1.124 z"
       id="path119"
       inkscape:connector-curvature="0"
       style="fill:#005581" /><path
       d="m 238.044,144.685 1.461,0 0,9.012 c 0,1.254 -0.096,2.213 -0.777,3.299 -0.645,1.012 -1.697,1.42 -2.816,1.42 -1.643,0 -2.855,-0.756 -3.063,-2.506 l 1.42,0 c 0.129,0.92 0.719,1.271 1.605,1.271 2.355,0 2.121,-2.324 2.135,-3.447 l -0.037,0 c -0.605,1.051 -1.273,1.475 -2.211,1.475 -1.938,0 -3.277,-1.346 -3.277,-5.475 0,-2.156 0.535,-5.326 3.242,-5.326 0.938,0 1.789,0.461 2.283,1.439 l 0.035,0 0,-1.162 z m -4.054,5.125 c 0,2.504 0.426,4.164 1.863,4.164 2.213,0 2.191,-2.748 2.191,-4.387 0,-2.027 -0.42,-3.947 -2.045,-3.947 -1.931,0 -2.009,2.785 -2.009,4.17 z"
       id="path121"
       inkscape:connector-curvature="0"
       style="fill:#005581" /><path
       d="m 254.468,150.841 c -1.531,0 -2.781,-1.289 -2.781,-2.818 0,-1.549 1.25,-2.842 2.781,-2.842 1.551,0 2.799,1.293 2.799,2.842 0,1.529 -1.248,2.818 -2.799,2.818 z"
       id="path123"
       inkscape:connector-curvature="0"
       style="fill:#005581" /><path
       d="m 275.458,144.742 c 0.113,-1.438 -0.658,-2.525 -2.189,-2.525 -2.234,0 -2.475,1.4 -2.475,2.469 0,0.955 0.428,1.547 1.311,1.879 0.736,0.275 1.455,0.553 2.193,0.83 2.619,0.979 3.098,1.898 3.098,3.725 0,2.615 -1.643,4.146 -4.297,4.146 -1.363,0 -2.986,-0.387 -3.777,-2.195 -0.293,-0.682 -0.277,-1.789 -0.293,-2.523 l 1.529,0 c -0.076,2.045 0.316,3.334 2.617,3.334 1.553,0 2.637,-0.791 2.637,-2.412 0,-2.104 -0.846,-2.119 -2.252,-2.654 -0.754,-0.293 -1.971,-0.684 -2.707,-1.072 -1.311,-0.66 -1.639,-1.766 -1.639,-3.131 0,-2.285 1.602,-3.775 3.848,-3.775 2.525,0 4.072,1.307 3.926,3.906 l -1.53,0 z"
       id="path125"
       inkscape:connector-curvature="0"
       style="fill:#005581" /><path
       d="m 282.628,142.953 0,-1.844 1.457,0 0,1.844 -1.457,0 z m 0,11.98 0,-10.248 1.457,0 0,10.248 -1.457,0 z"
       id="path127"
       inkscape:connector-curvature="0"
       style="fill:#005581" /><path
       d="m 291.218,154.933 -1.457,0 0,-10.248 1.4,0 0,1.309 0.041,0 c 0.475,-0.865 1.361,-1.586 2.426,-1.586 1.092,0 1.975,0.646 2.439,1.625 0.717,-1.053 1.453,-1.625 2.742,-1.625 0.699,0 1.348,0.242 1.881,0.721 0.664,0.607 0.627,1.75 0.627,2.396 l 0,7.408 -1.455,0 0,-7.502 c 0,-1.145 -0.313,-1.791 -1.568,-1.791 -0.502,0.023 -0.994,0.225 -1.359,0.574 -0.594,0.535 -0.668,1.125 -0.668,1.861 l 0,6.857 -1.455,0 0,-7.502 c 0,-1.068 -0.35,-1.791 -1.529,-1.791 -0.537,0 -1.049,0.207 -1.439,0.574 -0.588,0.535 -0.625,1.125 -0.625,1.861 l 0,6.859 z"
       id="path129"
       inkscape:connector-curvature="0"
       style="fill:#005581" /><path
       d="m 312.025,153.587 -0.037,0 c -0.498,1.051 -1.438,1.621 -2.434,1.621 -1.529,0 -2.471,-0.813 -2.471,-2.617 l 0,-7.906 1.457,0 0,7.961 c 0,0.867 0.281,1.328 1.313,1.328 0.697,0 1.342,-0.314 1.746,-0.904 0.334,-0.516 0.426,-1.215 0.426,-1.807 l 0,-6.578 1.457,0 0,10.248 -1.457,0 0,-1.346 z"
       id="path131"
       inkscape:connector-curvature="0"
       style="fill:#005581" /><path
       d="m 319.175,154.933 0,-13.824 1.457,0 0,13.824 -1.457,0 z"
       id="path133"
       inkscape:connector-curvature="0"
       style="fill:#005581" /><path
       d="m 332.593,154.933 c -0.111,0.018 -0.221,0.035 -0.33,0.07 -1.238,0.059 -1.701,-0.053 -1.844,-1.451 l -0.037,0 c -0.35,0.898 -1.293,1.656 -2.268,1.656 -2.043,0 -2.633,-1.143 -2.633,-3.004 0,-0.387 0.055,-1.861 1.473,-2.486 0.828,-0.369 2.895,-1.145 3.078,-1.293 0.313,-0.238 0.277,-0.645 0.277,-1.18 0,-1.16 -0.443,-1.605 -1.625,-1.605 -1.33,0 -1.506,0.607 -1.49,1.811 l -1.313,0 c -0.074,-2.119 0.98,-3.043 3.041,-3.043 3.045,0 2.785,2.547 2.785,2.785 l 0,5.877 c 0,0.258 -0.037,0.627 0.26,0.775 0.201,0.055 0.42,0.035 0.625,0.018 l 0,1.07 z m -2.394,-5.531 c -0.719,0.424 -1.529,0.738 -2.307,1.109 -0.68,0.311 -0.9,1.066 -0.9,1.768 0,1.031 0.258,1.695 1.436,1.695 0.557,0 1.771,-0.422 1.771,-2.082 l 0,-2.49 z"
       id="path135"
       inkscape:connector-curvature="0"
       style="fill:#005581" /><path
       d="m 339.082,144.685 1.717,0 0,1.234 -1.701,0 0,6.986 c 0,0.35 -0.129,0.791 0.684,0.791 l 0.977,0 0,1.236 -1.602,0 c -0.869,0.018 -1.514,-0.131 -1.514,-1.678 l 0,-7.336 -1.418,0 0,-1.234 1.418,0 0,-2.783 1.439,0 0,2.784 z"
       id="path137"
       inkscape:connector-curvature="0"
       style="fill:#005581" /><path
       d="m 345.47,142.953 0,-1.844 1.459,0 0,1.844 -1.459,0 z m 0,11.98 0,-10.248 1.459,0 0,10.248 -1.459,0 z"
       id="path139"
       inkscape:connector-curvature="0"
       style="fill:#005581" /><path
       d="m 355.814,155.208 c -2.211,0 -3.664,-1.328 -3.664,-5.75 0,-3.096 1.143,-5.051 3.664,-5.051 2.525,0 3.672,1.955 3.672,5.051 0,4.442 -1.424,5.75 -3.672,5.75 z m 0,-9.568 c -1.492,0 -2.16,1.182 -2.16,4.279 0,2.412 0.461,4.055 2.16,4.055 1.729,0 2.156,-1.643 2.156,-4.055 0,-3.097 -0.625,-4.279 -2.156,-4.279 z"
       id="path141"
       inkscape:connector-curvature="0"
       style="fill:#005581" /><path
       d="m 366.156,145.808 0.033,0 c 0.703,-0.883 1.453,-1.4 2.561,-1.4 1.529,0 2.527,0.811 2.527,2.617 l 0,7.908 -1.457,0 0,-7.502 c 0,-1.068 -0.346,-1.791 -1.527,-1.791 -0.535,0 -1.051,0.207 -1.438,0.574 -0.594,0.535 -0.666,1.125 -0.666,1.861 l 0,6.857 -1.453,0 0,-10.248 1.42,0 0,1.124 z"
       id="path143"
       inkscape:connector-curvature="0"
       style="fill:#005581" /></g><g
     id="g145"
     transform="matrix(0.3,0,0,0.3,0,-1.7615589e-4)"><linearGradient
       id="SVGID_7_"
       gradientUnits="userSpaceOnUse"
       x1="82.772903"
       y1="62.4063"
       x2="82.772903"
       y2="119.9413"><stop
         offset="0"
         style="stop-color:#FFFFFF"
         id="stop148" /><stop
         offset="1"
         style="stop-color:#005581"
         id="stop150" /></linearGradient><path
       d="m 62.978,104.007 0,4.445 c 0,5.268 1.248,8.713 3.711,10.219 2.531,1.555 5.35,2.344 8.383,2.344 2.297,0 4.295,-0.463 5.941,-1.379 1.656,-0.918 3.02,-2.324 4.064,-4.17 l 1.025,0.225 0,4.334 16.465,0 0,-26.637 c 0,-0.674 -0.008,-1.303 -0.012,-1.941 -11.668,0.541 -22.688,1.139 -32.898,1.746 -2.326,1.051 -3.914,2.008 -4.717,2.854 -1.302,1.37 -1.962,4.046 -1.962,7.96 z m 16.494,-4.519 c 0.506,-1.424 2.213,-3.092 5.223,-5.113 l 0.867,-0.584 0,12.146 c 0,3.768 -0.328,4.813 -0.564,5.268 -0.443,0.824 -1.352,1.242 -2.705,1.242 -1.77,0 -2.547,-0.826 -2.887,-1.52 -0.428,-0.895 -0.645,-2.734 -0.645,-5.641 0,-2.531 0.229,-4.425 0.711,-5.798 z"
       id="path152"
       style="fill:url(#SVGID_7_)"
       inkscape:connector-curvature="0" /><linearGradient
       id="SVGID_8_"
       gradientUnits="userSpaceOnUse"
       x1="129.15089"
       y1="62.404301"
       x2="129.15089"
       y2="119.9403"><stop
         offset="0"
         style="stop-color:#FFFFFF"
         id="stop155" /><stop
         offset="1"
         style="stop-color:#005581"
         id="stop157" /></linearGradient><path
       d="m 125.951,127.722 0,-13.369 0.98,1.168 c 1.518,1.822 3.215,3.209 5.031,4.125 1.811,0.906 3.801,1.369 5.922,1.369 2.66,0 4.959,-0.592 6.836,-1.766 1.85,-1.162 3.094,-2.738 3.693,-4.697 0.621,-2.025 0.938,-5.506 0.938,-10.352 l 0,-14.5 c -5.764,0.158 -11.43,0.338 -17.002,0.533 l 0,15.15 c 0,2.963 -0.148,4.795 -0.451,5.607 -0.242,0.664 -0.902,1.455 -2.621,1.455 -1.74,0 -2.467,-0.842 -2.771,-1.541 -0.367,-0.879 -0.555,-2.936 -0.555,-6.291 l 0,-14.151 c -5.787,0.215 -11.467,0.445 -17,0.691 l 0,36.568 17,0 z"
       id="path159"
       style="fill:url(#SVGID_8_)"
       inkscape:connector-curvature="0" /><linearGradient
       id="SVGID_9_"
       gradientUnits="userSpaceOnUse"
       x1="163.7993"
       y1="62.4053"
       x2="163.7993"
       y2="119.9424"><stop
         offset="0"
         style="stop-color:#FFFFFF"
         id="stop162" /><stop
         offset="1"
         style="stop-color:#005581"
         id="stop164" /></linearGradient><path
       d="m 172.576,120.025 0,-30.846 c -5.928,0.104 -11.779,0.229 -17.553,0.375 l 0,30.471 17.553,0 z"
       id="path166"
       style="fill:url(#SVGID_9_)"
       inkscape:connector-curvature="0" /><linearGradient
       id="SVGID_10_"
       gradientUnits="userSpaceOnUse"
       x1="198.2905"
       y1="62.403801"
       x2="198.2905"
       y2="119.9414"><stop
         offset="0"
         style="stop-color:#FFFFFF"
         id="stop169" /><stop
         offset="1"
         style="stop-color:#005581"
         id="stop171" /></linearGradient><path
       d="m 179.07,109.955 c 0.6,2.029 1.699,3.912 3.262,5.596 1.547,1.68 3.762,3.02 6.58,3.994 2.838,0.979 6.164,1.471 9.885,1.471 3.838,0 7.057,-0.498 9.586,-1.486 2.501,-0.986 4.593,-2.475 6.224,-4.438 1.639,-1.979 2.693,-3.852 3.135,-5.574 0.453,-1.758 0.684,-4.32 0.684,-7.598 l 0,-3.508 -16.058,0 0,6.658 c 0,2.801 -0.236,4.646 -0.727,5.672 -0.361,0.771 -1.229,1.705 -3.186,1.705 -1.621,0 -2.352,-0.729 -2.672,-1.34 -0.42,-0.783 -0.627,-2.402 -0.627,-4.955 l 0,-12.215 23.269,0 0,-5.061 c -13.667,-0.063 -27.13,0.018 -40.269,0.213 l 0,11.807 c 0,3.969 0.302,7.012 0.914,9.059 z"
       id="path173"
       style="fill:url(#SVGID_10_)"
       inkscape:connector-curvature="0" /><linearGradient
       id="SVGID_11_"
       gradientUnits="userSpaceOnUse"
       x1="48.944302"
       y1="62.403801"
       x2="48.944302"
       y2="119.942"><stop
         offset="0"
         style="stop-color:#FFFFFF"
         id="stop176" /><stop
         offset="1"
         style="stop-color:#005581"
         id="stop178" /></linearGradient><path
       d="m 57.044,120.052 0,-26.074 c -5.729,0.373 -11.133,0.74 -16.2,1.105 l 0.034,24.969 16.166,0 z"
       id="path180"
       style="fill:url(#SVGID_11_)"
       inkscape:connector-curvature="0" /><linearGradient
       id="SVGID_12_"
       gradientUnits="userSpaceOnUse"
       x1="8.0966997"
       y1="62.403301"
       x2="8.0966997"
       y2="119.9426"><stop
         offset="0"
         style="stop-color:#FFFFFF"
         id="stop183" /><stop
         offset="1"
         style="stop-color:#005581"
         id="stop185" /></linearGradient><path
       d="M 16.169,120.052 16.193,96.974 C 9.2,97.554 3.723,98.044 0,98.388 l 0,21.664 16.169,0 z"
       id="path187"
       style="fill:url(#SVGID_12_)"
       inkscape:connector-curvature="0" /><linearGradient
       id="SVGID_13_"
       gradientUnits="userSpaceOnUse"
       x1="28.6602"
       y1="62.403801"
       x2="28.6602"
       y2="119.9421"><stop
         offset="0"
         style="stop-color:#FFFFFF"
         id="stop190" /><stop
         offset="1"
         style="stop-color:#005581"
         id="stop192" /></linearGradient><path
       d="m 34.37,120.052 3.644,-24.768 c -6.979,0.508 -13.243,0.994 -18.707,1.436 l 3.676,23.332 11.387,0 z"
       id="path194"
       style="fill:url(#SVGID_13_)"
       inkscape:connector-curvature="0" /></g><g
     id="g196"
     transform="matrix(0.3,0,0,0.3,0,-1.7615589e-4)"><path
       d="m 288.669,117.445 c 12.91,0 16.951,-11.485 16.951,-23.75 0,-0.002 0,-0.004 0,-0.007 -11.316,-0.876 -22.626,-1.595 -33.878,-2.178 -0.03,0.724 -0.046,1.452 -0.046,2.185 10e-4,12.264 4.054,23.75 16.973,23.75 z"
       id="path198"
       inkscape:connector-curvature="0"
       style="fill:none" /><g
       id="g200"><g
         id="g202"><g
           id="g204"><linearGradient
             id="SVGID_14_"
             gradientUnits="userSpaceOnUse"
             x1="247.5806"
             y1="23.6147"
             x2="247.5806"
             y2="100.8299"
             gradientTransform="translate(-6,16)"><stop
               offset="0"
               style="stop-color:#FFFFFF"
               id="stop207" /><stop
               offset="1"
               style="stop-color:#000000"
               id="stop209" /></linearGradient><path
             d="m 246.757,90.431 c -6.655,-0.23 -13.623,-1.19 -20.197,-1.336 5.19,10.442 24.488,6.496 24.488,17.954 0,6.459 -5.148,9.852 -10.611,9.852 -6.137,0 -10.842,-4.594 -12.379,-7.548 l -1.311,0 c 0,2.185 -1.203,6.129 -2.078,7.979 3.068,1.758 7.445,3.621 14.119,3.621 12.148,0 19.703,-8.979 19.703,-17.294 0.001,-8.681 -5.692,-11.359 -11.734,-13.228 z"
             id="path211"
             style="fill:url(#SVGID_14_)"
             inkscape:connector-curvature="0" /></g></g></g><g
       id="g213"><g
         id="g215"><g
           id="g217"><linearGradient
             id="SVGID_15_"
             gradientUnits="userSpaceOnUse"
             x1="294.6597"
             y1="25.5952"
             x2="294.6597"
             y2="100.93"
             gradientTransform="translate(-6,16)"><stop
               offset="0"
               style="stop-color:#FFFFFF"
               id="stop220" /><stop
               offset="1"
               style="stop-color:#000000"
               id="stop222" /></linearGradient><path
             d="m 305.621,93.688 c 0,0.003 0,0.005 0,0.007 0,12.265 -4.041,23.75 -16.951,23.75 -12.92,0 -16.973,-11.485 -16.973,-23.75 0,-0.732 0.016,-1.461 0.046,-2.185 -3.198,-0.165 -6.391,-0.319 -9.577,-0.464 -0.057,0.859 -0.096,1.736 -0.096,2.648 0,19.929 13.898,27.259 26.6,27.259 12.526,0 26.218,-7.146 26.579,-26.481 -3.209,-0.273 -6.419,-0.535 -9.628,-0.784 z"
             id="path224"
             style="fill:url(#SVGID_15_)"
             inkscape:connector-curvature="0" /></g></g></g><g
       id="g226"><g
         id="g228"><g
           id="g230"><linearGradient
             id="SVGID_16_"
             gradientUnits="userSpaceOnUse"
             x1="333.29349"
             y1="25.596701"
             x2="333.29349"
             y2="100.9301"
             gradientTransform="translate(-6,16)"><stop
               offset="0"
               style="stop-color:#FFFFFF"
               id="stop233" /><stop
               offset="1"
               style="stop-color:#000000"
               id="stop235" /></linearGradient><path
             d="m 331.667,95.992 c -2.754,-0.275 -5.509,-0.541 -8.266,-0.795 -0.118,8.172 -0.358,16.355 -0.86,24.655 1.635,-0.328 3.277,-0.547 4.805,-0.547 1.543,0 3.18,0.219 4.701,0.547 -0.217,-8.017 -0.326,-15.952 -0.38,-23.86 z"
             id="path237"
             style="fill:url(#SVGID_16_)"
             inkscape:connector-curvature="0" /></g></g></g><g
       id="g239"><g
         id="g241"><g
           id="g243"><linearGradient
             id="SVGID_17_"
             gradientUnits="userSpaceOnUse"
             x1="371.8735"
             y1="25.596701"
             x2="371.8735"
             y2="100.9302"
             gradientTransform="translate(-6,16)"><stop
               offset="0"
               style="stop-color:#FFFFFF"
               id="stop246" /><stop
               offset="1"
               style="stop-color:#000000"
               id="stop248" /></linearGradient><path
             d="m 371.888,117.445 c -8.648,0 -8.861,-8.313 -8.861,-16.519 0,-0.431 0.002,-0.882 0.004,-1.343 -2.641,-0.344 -5.284,-0.678 -7.934,-1.001 -0.099,3.205 -0.17,6.051 -0.17,8.686 0,8.541 4.371,13.686 13.455,13.686 2.74,0 5.908,-0.771 8.438,-1.648 l 0,-2.623 c -1.422,0.441 -3.731,0.762 -4.932,0.762 z"
             id="path250"
             style="fill:url(#SVGID_17_)"
             inkscape:connector-curvature="0" /></g></g></g></g></svg>