<?xml version="1.0" encoding="UTF-8" standalone="no"?>
<svg
   xmlns:dc="http://purl.org/dc/elements/1.1/"
   xmlns:cc="http://creativecommons.org/ns#"
   xmlns:rdf="http://www.w3.org/1999/02/22-rdf-syntax-ns#"
   xmlns:svg="http://www.w3.org/2000/svg"
   xmlns="http://www.w3.org/2000/svg"
   viewBox="0 0 208.75 85"
   height="85"
   width="208.75"
   xml:space="preserve"
   version="1.1"
   id="svg2"><metadata
     id="metadata8"><rdf:RDF><cc:Work
         rdf:about=""><dc:format>image/svg+xml</dc:format><dc:type
           rdf:resource="http://purl.org/dc/dcmitype/StillImage" /><dc:title></dc:title></cc:Work></rdf:RDF></metadata><defs
     id="defs6" /><g
     transform="matrix(1.25,0,0,-1.25,0,85)"
     id="g10"><g
       transform="scale(0.1,0.1)"
       id="g12"><path
         id="path14"
         style="fill:#231f20;fill-opacity:1;fill-rule:nonzero;stroke:none"
         d="m 484.617,111.469 c -3.32,5.863 -7.629,10.359 -12.933,13.488 -5.301,3.125 -11.336,4.703 -18.102,4.734 -6.184,-0.023 -11.957,-1.273 -17.316,-3.75 -5.364,-2.472 -9.711,-6.031 -13.043,-10.675 -3.336,-4.641 -5.051,-10.231 -5.153,-16.7621 0.235,-8.2539 2.883,-14.707 7.953,-19.3633 5.071,-4.6523 11.161,-8.3867 18.274,-11.1992 l 8.324,-3.5234 c 5.418,-2.0313 10.188,-4.7657 14.309,-8.1992 4.117,-3.4375 6.285,-8.3282 6.5,-14.6836 -0.117,-6.5118 -2.203,-12.0118 -6.262,-16.5039 -4.059,-4.4922 -9.387,-6.8321 -15.988,-7.0196 -6.657,0.1211 -12.192,2.2735 -16.602,6.461 -4.414,4.1836 -6.668,9.6562 -6.762,16.4218 l -15.187,-3.1992 c 1.453,-9.8789 5.543,-17.9258 12.273,-24.1367 6.731,-6.21094 15.063,-9.41407 24.996,-9.60938 11.063,0.19531 20.188,3.71875 27.379,10.57028 7.196,6.8516 10.918,15.8555 11.172,27.0157 -0.176,9.914 -3.019,17.6484 -8.531,23.2031 -5.512,5.5547 -12.637,9.9297 -21.375,13.125 l -8.645,3.3594 c -3.992,1.3906 -7.734,3.4492 -11.222,6.1836 -3.496,2.7265 -5.356,6.4296 -5.586,11.0976 0.242,5.3361 2.402,9.5121 6.484,12.5231 4.082,3.016 8.645,4.551 13.688,4.602 4.519,0 8.328,-0.957 11.426,-2.859 3.097,-1.907 5.746,-4.739 7.941,-8.504 l 11.988,7.203" /><path
         id="path16"
         style="fill:#231f20;fill-opacity:1;fill-rule:evenodd;stroke:none"
         d="m 520.738,81.3711 -14.379,0 0,-74.86329 14.379,0 0,74.86329 z m -7.187,44.3169 c -2.793,-0.067 -5.125,-1.047 -6.996,-2.934 -1.871,-1.891 -2.844,-4.266 -2.918,-7.133 0.074,-2.785 1.047,-5.09 2.918,-6.914 1.871,-1.824 4.203,-2.769 6.996,-2.836 2.789,0.067 5.121,1.012 6.988,2.836 1.875,1.824 2.844,4.129 2.918,6.914 -0.074,2.867 -1.043,5.242 -2.918,7.133 -1.867,1.887 -4.199,2.867 -6.988,2.934" /><path
         id="path18"
         style="fill:#231f20;fill-opacity:1;fill-rule:nonzero;stroke:none"
         d="m 557.75,81.3711 -14.383,0 0,-74.86329 14.383,0 0,36.80079 c -0.082,4.0195 0.223,8.125 0.902,12.3281 0.68,4.1992 2.211,7.75 4.598,10.6563 2.391,2.8984 6.105,4.414 11.148,4.5351 4.356,-0.1211 7.512,-1.5273 9.477,-4.2187 1.965,-2.6875 3.191,-5.9219 3.68,-9.6914 0.484,-3.7774 0.691,-7.3516 0.613,-10.7266 l 0,-39.68359 14.379,0 0,36.80079 c -0.078,3.9687 0.207,8.0508 0.863,12.2578 0.653,4.2031 2.16,7.7656 4.524,10.6875 2.363,2.9258 6.062,4.4492 11.105,4.5742 4.156,-0.0898 7.234,-1.2734 9.234,-3.5468 2,-2.2735 3.301,-5.0821 3.895,-8.4219 0.598,-3.3399 0.863,-6.6563 0.801,-9.9492 l 0,-42.40239 14.379,0 0,44.80079 c 0.058,5.7383 -0.625,11.043 -2.051,15.9141 -1.43,4.8711 -3.949,8.7968 -7.563,11.7812 -3.617,2.9844 -8.671,4.5195 -15.171,4.6055 -4.805,-0.0508 -9.247,-1.2656 -13.329,-3.6328 -4.082,-2.3711 -7.324,-5.5782 -9.718,-9.625 -2.387,4.1836 -5.368,7.4336 -8.934,9.7422 -3.566,2.3125 -7.785,3.4843 -12.66,3.5156 -4.141,-0.0781 -7.949,-1.1992 -11.426,-3.375 -3.48,-2.1719 -6.289,-4.9336 -8.426,-8.2852 l -0.32,0 0,9.4219" /><path
         id="path20"
         style="fill:#231f20;fill-opacity:1;fill-rule:nonzero;stroke:none"
         d="m 666.074,81.3711 0,-43.043 c -0.062,-10.3906 2.457,-18.6797 7.551,-24.8672 5.098,-6.19137 13.137,-9.35934 24.117,-9.51168 10.981,0.15234 19.02,3.32031 24.117,9.51168 5.098,6.1875 7.614,14.4766 7.555,24.8672 l 0,43.043 -14.383,0 0,-41.4414 c 0.172,-6.1914 -0.929,-11.4492 -3.301,-15.7813 -2.371,-4.3281 -7.035,-6.5898 -13.988,-6.7773 -6.953,0.1875 -11.617,2.4492 -13.988,6.7773 -2.371,4.3321 -3.473,9.5899 -3.301,15.7813 l 0,41.4414 -14.379,0" /><path
         id="path22"
         style="fill:#231f20;fill-opacity:1;fill-rule:nonzero;stroke:none"
         d="m 749.129,6.50781 14.3828,0 0,138.863 -14.3828,0 0,-138.863 z" /><path
         id="path24"
         style="fill:#231f20;fill-opacity:1;fill-rule:evenodd;stroke:none"
         d="m 816.355,16.7305 c -7.64,0.2539 -13.488,3.0273 -17.546,8.3242 -4.059,5.293 -6.11,11.5898 -6.145,18.8867 0.055,7.2109 2.145,13.4336 6.262,18.6641 4.121,5.2343 9.929,7.9726 17.429,8.2226 7.805,-0.207 13.801,-2.8711 17.985,-7.9804 4.187,-5.1133 6.301,-11.4141 6.344,-18.9063 -0.036,-7.5781 -2.129,-13.9531 -6.282,-19.1289 -4.156,-5.1758 -10.172,-7.8711 -18.047,-8.082 z m 37.911,64.6406 -14.379,0 0,-12.4609 -0.321,0 c -2.984,4.5273 -6.664,8.0937 -11.046,10.707 -4.383,2.6094 -9.344,3.9414 -14.887,3.9922 -7.289,-0.1055 -13.57,-1.9727 -18.84,-5.6094 -5.27,-3.6328 -9.332,-8.4062 -12.18,-14.3125 -2.851,-5.9102 -4.297,-12.3359 -4.328,-19.2695 0.02,-7.25 1.418,-13.9258 4.203,-20.0235 2.782,-6.0976 6.836,-11.0039 12.164,-14.71872 5.328,-3.71484 11.813,-5.625 19.461,-5.72656 5.391,0.0625 10.254,1.375 14.586,3.93359 4.332,2.56249 7.953,5.98829 10.867,10.28519 l 0.321,0 0,-11.66019 14.379,0 0,74.86329" /><path
         id="path26"
         style="fill:#231f20;fill-opacity:1;fill-rule:nonzero;stroke:none"
         d="m 889.391,67.9492 14.082,0 0,13.4219 -14.082,0 0,28.6369 -14.379,0 0,-28.6369 -7.84,0 0,-13.4219 7.84,0 0,-61.44139 14.379,0 0,61.44139" /><path
         id="path28"
         style="fill:#231f20;fill-opacity:1;fill-rule:evenodd;stroke:none"
         d="m 928.832,81.3711 -14.379,0 0,-74.86329 14.379,0 0,74.86329 z m -7.191,44.3169 c -2.789,-0.067 -5.121,-1.047 -6.993,-2.934 -1.871,-1.891 -2.843,-4.266 -2.918,-7.133 0.075,-2.785 1.047,-5.09 2.918,-6.914 1.872,-1.824 4.204,-2.769 6.993,-2.836 2.793,0.067 5.121,1.012 6.996,2.836 1.871,1.824 2.843,4.129 2.914,6.914 -0.071,2.867 -1.043,5.242 -2.914,7.133 -1.875,1.887 -4.203,2.867 -6.996,2.934" /><path
         id="path30"
         style="fill:#231f20;fill-opacity:1;fill-rule:evenodd;stroke:none"
         d="m 985.215,83.6094 c -11.473,-0.2461 -20.938,-4.0664 -28.402,-11.4531 -7.461,-7.3829 -11.325,-16.8438 -11.59,-28.375 0.265,-11.5352 4.129,-20.9961 11.59,-28.379 7.464,-7.38667 16.929,-11.20308 28.402,-11.45308 11.469,0.25 20.935,4.06641 28.395,11.45308 7.46,7.3829 11.33,16.8438 11.59,28.379 -0.26,11.5312 -4.13,20.9921 -11.59,28.375 -7.46,7.3867 -16.926,11.207 -28.395,11.4531 z m 0,-13.7383 c 7.297,-0.1992 13.344,-2.7656 18.145,-7.7031 4.8,-4.9414 7.28,-11.0703 7.46,-18.3867 -0.18,-7.25 -2.66,-13.3594 -7.46,-18.3282 -4.801,-4.9687 -10.848,-7.5586 -18.145,-7.7617 -7.301,0.2031 -13.352,2.793 -18.149,7.7617 -4.8,4.9688 -7.289,11.0782 -7.464,18.3282 0.175,7.3164 2.664,13.4453 7.464,18.3867 4.797,4.9375 10.848,7.5039 18.149,7.7031" /><path
         id="path32"
         style="fill:#231f20;fill-opacity:1;fill-rule:nonzero;stroke:none"
         d="m 1052.84,81.3711 -14.38,0 0,-74.86329 14.38,0 0,34.40239 c -0.12,4.6523 0.11,9.25 0.69,13.8007 0.57,4.5508 2.18,8.3438 4.81,11.3829 2.64,3.039 7,4.6171 13.07,4.7343 7.13,-0.0898 11.72,-2.0664 13.77,-5.9179 2.05,-3.8516 2.95,-9.0274 2.72,-15.5196 l 0,-42.88279 14.38,0 0,44.64059 c 0.21,9.3321 -1.57,17.0235 -5.36,23.0704 -3.78,6.0468 -10.84,9.1796 -21.19,9.3906 -4.65,-0.0117 -8.99,-1.0664 -13.03,-3.1563 -4.03,-2.0898 -7.21,-5.1367 -9.54,-9.1445 l -0.32,0 0,10.0625" /><path
         id="path34"
         style="fill:#231f20;fill-opacity:1;fill-rule:nonzero;stroke:none"
         d="m 1251.11,67.2891 0,-13.7383 31.2,0 c -0.34,-6.6445 -2.47,-12.6602 -6.37,-18.0508 -3.9,-5.3906 -8.81,-9.6875 -14.73,-12.8906 -5.91,-3.1992 -12.06,-4.8399 -18.43,-4.918 -8.79,0.1406 -16.71,2.5274 -23.75,7.1602 -7.04,4.6328 -12.64,10.6718 -16.78,18.1132 -4.14,7.4415 -6.26,15.4415 -6.36,24.004 0.09,9.121 2.25,17.3632 6.48,24.7226 4.22,7.3594 9.95,13.2146 17.18,17.5706 7.23,4.355 15.4,6.582 24.51,6.687 7.48,-0.078 14.57,-1.879 21.25,-5.402 6.68,-3.52 12.24,-8.281 16.68,-14.2853 l 10.55,10.0863 c -6.05,7.48 -13.38,13.23 -21.97,17.25 -8.6,4.019 -17.65,6.05 -27.15,6.093 -11.7,-0.136 -22.26,-3.027 -31.65,-8.668 -9.39,-5.64 -16.86,-13.21 -22.4,-22.7105 -5.54,-9.5 -8.37,-20.1055 -8.5,-31.8203 0.13,-11.2969 2.9,-21.6563 8.3,-31.0742 5.4,-9.418 12.69,-16.9805 21.84,-22.6836 9.16,-5.70315 19.43,-8.63284 30.81,-8.78518 11.34,0.10937 21.27,2.71484 29.82,7.82028 8.54,5.1016 15.2,12.043 19.99,20.8282 4.79,8.7812 7.22,18.75 7.3,29.8984 l 0,4.793 -47.82,0" /><path
         id="path36"
         style="fill:#231f20;fill-opacity:1;fill-rule:nonzero;stroke:none"
         d="m 1326.17,81.3711 -14.38,0 0,-74.86329 14.38,0 0,36.80079 c -0.08,4.0195 0.22,8.125 0.9,12.3281 0.68,4.1992 2.22,7.75 4.6,10.6563 2.39,2.8984 6.11,4.414 11.15,4.5351 4.35,-0.1211 7.51,-1.5273 9.48,-4.2187 1.96,-2.6875 3.18,-5.9219 3.67,-9.6914 0.49,-3.7774 0.69,-7.3516 0.62,-10.7266 l 0,-39.68359 14.38,0 0,36.80079 c -0.08,3.9687 0.21,8.0508 0.86,12.2578 0.65,4.2031 2.16,7.7656 4.52,10.6875 2.36,2.9258 6.07,4.4492 11.11,4.5742 4.15,-0.0898 7.23,-1.2734 9.23,-3.5468 2.01,-2.2735 3.3,-5.0821 3.9,-8.4219 0.59,-3.3399 0.86,-6.6563 0.8,-9.9492 l 0,-42.40239 14.38,0 0,44.80079 c 0.06,5.7383 -0.63,11.043 -2.06,15.9141 -1.42,4.8711 -3.94,8.7968 -7.56,11.7812 -3.61,2.9844 -8.67,4.5195 -15.17,4.6055 -4.8,-0.0508 -9.24,-1.2656 -13.32,-3.6328 -4.09,-2.3711 -7.33,-5.5782 -9.73,-9.625 -2.38,4.1836 -5.36,7.4336 -8.93,9.7422 -3.57,2.3125 -7.79,3.4843 -12.66,3.5156 -4.14,-0.0781 -7.95,-1.1992 -11.43,-3.375 -3.47,-2.1719 -6.28,-4.9336 -8.42,-8.2852 l -0.32,0 0,9.4219" /><path
         id="path38"
         style="fill:#231f20;fill-opacity:1;fill-rule:evenodd;stroke:none"
         d="m 1471.28,16.7305 c -7.64,0.2539 -13.48,3.0273 -17.54,8.3242 -4.06,5.293 -6.11,11.5898 -6.15,18.8867 0.06,7.2109 2.15,13.4336 6.27,18.6641 4.11,5.2343 9.93,7.9726 17.42,8.2226 7.81,-0.207 13.81,-2.8711 17.99,-7.9804 4.19,-5.1133 6.3,-11.4141 6.34,-18.9063 -0.03,-7.5781 -2.13,-13.9531 -6.28,-19.1289 -4.15,-5.1758 -10.17,-7.8711 -18.05,-8.082 z m -37.27,-10.22269 14.38,0 0,11.66019 0.32,0 c 2.93,-4.2969 6.57,-7.7227 10.93,-10.28519 4.36,-2.55859 9.2,-3.87109 14.52,-3.93359 7.7,0.10156 14.21,2.01172 19.54,5.72656 5.32,3.71482 9.36,8.62112 12.12,14.71872 2.77,6.0977 4.16,12.7735 4.17,20.0235 -0.03,6.9336 -1.47,13.3593 -4.32,19.2695 -2.85,5.9063 -6.89,10.6797 -12.14,14.3125 -5.24,3.6367 -11.49,5.5039 -18.73,5.6094 -5.62,-0.0508 -10.62,-1.3828 -15.02,-3.9922 -4.4,-2.6133 -8.09,-6.1797 -11.07,-10.707 l -0.32,0 0,76.4608 -14.38,0 0,-138.86319" /><path
         id="path40"
         style="fill:#231f20;fill-opacity:1;fill-rule:nonzero;stroke:none"
         d="m 1539.36,78.4883 0,48.6407 -15.02,0 0,-120.62119 15.02,0 0,57.92189 57.46,0 0,-57.92189 15.02,0 0,120.62119 -15.02,0 0,-48.6407 -57.46,0" /><path
         id="path42"
         style="fill:#231f20;fill-opacity:1;fill-rule:nonzero;stroke:none"
         d="M 85.5,71.4453 47.5898,8.26172 l 16.7969,0 29.5938,49.42578 28.4725,-49.42578 16.797,0 -36.629,63.18358 34.711,57.4377 -17.117,0 -26.2345,-44.0002 -24.6367,44.0002 -17.1133,0 L 85.5,71.4453" /><path
         id="path44"
         style="fill:#231f20;fill-opacity:1;fill-rule:evenodd;stroke:none"
         d="m 187.715,60.7383 c 8.836,1.2344 15.844,4.9609 21.015,11.1719 5.172,6.2148 7.817,13.7421 7.934,22.582 -0.031,5.8708 -1.41,11.3748 -4.137,16.5038 -2.726,5.129 -6.621,9.231 -11.683,12.293 -4.864,2.609 -10.031,4.223 -15.508,4.836 -5.481,0.609 -10.93,0.863 -16.352,0.758 l -18.222,0 0,-120.62128 15.023,0 0,51.03908 6.242,0 35.528,-51.03908 18.23,0 -38.07,52.47658 z m -21.93,54.7227 4,0 c 5.094,0.086 10.137,-0.383 15.125,-1.402 4.992,-1.024 9.156,-3.09 12.492,-6.207 3.34,-3.122 5.071,-7.789 5.2,-14.0004 -0.11,-6.3203 -1.739,-11.0743 -4.883,-14.2618 -3.149,-3.1914 -7.149,-5.3125 -12,-6.371 -4.856,-1.0547 -9.899,-1.5391 -15.133,-1.4571 l -4.801,0 0,43.6993" /><path
         id="path46"
         style="fill:#231f20;fill-opacity:1;fill-rule:nonzero;stroke:none"
         d="m 299.75,69.043 0,-13.7422 31.207,0 c -0.344,-6.6406 -2.469,-12.6563 -6.375,-18.0469 -3.902,-5.3906 -8.816,-9.6875 -14.727,-12.8906 -5.917,-3.2031 -12.058,-4.8438 -18.429,-4.9219 -8.789,0.1406 -16.707,2.5274 -23.75,7.1602 -7.043,4.6367 -12.637,10.6718 -16.781,18.1132 -4.145,7.4415 -6.262,15.4454 -6.36,24.0079 0.094,9.1211 2.254,17.3593 6.481,24.7187 4.222,7.3636 9.949,13.2186 17.179,17.5746 7.231,4.351 15.403,6.582 24.512,6.687 7.481,-0.082 14.563,-1.883 21.242,-5.402 6.684,-3.524 12.246,-8.285 16.684,-14.2893 l 10.551,10.0863 c -6.051,7.48 -13.375,13.23 -21.973,17.25 -8.598,4.019 -17.645,6.05 -27.145,6.093 -11.707,-0.136 -22.257,-3.023 -31.652,-8.664 -9.394,-5.644 -16.863,-13.211 -22.398,-22.714 -5.539,-9.4966 -8.371,-20.106 -8.5,-31.8208 0.125,-11.2969 2.89,-21.6563 8.297,-31.0703 5.406,-9.418 12.687,-16.9805 21.843,-22.6836 9.157,-5.70705 19.426,-8.63283 30.809,-8.78517 11.336,0.10937 21.273,2.71484 29.816,7.81637 8.539,5.1055 15.203,12.0469 19.992,20.8321 4.79,8.7812 7.223,18.7461 7.301,29.8984 l 0,4.793 -47.824,0" /><path
         id="path48"
         style="fill:#f89c0e;fill-opacity:1;fill-rule:nonzero;stroke:none"
         d="m 388.25,584.352 c -193.055,-90.43 -377.375,0 -377.375,0 l 13.0391,36.511 c 0,0 184.3439,-80.867 350.4259,0.871 l 13.91,-37.382" /><path
         id="path50"
         style="fill:none;stroke:#f89c0e;stroke-width:2.5;stroke-linecap:butt;stroke-linejoin:miter;stroke-miterlimit:3.8636899;stroke-dasharray:none;stroke-opacity:1"
         d="m 388.25,584.352 c -193.055,-90.43 -377.375,0 -377.375,0 l 13.0391,36.511 c 0,0 184.3439,-80.867 350.4259,0.871 l 13.91,-37.382 z" /><path
         id="path52"
         style="fill:#f89c0e;fill-opacity:1;fill-rule:nonzero;stroke:none"
         d="m 388.25,449.938 c -193.055,-90.434 -377.375,0 -377.375,0 l 13.0391,36.511 c 0,0 184.3439,-80.867 350.4259,0.871 l 13.91,-37.382" /><path
         id="path54"
         style="fill:none;stroke:#f89c0e;stroke-width:2.5;stroke-linecap:butt;stroke-linejoin:miter;stroke-miterlimit:3.8636899;stroke-dasharray:none;stroke-opacity:1"
         d="m 388.25,449.938 c -193.055,-90.434 -377.375,0 -377.375,0 l 13.0391,36.511 c 0,0 184.3439,-80.867 350.4259,0.871 l 13.91,-37.382 z" /><path
         id="path56"
         style="fill:#f89c0e;fill-opacity:1;fill-rule:nonzero;stroke:none"
         d="M 388.246,315.641 C 193.641,228.594 10.9297,322.227 10.9297,322.227 l 13.6758,36.277 c 0,0 182.8985,-84.074 350.3865,-5.246 l 13.254,-37.617" /><path
         id="path58"
         style="fill:none;stroke:#f89c0e;stroke-width:2.5;stroke-linecap:butt;stroke-linejoin:miter;stroke-miterlimit:3.8636899;stroke-dasharray:none;stroke-opacity:1"
         d="M 388.246,315.641 C 193.641,228.594 10.9297,322.227 10.9297,322.227 l 13.6758,36.277 c 0,0 182.8985,-84.074 350.3865,-5.246 l 13.254,-37.617 z" /><path
         id="path60"
         style="fill:#231f20;fill-opacity:1;fill-rule:nonzero;stroke:none"
         d="m 625.734,452.488 -143.808,-228.605 63.715,0 112.254,178.832 108.003,-178.832 63.715,0 -138.953,228.605 131.668,207.77 -64.922,0 -99.511,-159.153 -93.446,159.153 -64.926,0 126.211,-207.77" /><path
         id="path62"
         style="fill:#231f20;fill-opacity:1;fill-rule:evenodd;stroke:none"
         d="m 1056.15,415.246 c 31.79,3.945 57.5,17.645 77.12,41.106 19.62,23.461 29.44,51.355 29.44,83.687 0,21.688 -5.2,42.191 -15.6,61.508 -10.4,19.324 -24.63,34.305 -42.69,44.953 -15.7,9.066 -32.67,14.785 -50.92,17.148 -18.25,2.368 -40.33,3.551 -66.23,3.551 l -67.118,0 0,-445.945 55.34,0 0,188.672 22.961,0 130.697,-188.672 67.12,0 -140.12,193.992 z m -80.658,202.274 14.719,0 c 15.699,0 30.419,-0.989 44.149,-2.957 13.74,-1.973 26.4,-5.719 37.98,-11.239 11.58,-5.519 20.9,-13.703 27.96,-24.547 7.07,-10.843 10.6,-24.543 10.6,-41.101 0,-16.957 -3.24,-30.856 -9.71,-41.699 -6.48,-10.84 -15.31,-19.122 -26.5,-24.84 -11.18,-5.719 -23.45,-9.66 -36.79,-11.828 -13.35,-2.168 -28.26,-3.254 -44.744,-3.254 l -17.664,0 0,161.465" /><path
         id="path64"
         style="fill:#231f20;fill-opacity:1;fill-rule:nonzero;stroke:none"
         d="m 1491.59,448.148 0,-49.382 111.64,0 c -0.38,-17.227 -4.77,-33.59 -13.17,-49.098 -8.4,-15.504 -19.37,-29.285 -32.92,-41.344 -13.55,-12.058 -28.62,-21.437 -45.23,-28.136 -16.6,-6.7 -33.3,-10.047 -50.09,-10.047 -22.52,0 -44.09,4.879 -64.69,14.64 -20.62,9.762 -38.65,23.067 -54.11,39.91 -15.46,16.844 -27.48,35.887 -36.07,57.133 -8.59,21.25 -12.88,42.973 -12.88,65.176 0,23.734 4.39,46.324 13.17,67.762 8.78,21.437 20.99,40.289 36.64,56.558 15.65,16.27 34.07,28.903 55.25,37.903 21.18,8.996 43.6,13.492 67.27,13.492 25.95,0 51.14,-6.41 75.57,-19.238 24.43,-12.825 44.47,-29.954 60.12,-51.391 l 37.78,36.176 c -20.99,26.414 -47.04,46.992 -78.15,61.73 -31.1,14.738 -63.64,22.106 -97.61,22.106 -30.54,0 -59.45,-5.836 -86.74,-17.512 -27.29,-11.676 -51.24,-28.043 -71.85,-49.098 -20.61,-21.054 -36.64,-45.363 -48.09,-72.925 -11.45,-27.563 -17.18,-56.661 -17.18,-87.286 0,-29.476 5.63,-57.804 16.89,-84.984 11.26,-27.18 26.91,-51.297 46.95,-72.352 20.04,-21.058 43.41,-37.515 70.13,-49.386 26.72,-11.867 54.77,-17.801 84.16,-17.801 29.39,0 56.68,5.266 81.87,15.793 25.2,10.527 46.95,25.359 65.27,44.504 18.32,19.14 32.44,41.535 42.37,67.183 9.92,25.649 14.88,53.211 14.88,82.688 l 0,17.226 -171.18,0" /></g></g></svg>