<?xml version="1.0" encoding="UTF-8" standalone="no"?>
<!-- Created with Inkscape (http://www.inkscape.org/) -->

<svg
   xmlns:dc="http://purl.org/dc/elements/1.1/"
   xmlns:cc="http://creativecommons.org/ns#"
   xmlns:rdf="http://www.w3.org/1999/02/22-rdf-syntax-ns#"
   xmlns:svg="http://www.w3.org/2000/svg"
   xmlns="http://www.w3.org/2000/svg"
   xmlns:sodipodi="http://sodipodi.sourceforge.net/DTD/sodipodi-0.dtd"
   xmlns:inkscape="http://www.inkscape.org/namespaces/inkscape"
   id="svg2"
   version="1.1"
   inkscape:version="0.91 r13725"
   xml:space="preserve"
   width="881.20624"
   height="223.11375"
   viewBox="0 0 881.20624 223.11375"
   sodipodi:docname="logo.svg"><metadata
     id="metadata8"><rdf:RDF><cc:Work
         rdf:about=""><dc:format>image/svg+xml</dc:format><dc:type
           rdf:resource="http://purl.org/dc/dcmitype/StillImage" /><dc:title></dc:title></cc:Work></rdf:RDF></metadata><defs
     id="defs6"><clipPath
       clipPathUnits="userSpaceOnUse"
       id="clipPath16"><path
         d="m 0,178.491 704.965,0 L 704.965,0 0,0 0,178.491 Z"
         id="path18"
         inkscape:connector-curvature="0" /></clipPath></defs><sodipodi:namedview
     pagecolor="#ffffff"
     bordercolor="#666666"
     borderopacity="1"
     objecttolerance="10"
     gridtolerance="10"
     guidetolerance="10"
     inkscape:pageopacity="0"
     inkscape:pageshadow="2"
     inkscape:window-width="730"
     inkscape:window-height="480"
     id="namedview4"
     showgrid="false"
     inkscape:zoom="0.35632975"
     inkscape:cx="440.60312"
     inkscape:cy="111.55688"
     inkscape:window-x="0"
     inkscape:window-y="0"
     inkscape:window-maximized="0"
     inkscape:current-layer="g10" /><g
     id="g10"
     inkscape:groupmode="layer"
     inkscape:label="logo"
     transform="matrix(1.25,0,0,-1.25,0,223.11375)"><g
       id="g12"><g
         id="g14"
         clip-path="url(#clipPath16)"><g
           id="g20"
           transform="translate(100.9418,44.7687)"><path
             d="m 0,0 0.696,10.148 0.817,11.906 23.314,-6.658 0.6,-29.024 L 0,0 Z m -53.439,16.933 22.066,4.53 0.3,-21.132 -27.198,-14.203 4.832,30.805 z m -1.092,54.151 13.253,-16.873 -13.019,-5.17 -7.456,-2.957 -19.573,20.178 26.795,4.822 z m 40.542,43.91 13.288,-24.157 -11.036,-14.188 -3.779,-4.855 -4.74,6.892 -8.546,12.433 14.813,23.875 z M 33.801,44.181 24.732,47.53 11.767,52.325 25.986,71.388 52.556,66.257 33.801,44.181 Z m -75.658,36.868 0.365,-10.358 0.519,-14.928 -9.217,11.727 -3.512,4.474 -2.94,28.8 14.785,-19.715 z M 27.355,29.436 52.18,19.688 25.461,16.449 3.185,22.812 l 24.17,6.624 z m -42.565,-29.02 -0.031,0 -3.357,4.937 -11.527,16.936 -0.751,0.575 -26.219,8.835 2.028,2.575 14.754,18.708 0.614,0.567 -0.021,0.703 -0.734,20.917 -0.183,5.182 6.519,-2.654 18.114,-7.381 0.92,0.007 25.6,10.664 -0.218,-20.341 -0.086,-8.31 -0.006,-0.712 0.608,-0.572 L 26.58,30.535 C 26.564,30.501 26.549,30.478 26.536,30.456 L 1.075,23.484 0.313,22.943 -3.623,17.228 -15.21,0.416 Z M 33.628,42.961 52.139,20.995 28.194,30.39 28.111,30.501 15.937,46.34 12.548,50.765 13.87,50.27 33.628,42.961 Z M 18.755,63.693 11.426,53.875 11.504,61.589 11.719,81.47 27.502,99.9 25.145,72.269 18.755,63.693 Z M 0.382,90.286 26.478,100.547 11.027,82.502 -4.12,76.189 -13.678,72.2 l 4.492,5.781 9.568,12.305 z m -28.166,-2.758 10.612,-15.438 -23.713,9.656 -14.77,19.694 25.745,-10.825 2.126,-3.087 z m -22.597,-38.222 8.222,3.264 -16.235,-20.58 -25.302,-8.091 22.125,20.968 11.19,4.439 z m -3.598,-31.259 -29.506,4.669 25.305,8.085 3.579,-1.205 21.525,-7.259 -6.423,-1.319 -14.48,-2.971 z m 23.993,-10.161 -0.171,12.32 11.143,-16.374 3.2,-4.704 -0.364,-24.936 -13.695,25.924 -0.113,7.77 z m 28.771,-8.065 -13.768,-25.78 0.37,25.133 L 0.218,20.692 -0.537,9.664 -1.215,-0.179 Z m 27.863,-14.446 -0.627,29.945 29.456,3.561 -20.713,24.586 20.02,23.574 -0.998,0.196 -27.418,5.298 2.582,30.27 -28.666,-11.278 -14.215,25.836 -15.824,-25.518 -28.396,11.939 3.218,-31.564 -28.815,-5.179 0.781,-0.804 20.212,-20.839 -24.568,-23.282 32.675,-5.183 -5.166,-32.958 1.046,0.546 28.05,14.641 15.167,-28.724 15.172,28.41 27.045,-14.492 -0.018,1.019 z"
             style="fill:#d72537;fill-opacity:1;fill-rule:nonzero;stroke:none"
             id="path22"
             inkscape:connector-curvature="0" /></g><g
           id="g24"
           transform="translate(103.0961,132.6833)"><path
             d="M 0,0 -6.923,-8.905 7.146,-3.038 14.697,5.781 0,0 Z m -41.23,-3.822 14.148,-5.761 -6.859,9.977 -15.264,6.417 7.975,-10.633 z M -27.546,3.283 -17.528,-11.288 -6.262,3.193 -16.291,21.425 -27.546,3.283 Z m -25.556,-18.122 6.818,-8.675 -0.547,15.653 -8.081,10.771 1.81,-17.749 z m 65.51,7.327 -0.192,-17.811 8,10.731 1.534,17.989 -9.342,-10.909 z m -90.107,-16 14.512,-14.961 15.147,6.01 -9.831,12.518 -19.828,-3.567 z m 91.883,-10.725 16.579,-6.129 14.3,16.834 -20.013,3.862 -10.866,-14.567 z m -76.346,-11.263 -12.653,-11.991 12.565,4.018 9.114,11.554 -9.026,-3.581 z m 89.985,-9.657 12.723,-4.996 -10.769,12.785 -11.092,4.101 9.138,-11.89 z m -101.141,-9.1 17.119,-2.707 10.039,2.06 -14.198,4.789 -12.96,-4.142 z m 84.944,-0.901 11.908,-3.405 14.926,1.809 -13.419,5.271 -13.415,-3.675 z m -42.345,1.936 0.799,-0.798 12.556,-18.445 13.458,19.533 0.636,0.45 0.022,0.334 0.322,-0.089 0.608,0.428 21.932,6.003 -13.522,17.442 -0.905,0.852 0.004,0.515 -0.15,0.056 0.153,0.202 0.267,25.51 -22.121,-9.213 -0.761,-0.005 -0.392,-0.504 -0.343,0.497 -0.555,-0.002 -21.072,8.586 0.798,-22.873 0.159,-0.205 -0.151,-0.06 0.018,-0.566 -1.405,-1.302 -14.137,-17.924 22.828,-7.697 0.682,-0.52 0.268,0.058 0.004,-0.263 z m -22.361,-10.158 -3.649,-23.255 20.621,10.769 -0.226,15.924 -16.746,-3.438 z M 0.819,-86.269 20.318,-96.721 19.862,-74.687 1.966,-69.574 0.819,-86.269 Z m -14.744,-3.379 -0.184,-12.496 7.934,14.855 0.678,9.87 -8.428,-12.229 z m -15.256,2.579 8.158,-15.445 0.186,12.866 -8.487,12.477 0.143,-9.898 z m 11.462,-36.492 -16.351,30.965 -31.596,-16.496 5.602,35.734 -35.581,5.649 26.676,25.278 -22.709,23.421 31.482,5.659 -3.437,33.717 30.582,-12.859 17.114,27.598 15.358,-27.915 30.61,12.042 -2.756,-32.297 30.682,-5.945 -21.608,-25.444 22.56,-26.781 -32.134,-3.887 0.679,-33.255 -28.815,15.44 -16.358,-30.624 z"
             style="fill:#d72537;fill-opacity:1;fill-rule:nonzero;stroke:none"
             id="path26"
             inkscape:connector-curvature="0" /></g><g
           id="g28"
           transform="translate(85.8623,45.1848)"><path
             d="M 0,0 -14.831,21.79 0.021,42.384 9.301,30.375 15.451,22.413 0,0 Z m -24.89,52.827 23.96,-9.705 -4.913,-6.816 -9.943,-13.798 -26.08,8.798 16.976,21.521 z m 23.979,17.154 0.013,-1.296 0.29,-24.407 -7.502,3.043 -16.392,6.643 -0.902,25.991 24.493,-9.974 z M 25.744,80.591 25.442,52.083 0.588,44.203 0.284,69.989 25.744,80.591 Z M 16.423,23.112 0.997,43.077 4.774,44.278 25.819,50.943 41.845,30.078 16.423,23.112 Z M 43.881,29.397 26.637,51.841 26.964,82.393 -0.32,71.025 -26.664,81.756 -25.688,53.75 -43.852,30.712 l 27.919,-9.414 15.928,-23.42 0.496,0.72 16.07,23.323 27.32,7.476 z"
             style="fill:#d72537;fill-opacity:1;fill-rule:nonzero;stroke:none"
             id="path30"
             inkscape:connector-curvature="0" /></g><g
           id="g32"
           transform="translate(64.1485,101.0967)"><path
             d="M 0,0 18.2,-7.375 17.969,12.14 -0.683,19.736 0,0 Z m 24.875,12.186 0.238,-20.009 19.21,6.089 0.232,22.115 -19.68,-8.195 z m 2.589,-26.506 11.763,-15.22 19.479,5.337 -12.219,15.91 -19.023,-6.027 z m -42.868,-8.875 20.248,-6.832 11.497,15.956 -18.602,7.538 -13.143,-16.662 z m 25.773,-10.974 11.36,-16.692 11.903,17.267 -11.819,15.299 -11.444,-15.874 z M 21.692,-63.084 3.961,-37.015 -26.886,-26.611 -6.864,-1.214 -7.956,30.152 21.381,18.202 51.577,30.781 51.215,-3.113 70.449,-28.145 40.033,-36.472 21.692,-63.084 Z"
             style="fill:#d72537;fill-opacity:1;fill-rule:nonzero;stroke:none"
             id="path34"
             inkscape:connector-curvature="0" /></g><g
           id="g36"
           transform="translate(182.0864,140.211)"><path
             d="M 0,0 17.603,0 25.89,-45.733 38.099,0 53.578,0 68.071,-46.532 76.548,0 l 16.726,0 -14.31,-68.429 -19.312,0 -12.841,42.693 -13.137,-42.693 -20.261,0 L 0,0 Z"
             style="fill:#231f20;fill-opacity:1;fill-rule:nonzero;stroke:none"
             id="path38"
             inkscape:connector-curvature="0" /></g><g
           id="g40"
           transform="translate(692.796,71.7822)"><path
             d="M 0,0 -17.604,0 -25.875,45.898 -38.098,0 -53.581,0 -68.013,46.521 -76.546,0 l -16.73,0 14.312,68.429 19.31,0 12.839,-42.727 13.148,42.727 20.253,0 L 0,0 Z"
             style="fill:#231f20;fill-opacity:1;fill-rule:nonzero;stroke:none"
             id="path42"
             inkscape:connector-curvature="0" /></g><g
           id="g44"
           transform="translate(312.2269,84.1399)"><path
             d="M 0,0 C 10.945,0 15.298,10.588 15.298,21.858 15.298,33.73 10.945,43.724 0,43.724 -10.943,43.724 -15.298,33.73 -15.298,21.858 -15.298,10.588 -10.943,0 0,0 m 0,57.255 c 22.274,0 33.893,-13.438 33.893,-35.397 0,-21.763 -11.812,-35.385 -33.893,-35.385 -22.072,0 -33.884,13.622 -33.884,35.385 0,21.959 11.617,35.397 33.884,35.397"
             style="fill:#231f20;fill-opacity:1;fill-rule:nonzero;stroke:none"
             id="path46"
             inkscape:connector-curvature="0" /></g><g
           id="g48"
           transform="translate(356.1907,140.2211)"><path
             d="m 0,0 18.013,0 0,-54.903 27.886,0 0,-13.522 L 0,-68.425 0,0 Z"
             style="fill:#231f20;fill-opacity:1;fill-rule:nonzero;stroke:none"
             id="path50"
             inkscape:connector-curvature="0" /></g><g
           id="g52"
           transform="translate(409.5451,140.2211)"><path
             d="m 0,0 45.202,0 0,-12.944 -27.196,0 0,-15.005 26.037,0 0,-12.932 -26.037,0 0,-27.544 L 0,-68.425 0,0 Z"
             style="fill:#231f20;fill-opacity:1;fill-rule:nonzero;stroke:none"
             id="path54"
             inkscape:connector-curvature="0" /></g><g
           id="g56"
           transform="translate(482.1717,111.7816)"><path
             d="m 0,0 4.753,0 c 5.804,0 13.165,0.199 13.165,7.947 0,6.368 -6.295,7.549 -13.165,7.549 L 0,15.496 0,0 Z m -18.007,28.44 32.146,0 c 12.009,0 21.789,-5.487 21.789,-17.261 0,-9.12 -4.262,-15.195 -12.975,-17.252 l 0,-0.199 c 5.804,-1.57 6.198,-6.768 9.587,-15.1 l 6.576,-18.613 -18.779,0 -3.868,12.343 c -3.687,11.762 -6.005,14.708 -12.686,14.708 l -3.783,0 0,-27.051 -18.007,0 0,68.425 z"
             style="fill:#231f20;fill-opacity:1;fill-rule:nonzero;stroke:none"
             id="path58"
             inkscape:connector-curvature="0" /></g><g
           id="g60"
           transform="translate(559.6147,126.0965)"><path
             d="m 0,0 -0.189,0 -8.714,-26.756 16.936,0 L 0,0 Z m -11.044,14.125 22.084,0 26.044,-68.425 -19.754,0 -5.035,14.597 -25.363,0 -5.329,-14.597 -18.304,0 25.657,68.425 z"
             style="fill:#231f20;fill-opacity:1;fill-rule:nonzero;stroke:none"
             id="path62"
             inkscape:connector-curvature="0" /></g><g
           id="g64"
           transform="translate(199.839,36.2835)"><path
             d="m 0,0 c -1.454,-0.357 -3.073,-0.768 -5.68,-0.768 -5.103,0 -11.002,2.579 -11.002,9.822 0,6.668 4.664,9.987 10.975,9.987 1.948,0 3.841,-0.439 5.679,-0.987 l -0.411,-4.143 c -1.646,0.905 -3.238,1.344 -4.994,1.344 -3.621,0 -5.981,-2.634 -5.981,-6.201 0,-3.759 2.662,-6.036 6.393,-6.036 1.674,0 3.375,0.439 4.774,0.988 L 0,0 Z"
             style="fill:#231f20;fill-opacity:1;fill-rule:nonzero;stroke:none"
             id="path66"
             inkscape:connector-curvature="0" /></g><g
           id="g68"
           transform="translate(212.1859,39.3014)"><path
             d="M 0,0 C 3.1,0 4.335,2.963 4.335,6.119 4.335,9.439 3.1,12.237 0,12.237 -3.101,12.237 -4.335,9.439 -4.335,6.119 -4.335,2.963 -3.101,0 0,0 m 0,16.024 c 6.311,0 9.603,-3.759 9.603,-9.905 0,-6.091 -3.347,-9.905 -9.603,-9.905 -6.256,0 -9.603,3.814 -9.603,9.905 0,6.146 3.292,9.905 9.603,9.905"
             style="fill:#231f20;fill-opacity:1;fill-rule:nonzero;stroke:none"
             id="path70"
             inkscape:connector-curvature="0" /></g><g
           id="g72"
           transform="translate(224.9183,54.9956)"><path
             d="m 0,0 8.039,0 4.061,-12.731 0.055,0 4.253,12.731 7.737,0 0,-19.151 -4.994,0 0.082,14.706 -0.054,0 -4.884,-14.706 -4.692,0 -4.664,14.706 -0.056,0 0.111,-14.706 -4.994,0 L 0,0 Z"
             style="fill:#231f20;fill-opacity:1;fill-rule:nonzero;stroke:none"
             id="path74"
             inkscape:connector-curvature="0" /></g><g
           id="g76"
           transform="translate(258.0086,46.1607)"><path
             d="m 0,0 1.317,0 c 1.756,0 3.155,0.631 3.155,2.634 0,1.948 -1.399,2.579 -3.155,2.579 L 0,5.213 0,0 Z m -5.103,8.835 6.091,0 c 5.844,0 8.587,-1.975 8.587,-6.283 0,-3.868 -2.825,-6.174 -7.6,-6.174 l -1.975,0 0,-6.694 -5.103,0 0,19.151 z"
             style="fill:#231f20;fill-opacity:1;fill-rule:nonzero;stroke:none"
             id="path78"
             inkscape:connector-curvature="0" /></g><g
           id="g80"
           transform="translate(287.1475,43.1152)"><path
             d="m 0,0 c 0,-5.24 -3.402,-7.6 -8.396,-7.6 -4.994,0 -8.395,2.36 -8.395,7.6 l 0,11.88 5.103,0 0,-11.029 c 0,-2.524 0.686,-4.665 3.292,-4.665 2.607,0 3.293,2.141 3.293,4.665 l 0,11.029 L 0,11.88 0,0 Z"
             style="fill:#231f20;fill-opacity:1;fill-rule:nonzero;stroke:none"
             id="path82"
             inkscape:connector-curvature="0" /></g><g
           id="g84"
           transform="translate(294.4193,51.2094)"><path
             d="m 0,0 -4.719,0 0,3.786 14.542,0 0,-3.786 -4.72,0 0,-15.365 -5.103,0 L 0,0 Z"
             style="fill:#231f20;fill-opacity:1;fill-rule:nonzero;stroke:none"
             id="path86"
             inkscape:connector-curvature="0" /></g><g
           id="g88"
           transform="translate(314.2566,51.0447)"><path
             d="m 0,0 -0.055,0 -2.469,-7.49 4.802,0 L 0,0 Z m -3.128,3.951 6.256,0 7.381,-19.151 -5.597,0 -1.427,4.088 -7.189,0 -1.509,-4.088 -5.186,0 7.271,19.151 z"
             style="fill:#231f20;fill-opacity:1;fill-rule:nonzero;stroke:none"
             id="path90"
             inkscape:connector-curvature="0" /></g><g
           id="g92"
           transform="translate(328.8822,51.2094)"><path
             d="m 0,0 -4.719,0 0,3.786 14.542,0 0,-3.786 -4.72,0 0,-15.365 -5.103,0 L 0,0 Z"
             style="fill:#231f20;fill-opacity:1;fill-rule:nonzero;stroke:none"
             id="path94"
             inkscape:connector-curvature="0" /></g><path
           d="m 341.778,54.996 5.103,0 0,-19.151 -5.103,0 0,19.151 z"
           style="fill:#231f20;fill-opacity:1;fill-rule:nonzero;stroke:none"
           id="path96"
           inkscape:connector-curvature="0" /><g
           id="g98"
           transform="translate(360.2711,39.3014)"><path
             d="M 0,0 C 3.1,0 4.335,2.963 4.335,6.119 4.335,9.439 3.1,12.237 0,12.237 -3.1,12.237 -4.335,9.439 -4.335,6.119 -4.335,2.963 -3.1,0 0,0 m 0,16.024 c 6.311,0 9.603,-3.759 9.603,-9.905 0,-6.091 -3.347,-9.905 -9.603,-9.905 -6.256,0 -9.603,3.814 -9.603,9.905 0,6.146 3.292,9.905 9.603,9.905"
             style="fill:#231f20;fill-opacity:1;fill-rule:nonzero;stroke:none"
             id="path100"
             inkscape:connector-curvature="0" /></g><g
           id="g102"
           transform="translate(373.497,54.9956)"><path
             d="m 0,0 6.503,0 6.475,-13.005 0.055,0 L 12.951,0 l 4.664,0 0,-19.151 -6.338,0 -6.695,13.088 -0.055,0 0.165,-13.088 -4.692,0 L 0,0 Z"
             style="fill:#231f20;fill-opacity:1;fill-rule:nonzero;stroke:none"
             id="path104"
             inkscape:connector-curvature="0" /></g><g
           id="g106"
           transform="translate(404.9416,54.9956)"><path
             d="m 0,0 8.039,0 4.061,-12.731 0.055,0 4.253,12.731 7.737,0 0,-19.151 -4.994,0 0.082,14.706 -0.054,0 -4.884,-14.706 -4.692,0 -4.664,14.706 -0.056,0 0.111,-14.706 -4.994,0 L 0,0 Z"
             style="fill:#231f20;fill-opacity:1;fill-rule:nonzero;stroke:none"
             id="path108"
             inkscape:connector-curvature="0" /></g><g
           id="g110"
           transform="translate(433.0658,54.9956)"><path
             d="m 0,0 13.499,0 0,-3.622 -8.396,0 0,-3.951 7.93,0 0,-3.621 -7.93,0 0,-4.336 8.698,0 0,-3.621 L 0,-19.151 0,0 Z"
             style="fill:#231f20;fill-opacity:1;fill-rule:nonzero;stroke:none"
             id="path112"
             inkscape:connector-curvature="0" /></g><g
           id="g114"
           transform="translate(450.517,54.9956)"><path
             d="m 0,0 13.499,0 0,-3.622 -8.396,0 0,-3.951 7.93,0 0,-3.621 -7.93,0 0,-4.336 8.698,0 0,-3.621 L 0,-19.151 0,0 Z"
             style="fill:#231f20;fill-opacity:1;fill-rule:nonzero;stroke:none"
             id="path116"
             inkscape:connector-curvature="0" /></g><g
           id="g118"
           transform="translate(471.3971,51.2094)"><path
             d="m 0,0 -4.719,0 0,3.786 14.542,0 0,-3.786 -4.72,0 0,-15.365 -5.103,0 L 0,0 Z"
             style="fill:#231f20;fill-opacity:1;fill-rule:nonzero;stroke:none"
             id="path120"
             inkscape:connector-curvature="0" /></g><g
           id="g122"
           transform="translate(484.1009,40.5639)"><path
             d="m 0,0 c 1.317,-0.713 3.156,-1.262 5.268,-1.262 1.619,0 3.155,0.329 3.155,1.866 0,3.566 -9.054,1.317 -9.054,8.286 0,4.609 4.5,5.871 8.341,5.871 1.838,0 3.649,-0.274 4.939,-0.713 l -0.33,-3.951 c -1.317,0.604 -2.798,0.878 -4.252,0.878 -1.29,0 -3.43,-0.11 -3.43,-1.784 0,-3.1 9.054,-1.015 9.054,-7.929 0,-4.966 -4.17,-6.311 -8.423,-6.311 -1.783,0 -4.006,0.275 -5.707,0.824 L 0,0 Z"
             style="fill:#231f20;fill-opacity:1;fill-rule:nonzero;stroke:none"
             id="path124"
             inkscape:connector-curvature="0" /></g><g
           id="g126"
           transform="translate(511.1284,54.9956)"><path
             d="m 0,0 5.103,0 0,-7.819 0.055,0 5.762,7.819 6.146,0 -7.079,-8.917 7.627,-10.234 -6.502,0 -5.954,8.698 -0.055,0 0,-8.698 -5.103,0 L 0,0 Z"
             style="fill:#231f20;fill-opacity:1;fill-rule:nonzero;stroke:none"
             id="path128"
             inkscape:connector-curvature="0" /></g><g
           id="g130"
           transform="translate(531.7067,54.9956)"><path
             d="m 0,0 6.503,0 6.475,-13.005 0.055,0 L 12.951,0 l 4.664,0 0,-19.151 -6.338,0 -6.695,13.088 -0.055,0 0.165,-13.088 -4.692,0 L 0,0 Z"
             style="fill:#231f20;fill-opacity:1;fill-rule:nonzero;stroke:none"
             id="path132"
             inkscape:connector-curvature="0" /></g><g
           id="g134"
           transform="translate(562.547,39.3014)"><path
             d="M 0,0 C 3.1,0 4.335,2.963 4.335,6.119 4.335,9.439 3.1,12.237 0,12.237 -3.101,12.237 -4.335,9.439 -4.335,6.119 -4.335,2.963 -3.101,0 0,0 m 0,16.024 c 6.311,0 9.603,-3.759 9.603,-9.905 0,-6.091 -3.347,-9.905 -9.603,-9.905 -6.256,0 -9.603,3.814 -9.603,9.905 0,6.146 3.292,9.905 9.603,9.905"
             style="fill:#231f20;fill-opacity:1;fill-rule:nonzero;stroke:none"
             id="path136"
             inkscape:connector-curvature="0" /></g><g
           id="g138"
           transform="translate(574.1271,54.9956)"><path
             d="m 0,0 5.213,0 2.469,-14.706 0.055,0 2.579,14.706 6.475,0 2.689,-14.706 0.055,0 2.497,14.706 4.966,0 -4.28,-19.151 -6.558,0 -2.716,14.706 -0.055,0 -2.524,-14.706 -6.613,0 L 0,0 Z"
             style="fill:#231f20;fill-opacity:1;fill-rule:nonzero;stroke:none"
             id="path140"
             inkscape:connector-curvature="0" /></g><g
           id="g142"
           transform="translate(603.8151,54.9956)"><path
             d="m 0,0 5.103,0 0,-15.365 7.902,0 0,-3.786 L 0,-19.151 0,0 Z"
             style="fill:#231f20;fill-opacity:1;fill-rule:nonzero;stroke:none"
             id="path144"
             inkscape:connector-curvature="0" /></g><g
           id="g146"
           transform="translate(619.6194,54.9956)"><path
             d="m 0,0 13.499,0 0,-3.622 -8.396,0 0,-3.951 7.93,0 0,-3.621 -7.93,0 0,-4.336 8.698,0 0,-3.621 L 0,-19.151 0,0 Z"
             style="fill:#231f20;fill-opacity:1;fill-rule:nonzero;stroke:none"
             id="path148"
             inkscape:connector-curvature="0" /></g><g
           id="g150"
           transform="translate(641.9817,39.6308)"><path
             d="m 0,0 1.975,0 c 3.814,0 5.954,1.976 5.954,5.79 0,3.813 -2.222,5.789 -5.954,5.789 L 0,11.579 0,0 Z m -5.103,15.365 6.969,0 c 6.667,0 11.331,-2.086 11.331,-9.493 0,-7.161 -4.801,-9.658 -11.331,-9.658 l -6.969,0 0,19.151 z"
             style="fill:#231f20;fill-opacity:1;fill-rule:nonzero;stroke:none"
             id="path152"
             inkscape:connector-curvature="0" /></g><g
           id="g154"
           transform="translate(676.6083,36.3932)"><path
             d="m 0,0 c -3.238,-0.823 -5.652,-0.878 -7.408,-0.878 -5.104,0 -11.002,2.579 -11.002,9.823 0,7.216 5.075,9.987 12.099,9.987 1.262,0 3.924,-0.137 5.789,-0.851 l -0.411,-4.17 c -1.591,0.933 -3.457,1.235 -4.664,1.235 -4.144,0 -7.545,-1.729 -7.545,-6.201 0,-3.759 2.661,-6.037 6.392,-6.037 0.686,0 1.345,0.11 1.811,0.33 l 0,3.786 -2.99,0 0,3.621 7.929,0 L 0,0 Z"
             style="fill:#231f20;fill-opacity:1;fill-rule:nonzero;stroke:none"
             id="path156"
             inkscape:connector-curvature="0" /></g><g
           id="g158"
           transform="translate(680.8076,54.9956)"><path
             d="m 0,0 13.499,0 0,-3.622 -8.396,0 0,-3.951 7.93,0 0,-3.621 -7.93,0 0,-4.336 8.698,0 0,-3.621 L 0,-19.151 0,0 Z"
             style="fill:#231f20;fill-opacity:1;fill-rule:nonzero;stroke:none"
             id="path160"
             inkscape:connector-curvature="0" /></g></g></g></g></svg>