<?xml version="1.0" encoding="UTF-8" standalone="no"?>
<svg
   xmlns:dc="http://purl.org/dc/elements/1.1/"
   xmlns:cc="http://creativecommons.org/ns#"
   xmlns:rdf="http://www.w3.org/1999/02/22-rdf-syntax-ns#"
   xmlns:svg="http://www.w3.org/2000/svg"
   xmlns="http://www.w3.org/2000/svg"
   viewBox="0 0 756.90805 212.59877"
   height="212.59877"
   width="756.90808"
   xml:space="preserve"
   version="1.1"
   id="svg2"><metadata
     id="metadata8"><rdf:RDF><cc:Work
         rdf:about=""><dc:format>image/svg+xml</dc:format><dc:type
           rdf:resource="http://purl.org/dc/dcmitype/StillImage" /><dc:title></dc:title></cc:Work></rdf:RDF></metadata><defs
     id="defs6"><clipPath
       id="clipPath16"
       clipPathUnits="userSpaceOnUse"><path
         id="path18"
         d="m 0,595.28 841.89,0 L 841.89,0 0,0 0,595.28 Z" /></clipPath><clipPath
       id="clipPath40"
       clipPathUnits="userSpaceOnUse"><path
         id="path42"
         d="m 207.989,382.281 c -16.336,-0.725 -30.248,-4.312 -29.436,-6.919 l 0,0 c 0.779,-2.532 7.229,-2.104 15.689,-2.104 l 0,0 c 15.452,0 30.716,-2.907 34.265,-6.989 l 0,0 c 6.053,-6.946 -3.585,-22.876 -33.735,-44.89 l 0,0 c -5.632,-4.108 -9.355,-7.203 -10.288,-9.069 l 0,0 c -0.421,-0.85 -0.129,-1.937 0.942,-2.002 l 0,0 c 2.084,-0.125 5.31,0.772 11.703,3.877 l 0,0 c 26.08,12.651 55.324,37.795 49.412,55.467 l 0,0 c -3.236,9.685 -18.575,12.742 -33.507,12.742 l 0,0 c -1.692,0 -3.381,-0.039 -5.045,-0.113" /></clipPath><radialGradient
       id="radialGradient48"
       spreadMethod="pad"
       gradientTransform="matrix(35.232025,0,0,-35.232025,212.91504,346.34521)"
       gradientUnits="userSpaceOnUse"
       r="1"
       cy="0"
       cx="0"
       fy="0"
       fx="0"><stop
         id="stop50"
         offset="0"
         style="stop-opacity:1;stop-color:#52738d" /><stop
         id="stop52"
         offset="0.50174886"
         style="stop-opacity:1;stop-color:#52738d" /><stop
         id="stop54"
         offset="1"
         style="stop-opacity:1;stop-color:#182431" /></radialGradient><clipPath
       id="clipPath62"
       clipPathUnits="userSpaceOnUse"><path
         id="path64"
         d="m 228.729,314.192 c -6.614,-10.142 6.26,-24.335 17.729,-37.896 l 0,0 c 9.677,-11.435 19.899,-22.3 15.627,-28.643 l 0,0 c -3.407,-5.062 -25.827,-5.423 -33.356,-5.831 l 0,0 c -9.15,-0.495 -21.894,-0.246 -24.2,-1.487 l 0,0 c -1.421,-0.763 -3.242,-3.646 4.59,-5.052 l 0,0 c 6.516,-1.168 20.533,-3.276 35.846,-3.266 l 0,0 c 15.316,0.002 33.233,2.269 36.977,14.991 l 0,0 c 2.776,9.457 -7.068,20.101 -16.369,31.365 l 0,0 c -9.968,12.063 -20.363,21.154 -19.512,29.697 l 0,0 c 0.682,6.916 14.008,7.548 35.652,7.928 l 0,0 c 2.913,0.05 13.08,-0.094 11.5,3.155 l 0,0 c -1.162,2.376 -7.148,3.546 -15.179,4.858 l 0,0 c -4.988,0.816 -11.365,1.51 -17.941,1.51 l 0,0 c -12.441,0 -25.59,-2.485 -31.364,-11.329" /></clipPath><radialGradient
       id="radialGradient70"
       spreadMethod="pad"
       gradientTransform="matrix(45.910473,0,0,-45.910473,248.3252,278.76953)"
       gradientUnits="userSpaceOnUse"
       r="1"
       cy="0"
       cx="0"
       fy="0"
       fx="0"><stop
         id="stop72"
         offset="0"
         style="stop-opacity:1;stop-color:#3b5a75" /><stop
         id="stop74"
         offset="0.33565293"
         style="stop-opacity:1;stop-color:#3b5a75" /><stop
         id="stop76"
         offset="0.668966"
         style="stop-opacity:1;stop-color:#182431" /><stop
         id="stop78"
         offset="1"
         style="stop-opacity:1;stop-color:#3b5a75" /></radialGradient><clipPath
       id="clipPath86"
       clipPathUnits="userSpaceOnUse"><path
         id="path88"
         d="m 171.469,301.791 c -13.581,-0.712 -32.062,-5.013 -31.554,-7.436 l 0,0 c 0.651,-3.689 14.529,-2.483 19.379,-2.483 l 0,0 c 13.436,-0.004 34.832,-0.91 38.329,-9.917 l 0,0 c 7.095,-18.277 -41.396,-52.406 -52.794,-48.895 l 0,0 c -5.453,1.674 9.839,26.945 14.571,34.916 l 0,0 c 3,5.035 7.105,12.594 3.99,13.01 l 0,0 c -3.798,0.521 -9.314,-7.823 -11.76,-11.205 l 0,0 c -8.623,-11.952 -17.266,-24.698 -24.352,-38.107 l 0,0 c -2.187,-4.14 -9.458,-16.134 -6.959,-17.742 l 0,0 c 1.775,-1.132 12.702,0.884 26.8,6.469 l 0,0 c 44.357,17.578 63.867,40.17 69.215,59.076 l 0,0 c 1.82,6.421 -2.123,12.083 -5.862,14.652 l 0,0 c -8.099,5.551 -21.46,7.799 -33.766,7.799 l 0,0 c -1.773,0 -3.526,-0.047 -5.237,-0.137" /></clipPath><radialGradient
       id="radialGradient94"
       spreadMethod="pad"
       gradientTransform="matrix(46.372803,0,0,-46.372803,168.29687,257.77832)"
       gradientUnits="userSpaceOnUse"
       r="1"
       cy="0"
       cx="0"
       fy="0"
       fx="0"><stop
         id="stop96"
         offset="0"
         style="stop-opacity:1;stop-color:#3b5a75" /><stop
         id="stop98"
         offset="0.35814483"
         style="stop-opacity:1;stop-color:#3b5a75" /><stop
         id="stop100"
         offset="0.713793"
         style="stop-opacity:1;stop-color:#182431" /><stop
         id="stop102"
         offset="1"
         style="stop-opacity:1;stop-color:#3b5a75" /></radialGradient><radialGradient
       id="radialGradient118"
       spreadMethod="pad"
       gradientTransform="matrix(45.091232,0,0,-45.091232,204.22314,356.85059)"
       gradientUnits="userSpaceOnUse"
       r="1"
       cy="0"
       cx="0"
       fy="0"
       fx="0"><stop
         id="stop120"
         offset="0"
         style="stop-opacity:1;stop-color:#ffffff" /><stop
         id="stop122"
         offset="0.5"
         style="stop-opacity:1;stop-color:#ffffff" /><stop
         id="stop124"
         offset="0.60786467"
         style="stop-opacity:1;stop-color:#ffffff" /><stop
         id="stop126"
         offset="1"
         style="stop-opacity:1;stop-color:#52738d" /></radialGradient><radialGradient
       id="radialGradient142"
       spreadMethod="pad"
       gradientTransform="matrix(96.294418,0,0,-96.294418,204.62891,306.15723)"
       gradientUnits="userSpaceOnUse"
       r="1"
       cy="0"
       cx="0"
       fy="0"
       fx="0"><stop
         id="stop144"
         offset="0"
         style="stop-opacity:1;stop-color:#ffffff" /><stop
         id="stop146"
         offset="0.465517"
         style="stop-opacity:1;stop-color:#ffffff" /><stop
         id="stop148"
         offset="0.55302739"
         style="stop-opacity:1;stop-color:#ffffff" /><stop
         id="stop150"
         offset="0.871166"
         style="stop-opacity:1;stop-color:#283b4e" /><stop
         id="stop152"
         offset="1"
         style="stop-opacity:1;stop-color:#52738d" /></radialGradient><radialGradient
       id="radialGradient168"
       spreadMethod="pad"
       gradientTransform="matrix(104.17518,0,0,-104.17518,180.27637,312.65039)"
       gradientUnits="userSpaceOnUse"
       r="1"
       cy="0"
       cx="0"
       fy="0"
       fx="0"><stop
         id="stop170"
         offset="0"
         style="stop-opacity:1;stop-color:#ffffff" /><stop
         id="stop172"
         offset="0.241758"
         style="stop-opacity:1;stop-color:#ffffff" /><stop
         id="stop174"
         offset="0.40594874"
         style="stop-opacity:1;stop-color:#ffffff" /><stop
         id="stop176"
         offset="0.637363"
         style="stop-opacity:1;stop-color:#28465d" /><stop
         id="stop178"
         offset="0.67256152"
         style="stop-opacity:1;stop-color:#28465d" /><stop
         id="stop180"
         offset="0.792142"
         style="stop-opacity:1;stop-color:#52738d" /><stop
         id="stop182"
         offset="1"
         style="stop-opacity:1;stop-color:#52738d" /></radialGradient><linearGradient
       id="linearGradient198"
       spreadMethod="pad"
       gradientTransform="matrix(12.359359,-16.401422,-16.401422,-12.359359,133.21582,236.28711)"
       gradientUnits="userSpaceOnUse"
       y2="0"
       x2="1"
       y1="0"
       x1="0"><stop
         id="stop200"
         offset="0"
         style="stop-opacity:1;stop-color:#52738d" /><stop
         id="stop202"
         offset="0.175824"
         style="stop-opacity:1;stop-color:#52738d" /><stop
         id="stop204"
         offset="0.25505656"
         style="stop-opacity:1;stop-color:#52738d" /><stop
         id="stop206"
         offset="0.467033"
         style="stop-opacity:1;stop-color:#bbd2dc" /><stop
         id="stop208"
         offset="0.54994163"
         style="stop-opacity:1;stop-color:#bbd2dc" /><stop
         id="stop210"
         offset="0.884615"
         style="stop-opacity:1;stop-color:#52738d" /><stop
         id="stop212"
         offset="1"
         style="stop-opacity:1;stop-color:#52738d" /></linearGradient><linearGradient
       id="linearGradient228"
       spreadMethod="pad"
       gradientTransform="matrix(-22.819572,-47.342174,-47.342174,22.819572,245.39844,273.8623)"
       gradientUnits="userSpaceOnUse"
       y2="0"
       x2="1"
       y1="0"
       x1="0"><stop
         id="stop230"
         offset="0"
         style="stop-opacity:1;stop-color:#3b5a75" /><stop
         id="stop232"
         offset="0.12416847"
         style="stop-opacity:1;stop-color:#3b5a75" /><stop
         id="stop234"
         offset="0.532967"
         style="stop-opacity:1;stop-color:#d2e2e8" /><stop
         id="stop236"
         offset="0.79632751"
         style="stop-opacity:1;stop-color:#7092a9" /><stop
         id="stop238"
         offset="1"
         style="stop-opacity:1;stop-color:#7092a9" /></linearGradient><linearGradient
       id="linearGradient254"
       spreadMethod="pad"
       gradientTransform="matrix(80.475929,36.525997,36.525997,-80.475929,123.20215,251.18457)"
       gradientUnits="userSpaceOnUse"
       y2="0"
       x2="1"
       y1="0"
       x1="0"><stop
         id="stop256"
         offset="0"
         style="stop-opacity:1;stop-color:#28465d" /><stop
         id="stop258"
         offset="0.0604396"
         style="stop-opacity:1;stop-color:#28465d" /><stop
         id="stop260"
         offset="0.17529532"
         style="stop-opacity:1;stop-color:#f1f0f1" /><stop
         id="stop262"
         offset="0.472527"
         style="stop-opacity:1;stop-color:#f1f0f1" /><stop
         id="stop264"
         offset="0.62165805"
         style="stop-opacity:1;stop-color:#f1f0f1" /><stop
         id="stop266"
         offset="1"
         style="stop-opacity:1;stop-color:#28465d" /></linearGradient><linearGradient
       id="linearGradient282"
       spreadMethod="pad"
       gradientTransform="matrix(-24.942419,-111.35136,-111.35136,24.942419,275.01318,338.03613)"
       gradientUnits="userSpaceOnUse"
       y2="0"
       x2="1"
       y1="0"
       x1="0"><stop
         id="stop284"
         offset="0"
         style="stop-opacity:1;stop-color:#28465d" /><stop
         id="stop286"
         offset="0.104396"
         style="stop-opacity:1;stop-color:#28465d" /><stop
         id="stop288"
         offset="0.28445523"
         style="stop-opacity:1;stop-color:#d2e2e8" /><stop
         id="stop290"
         offset="0.395604"
         style="stop-opacity:1;stop-color:#d2e2e8" /><stop
         id="stop292"
         offset="0.725275"
         style="stop-opacity:1;stop-color:#28465d" /><stop
         id="stop294"
         offset="0.82379784"
         style="stop-opacity:1;stop-color:#9fbfcf" /><stop
         id="stop296"
         offset="0.884615"
         style="stop-opacity:1;stop-color:#9fbfcf" /><stop
         id="stop298"
         offset="1"
         style="stop-opacity:1;stop-color:#28465d" /></linearGradient><radialGradient
       id="radialGradient314"
       spreadMethod="pad"
       gradientTransform="matrix(85.271217,0,0,-85.271217,200.77783,375.15576)"
       gradientUnits="userSpaceOnUse"
       r="1"
       cy="0"
       cx="0"
       fy="0"
       fx="0"><stop
         id="stop316"
         offset="0"
         style="stop-opacity:1;stop-color:#3b5a75" /><stop
         id="stop318"
         offset="0.48420639"
         style="stop-opacity:1;stop-color:#ffffff" /><stop
         id="stop320"
         offset="0.708791"
         style="stop-opacity:1;stop-color:#ffffff" /><stop
         id="stop322"
         offset="0.77161332"
         style="stop-opacity:1;stop-color:#ffffff" /><stop
         id="stop324"
         offset="1"
         style="stop-opacity:1;stop-color:#ffffff" /></radialGradient></defs><g
     transform="matrix(1.25,0,0,-1.25,-148.84967,478.82888)"
     id="g10"><g
       id="g12"><g
         clip-path="url(#clipPath16)"
         id="g14"><g
           transform="translate(207.9893,382.9673)"
           id="g20"><path
             id="path22"
             style="fill:#0b1217;fill-opacity:1;fill-rule:evenodd;stroke:none"
             d="m 0,0 c 16.342,0.722 35.679,-2.533 39.281,-13.315 5.905,-17.672 -24.023,-43.44 -50.103,-56.088 -6.392,-3.101 -10.267,-3.952 -11.882,-3.741 -1.541,0.201 -1.778,1.637 -1.278,2.627 0.93,1.858 5.133,5.644 10.765,9.758 29.357,21.441 38.902,37.169 33.36,43.545 -3.556,4.081 -18.438,6.918 -33.891,6.918 -4.196,0 -15.22,-0.91 -16.352,2.721 C -31.023,-4.6 -16.226,-0.717 0,0" /></g><g
           transform="translate(171.4692,302.4141)"
           id="g24"><path
             id="path26"
             style="fill:#0b1217;fill-opacity:1;fill-rule:evenodd;stroke:none"
             d="m 0,0 c 13.581,0.71 30.079,-1.415 39.345,-7.769 4.607,-3.155 7.847,-8.965 5.97,-15.626 -5.347,-18.902 -25.309,-41.77 -69.665,-59.343 -14.105,-5.588 -25.194,-7.726 -27.522,-6.227 -2.503,1.611 4.771,14.085 6.961,18.226 7.081,13.408 15.928,26.464 24.552,38.416 3.178,4.399 8.08,12.027 12.521,11.417 3.975,-0.547 -0.682,-8.656 -3.745,-13.811 -5.145,-8.65 -19.319,-32.682 -14.643,-34.117 10.337,-3.178 58.836,29.889 51.685,48.305 -3.315,8.547 -24.373,9.361 -37.635,9.361 -6.032,0 -19.207,-1.277 -19.936,2.862 C -32.899,-4.486 -12.096,-0.641 0,0" /></g><g
           transform="translate(277.3437,324.7397)"
           id="g28"><path
             id="path30"
             style="fill:#0b1217;fill-opacity:1;fill-rule:evenodd;stroke:none"
             d="M 0,0 C 8.22,-1.342 14.918,-2.38 16.457,-5.517 18.183,-9.071 9.232,-9.286 4.721,-9.37 c -21.622,-0.379 -34.659,-0.762 -35.312,-7.402 -0.848,-8.548 9.24,-17.152 19.203,-29.22 9.101,-11.013 19.449,-21.881 16.465,-32.018 -3.717,-12.625 -20.843,-15.296 -37.149,-15.298 -15.62,-0.013 -30.417,2.252 -36.633,3.368 -7.742,1.382 -6.593,4.839 -4.526,5.951 2.302,1.242 15.467,1.273 24.616,1.763 7.53,0.401 29.396,0.391 32.804,5.453 4.182,6.196 -6.054,16.806 -15.453,27.914 -11.728,13.862 -24.611,28.171 -17.794,38.623 C -40.235,3.286 -14.425,2.358 0,0" /></g><g
           transform="translate(607.7842,285.4971)"
           id="g32"><path
             id="path34"
             style="fill:#0b4476;fill-opacity:1;fill-rule:nonzero;stroke:none"
             d="m 0,0 c 17.22,0 23.855,5.391 26.58,17.846 l 4.082,19.401 c 0.273,1.297 -0.576,1.691 -1.655,1.691 l -8.327,0 -2.288,-11.164 -1.31,-5.941 -1.092,-5.162 C 14.465,9.641 9.492,6.473 1.057,6.473 c -9.279,0 -11.762,3.09 -10.31,10.198 0,0 0.357,1.776 0.48,2.309 l 1.919,8.794 2.294,11.164 -8.331,0 c -1.078,0 -2.093,-0.394 -2.368,-1.691 L -19.353,17.846 C -22.147,4.164 -14.706,0 0,0 m -292.503,-21.043 c -1.246,-5.358 3.336,-7.948 12.648,-13.235 10.176,-5.777 12.503,-6.218 11.567,-9.264 -0.751,-2.453 -3.421,-2.555 -8.005,-2.555 l -18.135,0 c -2.059,0 -3.256,-0.774 -3.614,-2.459 l -0.728,-3.399 22.864,0 c 10.467,0 17.025,0.593 19.407,6.442 1.156,2.854 1.144,5.803 -1.68,8.718 -1.438,1.483 -3.561,2.786 -6.489,4.297 -13.07,6.757 -16.482,7.539 -15.656,10.812 0.467,1.841 1.857,1.909 6.772,1.909 l 15.329,0 c 2.068,0 3.265,0.775 3.623,2.458 l 0.755,3.549 -19.399,0 c -10.987,0 -17.586,-0.058 -19.259,-7.273 m 100.832,0 c -1.24,-5.358 3.341,-7.948 12.645,-13.235 10.189,-5.777 12.514,-6.218 11.57,-9.264 -0.754,-2.453 -3.423,-2.555 -8.005,-2.555 l -18.13,0 c -2.061,0 -3.26,-0.774 -3.618,-2.459 l -0.72,-3.399 22.862,0 c 10.465,0 17.021,0.593 19.398,6.442 1.17,2.854 1.156,5.803 -1.668,8.718 -1.447,1.483 -3.564,2.786 -6.501,4.297 -13.064,6.757 -16.474,7.539 -15.649,10.812 0.461,1.841 1.852,1.909 6.77,1.909 l 15.338,0 c 2.057,0 3.258,0.775 3.611,2.458 l 0.762,3.549 -19.402,0 c -10.989,0 -17.584,-0.058 -19.263,-7.273 m 255.543,0 c -1.238,-5.358 3.344,-7.948 12.638,-13.235 10.19,-5.777 12.518,-6.218 11.57,-9.264 -0.745,-2.453 -3.415,-2.555 -7.994,-2.555 l -18.136,0 c -2.062,0 -3.26,-0.774 -3.618,-2.459 l -0.72,-3.399 22.866,0 c 10.459,0 17.015,0.593 19.397,6.442 1.164,2.854 1.15,5.803 -1.676,8.718 -1.438,1.483 -3.564,2.786 -6.497,4.297 -13.061,6.757 -16.479,7.539 -15.647,10.812 0.455,1.841 1.857,1.909 6.773,1.909 l 15.335,0 c 2.057,0 3.253,0.775 3.611,2.458 l 0.761,3.549 -19.397,0 c -10.992,0 -17.587,-0.058 -19.266,-7.273 M -87.019,7.294 c 1.159,2.856 1.149,5.809 -1.679,8.718 -1.44,1.486 -3.559,2.785 -6.497,4.308 -13.065,6.757 -16.475,7.529 -15.654,10.804 0.465,1.835 1.861,1.911 6.782,1.911 l 15.325,0 c 2.066,0 3.263,0.772 3.624,2.451 l 0.752,3.568 -19.4,0 c -10.989,0 -17.585,-0.065 -19.268,-7.287 -1.236,-5.352 3.347,-7.949 12.65,-13.237 10.182,-5.776 12.505,-6.215 11.574,-9.268 -0.758,-2.453 -3.424,-2.55 -8.003,-2.55 l -18.131,0 c -2.066,0 -3.266,-0.775 -3.624,-2.458 l -0.717,-3.406 22.861,0 c 10.46,0 17.026,0.591 19.405,6.446 m -48.713,0 c 1.156,2.856 1.146,5.809 -1.673,8.718 -1.447,1.486 -3.568,2.785 -6.5,4.308 -13.074,6.757 -16.478,7.529 -15.65,10.804 0.459,1.835 1.847,1.911 6.777,1.911 l 15.321,0 c 2.067,0 3.266,0.772 3.618,2.451 l 0.766,3.568 -19.406,0 c -10.989,0 -17.583,-0.065 -19.259,-7.287 -1.244,-5.352 3.342,-7.949 12.642,-13.237 10.18,-5.776 12.509,-6.215 11.574,-9.268 -0.748,-2.453 -3.421,-2.55 -8.01,-2.55 l -18.121,0 c -2.069,0 -3.262,-0.775 -3.628,-2.458 l -0.72,-3.406 22.868,0 c 10.463,0 17.019,0.591 19.401,6.446 M 76.927,38.938 c -2.065,0 -3.229,-0.644 -3.537,-2.069 l -0.819,-3.845 16.395,0 -6.834,-32.176 7.351,0 c 2.068,0 3.272,0.775 3.68,2.71 l 6.269,29.466 13.681,0 c 1.941,0 2.619,0.783 2.956,2.334 l 0.753,3.58 -39.895,0 z m -357.208,-10.59 c -1.031,0 -1.81,-0.643 -1.946,-1.291 l -5.577,-26.209 24.665,0 c 13.813,0 23.387,4.694 26.376,19.289 2.228,10.863 -2.919,18.801 -16.992,18.801 l -29.828,0 c 0,0 -0.064,-0.27 -0.123,-0.494 -0.673,-2.562 -0.319,-5.39 4.396,-5.39 l 21.682,0 c 10.431,0 11.921,-4.772 9.837,-13.177 -2.047,-8.25 -5.616,-12.498 -13.446,-13.148 l -14.852,0 4.587,21.619 -8.779,0 z M 71.085,4.413 c 0.353,1.668 -0.286,2.316 -1.958,2.316 l -22.338,0 6.575,30.919 c 0.131,0.646 -0.379,1.29 -1.276,1.29 l -8.911,0 -8.093,-38.09 35.239,0 0.762,3.565 z m -66.512,-18.288 -9.432,0 -18.26,-14.844 -11.947,14.844 -9.425,0 c -1.547,0 -2.398,-0.898 -2.719,-2.45 l -7.575,-35.63 8.006,0 c 1.68,0 2.617,0.771 2.918,2.192 l 5.673,26.667 9.201,-12.008 c 0.271,-0.511 1.041,-1.16 2.197,-1.16 l 4.141,0 c 1.162,0 2.197,0.649 2.695,1.16 l 14.299,12.008 -5.673,-26.667 c -0.3,-1.421 0.308,-2.192 1.995,-2.192 l 7.998,0 7.584,35.63 c 0.32,1.552 -0.125,2.45 -1.676,2.45 m -99.759,-2.45 -7.568,-35.63 38.469,0 0.809,3.808 c 0.337,1.555 -0.078,2.071 -2.016,2.071 l -25.555,0 2.17,10.22 22.591,0 c 0.648,0 1.113,0.384 1.227,0.906 l 0.863,4.054 c 0.105,0.511 -0.2,0.905 -0.841,0.905 l -22.598,0 2.173,10.204 24.66,0 c 1.162,0 2.318,0 2.631,1.421 l 0.943,4.491 -34.725,0 c -1.806,0 -2.877,-0.765 -3.233,-2.45 m 114.23,0 -7.572,-35.63 38.481,0 0.8,3.808 c 0.333,1.555 -0.076,2.071 -2.008,2.071 l -25.562,0 2.172,10.22 22.59,0 c 0.648,0 1.118,0.384 1.221,0.906 l 0.868,4.054 c 0.11,0.511 -0.207,0.905 -0.84,0.905 l -22.595,0 2.166,10.204 24.662,0 c 1.167,0 2.321,0 2.621,1.421 l 0.955,4.491 -34.724,0 c -1.811,0 -2.87,-0.765 -3.235,-2.45 m -230.733,1.166 -3.694,-17.339 c -6.451,-1.814 -23.167,-5.129 -20.557,7.134 l 2.444,11.489 -8.786,0 c -1.035,0 -1.817,-0.635 -1.955,-1.284 l -2.217,-10.461 c -4.227,-19.884 16.36,-17.168 29.684,-13.43 l -2.744,-12.905 7.352,0 c 2.07,0 3.266,0.771 3.684,2.704 l 7.507,35.376 -8.903,0 c -0.901,0 -1.685,-0.635 -1.815,-1.284 m 109.901,-2.288 0.767,3.57 -39.891,0 c -2.067,0 -3.237,-0.641 -3.54,-2.061 l -0.821,-3.839 16.392,0 -6.83,-32.178 7.355,0 c 2.062,0 3.254,0.771 3.681,2.704 l 6.258,29.474 13.685,0 c 1.936,0 2.617,0.775 2.944,2.33 m -114.727,40.375 c 1.563,7.42 6.293,10.107 14.733,10.107 8.918,0 11.257,-3.061 9.805,-10.107 0,0 -0.365,-1.761 -0.49,-2.291 -0.175,-0.788 -0.57,-2.836 -2.882,-2.836 l -22.252,0 1.086,5.127 z m -12.564,-22.08 7.872,0 2.292,11.075 24.53,0 -2.289,-11.075 7.875,0 c 1.036,0 2.02,0.39 2.291,1.681 l 4.096,19.233 c 3.003,14.591 -6.003,17.69 -18.143,17.69 -14.545,0 -22.847,-3.34 -26.017,-17.69 l -4.089,-19.233 c -0.272,-1.291 0.545,-1.681 1.582,-1.681 m 165.56,22.08 c 1.569,7.42 6.291,10.107 14.732,10.107 8.922,0 11.255,-3.061 9.808,-10.107 0,0 -0.362,-1.761 -0.493,-2.291 -0.175,-0.788 -0.57,-2.836 -2.879,-2.836 l -22.257,0 1.089,5.127 z m -12.563,-22.08 7.874,0 2.297,11.075 24.523,0 -2.292,-11.075 7.879,0 c 1.033,0 2.021,0.39 2.293,1.681 l 4.087,19.233 c 3.016,14.591 -5.994,17.69 -18.135,17.69 -14.549,0 -22.851,-3.34 -26.023,-17.69 L -77.666,2.529 c -0.269,-1.291 0.543,-1.681 1.584,-1.681" /></g></g></g><g
       id="g36"><g
         clip-path="url(#clipPath40)"
         id="g38"><g
           id="g44"><g
             id="g46"><path
               id="path56"
               style="fill:url(#radialGradient48);stroke:none"
               d="m 207.989,382.281 c -16.336,-0.725 -30.248,-4.312 -29.436,-6.919 l 0,0 c 0.779,-2.532 7.229,-2.104 15.689,-2.104 l 0,0 c 15.452,0 30.716,-2.907 34.265,-6.989 l 0,0 c 6.053,-6.946 -3.585,-22.876 -33.735,-44.89 l 0,0 c -5.632,-4.108 -9.355,-7.203 -10.288,-9.069 l 0,0 c -0.421,-0.85 -0.129,-1.937 0.942,-2.002 l 0,0 c 2.084,-0.125 5.31,0.772 11.703,3.877 l 0,0 c 26.08,12.651 55.324,37.795 49.412,55.467 l 0,0 c -3.236,9.685 -18.575,12.742 -33.507,12.742 l 0,0 c -1.692,0 -3.381,-0.039 -5.045,-0.113" /></g></g></g></g><g
       id="g58"><g
         clip-path="url(#clipPath62)"
         id="g60"><g
           id="g66"><g
             id="g68"><path
               id="path80"
               style="fill:url(#radialGradient70);stroke:none"
               d="m 228.729,314.192 c -6.614,-10.142 6.26,-24.335 17.729,-37.896 l 0,0 c 9.677,-11.435 19.899,-22.3 15.627,-28.643 l 0,0 c -3.407,-5.062 -25.827,-5.423 -33.356,-5.831 l 0,0 c -9.15,-0.495 -21.894,-0.246 -24.2,-1.487 l 0,0 c -1.421,-0.763 -3.242,-3.646 4.59,-5.052 l 0,0 c 6.516,-1.168 20.533,-3.276 35.846,-3.266 l 0,0 c 15.316,0.002 33.233,2.269 36.977,14.991 l 0,0 c 2.776,9.457 -7.068,20.101 -16.369,31.365 l 0,0 c -9.968,12.063 -20.363,21.154 -19.512,29.697 l 0,0 c 0.682,6.916 14.008,7.548 35.652,7.928 l 0,0 c 2.913,0.05 13.08,-0.094 11.5,3.155 l 0,0 c -1.162,2.376 -7.148,3.546 -15.179,4.858 l 0,0 c -4.988,0.816 -11.365,1.51 -17.941,1.51 l 0,0 c -12.441,0 -25.59,-2.485 -31.364,-11.329" /></g></g></g></g><g
       id="g82"><g
         clip-path="url(#clipPath86)"
         id="g84"><g
           id="g90"><g
             id="g92"><path
               id="path104"
               style="fill:url(#radialGradient94);stroke:none"
               d="m 171.469,301.791 c -13.581,-0.712 -32.062,-5.013 -31.554,-7.436 l 0,0 c 0.651,-3.689 14.529,-2.483 19.379,-2.483 l 0,0 c 13.436,-0.004 34.832,-0.91 38.329,-9.917 l 0,0 c 7.095,-18.277 -41.396,-52.406 -52.794,-48.895 l 0,0 c -5.453,1.674 9.839,26.945 14.571,34.916 l 0,0 c 3,5.035 7.105,12.594 3.99,13.01 l 0,0 c -3.798,0.521 -9.314,-7.823 -11.76,-11.205 l 0,0 c -8.623,-11.952 -17.266,-24.698 -24.352,-38.107 l 0,0 c -2.187,-4.14 -9.458,-16.134 -6.959,-17.742 l 0,0 c 1.775,-1.132 12.702,0.884 26.8,6.469 l 0,0 c 44.357,17.578 63.867,40.17 69.215,59.076 l 0,0 c 1.82,6.421 -2.123,12.083 -5.862,14.652 l 0,0 c -8.099,5.551 -21.46,7.799 -33.766,7.799 l 0,0 c -1.773,0 -3.526,-0.047 -5.237,-0.137" /></g></g></g></g><g
       id="g106"><g
         id="g108"><g
           id="g114"><g
             id="g116"><path
               id="path128"
               style="fill:url(#radialGradient118);stroke:none"
               d="m 207.989,382.281 c -16.336,-0.725 -30.248,-4.312 -29.436,-6.919 l 0,0 c 0.323,-1.057 9.807,-0.43 16.416,-0.43 l 0,0 c 21.615,0 33.896,-0.553 39.926,-7.489 l 0,0 c 6.086,-6.988 -7.133,-24.324 -37.188,-46.578 l 0,0 c -5.868,-4.335 -11.152,-7.741 -12.369,-8.994 l 0,0 c -0.59,-0.605 -0.854,-1.502 0.088,-1.563 l 0,0 c 1.689,-0.108 4.695,0.469 11.703,3.877 l 0,0 c 26.08,12.651 55.324,37.795 49.412,55.467 l 0,0 c -3.236,9.685 -18.575,12.742 -33.507,12.742 l 0,0 c -1.692,0 -3.381,-0.039 -5.045,-0.113" /></g></g></g></g><g
       id="g130"><g
         id="g132"><g
           id="g138"><g
             id="g140"><path
               id="path154"
               style="fill:url(#radialGradient142);stroke:none"
               d="m 228.729,314.192 c -6.614,-10.142 7.603,-25.398 19.819,-38.289 l 0,0 c 10.282,-10.85 22.631,-23.092 18.169,-29.709 l 0,0 C 262.445,239.853 237.675,239.923 229.28,240 l 0,0 c -9.537,0.107 -22.192,0.208 -24.751,-0.353 l 0,0 c -0.845,-0.188 -1.387,-1.044 -1.16,-1.632 l 0,0 c 0.369,-0.988 1.886,-2.04 5.75,-2.732 l 0,0 c 6.516,-1.168 20.533,-3.276 35.846,-3.266 l 0,0 c 15.316,0.002 33.233,2.269 36.977,14.991 l 0,0 c 2.882,9.793 -8.496,22.128 -19.078,33.788 l 0,0 c -10.524,11.588 -20.937,19.554 -20.089,28.101 l 0,0 c 0.713,7.193 12.739,8.537 35.51,8.519 l 0,0 c 11.751,-0.007 15.974,-0.399 14.928,1.737 l 0,0 c -1.162,2.376 -7.148,3.546 -15.179,4.858 l 0,0 c -4.988,0.816 -11.365,1.51 -17.941,1.51 l 0,0 c -12.441,0 -25.59,-2.485 -31.364,-11.329" /></g></g></g></g><g
       id="g156"><g
         id="g158"><g
           id="g164"><g
             id="g166"><path
               id="path184"
               style="fill:url(#radialGradient168);stroke:none"
               d="m 171.469,301.791 c -13.581,-0.712 -32.062,-5.013 -31.554,-7.436 l 0,0 c 0.336,-1.938 11.606,-0.272 21.036,-0.272 l 0,0 c 15.069,-0.002 37.935,-0.405 42.151,-11.256 l 0,0 c 7.983,-20.553 -49.305,-58.747 -62.238,-54.031 l 0,0 c -5.788,2.113 8.901,26.618 17.154,39.18 l 0,0 c 3.222,4.899 8.487,12.594 5.372,13.01 l 0,0 c -3.798,0.521 -9.314,-7.823 -11.76,-11.205 l 0,0 c -8.623,-11.952 -17.266,-24.698 -24.352,-38.107 l 0,0 c -2.187,-4.14 -9.458,-16.134 -6.959,-17.742 l 0,0 c 1.775,-1.132 12.702,0.884 26.8,6.469 l 0,0 c 44.357,17.578 63.867,40.17 69.215,59.076 l 0,0 c 1.82,6.421 -2.123,12.083 -5.862,14.652 l 0,0 c -8.099,5.551 -21.46,7.799 -33.766,7.799 l 0,0 c -1.773,0 -3.526,-0.047 -5.237,-0.137" /></g></g></g></g><g
       id="g186"><g
         id="g188"><g
           id="g194"><g
             id="g196"><path
               id="path214"
               style="fill:url(#linearGradient198);stroke:none"
               d="m 127.278,231.674 c -2.187,-4.14 -9.458,-16.134 -6.959,-17.742 l 0,0 c 1.775,-1.132 12.702,0.884 26.8,6.469 l 0,0 c 7.636,3.024 14.517,6.204 20.735,9.486 l 0,0 -8.843,3.345 c -7.851,-3.832 -14.636,-5.717 -18.147,-4.436 l 0,0 c -2.29,0.835 -1.367,5.181 1.085,10.9 l 0,0 -8.33,3.154 c -2.214,-3.675 -4.345,-7.396 -6.341,-11.176" /></g></g></g></g><g
       id="g216"><g
         id="g218"><g
           id="g224"><g
             id="g226"><path
               id="path240"
               style="fill:url(#linearGradient228);stroke:none"
               d="m 248.475,275.903 c 10.281,-10.85 22.665,-23.052 18.209,-29.676 l 0,0 c -4.272,-6.34 -29.009,-6.304 -37.407,-6.22 l 0,0 c -9.534,0.1 -22.189,0.201 -24.754,-0.36 l 0,0 c -0.739,-0.161 -1.241,-0.842 -1.21,-1.403 l 0,0 c -0.027,0.546 0.471,1.137 1.21,1.302 l 0,0 c 2.565,0.548 15.945,-0.091 25.481,-0.196 l 0,0 c 9.008,-0.094 33.173,-0.685 38.065,6.572 l 0,0 c 4.455,6.618 -7.169,18.445 -17.448,29.288 l 0,0 c -12.007,12.667 -28.718,28.513 -21.892,38.982 l 0,0 c -6.614,-10.142 7.534,-25.398 19.746,-38.289" /></g></g></g></g><g
       id="g242"><g
         id="g244"><g
           id="g250"><g
             id="g252"><path
               id="path268"
               style="fill:url(#linearGradient254);stroke:none"
               d="m 140.044,294.125 c 1.229,-1.553 11.901,-0.107 20.901,-0.107 l 0,0 c 15.072,0 37.914,-0.374 42.127,-11.232 l 0,0 c 7.98,-20.54 -49.275,-58.708 -62.208,-53.99 l 0,0 c -5.788,2.113 8.901,26.542 17.154,39.11 l 0,0 c 3.212,4.889 8.452,12.618 5.399,13.076 l 0,0 c 3.043,-0.466 -3.916,-9.503 -7.12,-14.388 l 0,0 c -7.662,-11.66 -22.847,-34.949 -16.51,-38.525 l 0,0 c 12.282,-6.931 72.39,34.417 64.353,55.097 l 0,0 c -4.217,10.854 -25.354,11.85 -40.434,11.852 l 0,0 c -8.996,0 -22.208,-2.368 -23.662,-0.893 m 23.373,-13.143 c -0.009,0.002 -0.018,0.003 -0.027,0.004 l 0,0 c 0.009,-10e-4 0.018,-0.002 0.027,-0.004" /></g></g></g></g><g
       id="g270"><g
         id="g272"><g
           id="g278"><g
             id="g280"><path
               id="path300"
               style="fill:url(#linearGradient282);stroke:none"
               d="m 277.393,318.04 c -22.924,0.627 -35.092,-0.292 -35.966,-9.143 l 0,0 c -0.851,-8.547 10.913,-17.554 21.437,-29.14 l 0,0 c 9.579,-10.561 19.808,-20.816 19.52,-29.926 l 0,0 c 0.305,9.273 -9.899,20.401 -19.493,30.965 l 0,0 c -10.442,11.5 -20.778,19.727 -19.946,28.101 l 0,0 c 0.706,7.101 12.669,8.465 35.34,8.456 l 0,0 c 11.751,-0.008 15.974,-0.336 14.928,1.8 l 0,0 c 1.154,-2.381 -5.519,-1.385 -15.82,-1.113" /></g></g></g></g><g
       id="g302"><g
         id="g304"><g
           id="g310"><g
             id="g312"><path
               id="path326"
               style="fill:url(#radialGradient314);stroke:none"
               d="m 196.905,375.553 c -6.591,-0.151 -17.962,-1.234 -18.362,-0.2 l 0,0 c 0.389,-1.037 9.831,-0.525 16.426,-0.525 l 0,0 c 21.615,0 33.789,-0.48 39.82,-7.418 l 0,0 c 6.083,-6.99 -7.027,-24.29 -37.091,-46.545 l 0,0 c -5.859,-4.335 -11.143,-7.741 -12.36,-8.992 l 0,0 c 1.217,1.251 7.14,4.18 13.055,8.443 l 0,0 c 30.931,22.293 43.51,40.084 37.918,47.474 l 0,0 c -4.409,5.824 -14.888,7.848 -32.654,7.848 l 0,0 c -2.144,0 -4.393,-0.029 -6.752,-0.085 m -18.362,-0.2 c -0.001,0.003 -0.002,0.006 -0.003,0.009 l 0,0 c 0.001,-0.003 0.002,-0.006 0.003,-0.009" /></g></g></g></g></g></svg>