<?xml version="1.0" encoding="UTF-8" standalone="no"?>
<svg
   xmlns:dc="http://purl.org/dc/elements/1.1/"
   xmlns:cc="http://creativecommons.org/ns#"
   xmlns:rdf="http://www.w3.org/1999/02/22-rdf-syntax-ns#"
   xmlns:svg="http://www.w3.org/2000/svg"
   xmlns="http://www.w3.org/2000/svg"
   viewBox="0 0 170.3125 110.25"
   height="110.25"
   width="170.3125"
   xml:space="preserve"
   version="1.1"
   id="svg2"><metadata
     id="metadata8"><rdf:RDF><cc:Work
         rdf:about=""><dc:format>image/svg+xml</dc:format><dc:type
           rdf:resource="http://purl.org/dc/dcmitype/StillImage" /><dc:title></dc:title></cc:Work></rdf:RDF></metadata><defs
     id="defs6" /><g
     transform="matrix(1.25,0,0,-1.25,0,110.25)"
     id="g10"><g
       transform="scale(0.1,0.1)"
       id="g12"><path
         id="path14"
         style="fill:#1a67bb;fill-opacity:1;fill-rule:evenodd;stroke:none"
         d="m 738.906,667.512 -165.808,0 0,79.258 c 54.953,0 109.89,0 165.007,0 22.969,0.222 37.442,-3.391 53.946,-17.5 11.875,-10.872 12.89,-33.403 0,-46.266 -14.473,-11.875 -32.403,-15.492 -53.145,-15.492 l 0,0 z m 294.204,214.5 -1033.11,0 0,-529.844 572.289,0 0,187.562 123.371,0 c 51.899,0 106.625,-26.996 106.86,-94.382 l 0,-93.18 560,0 c 0,142.262 -69.2,216.32 -220.31,250.133 58.36,6.238 114.56,7.957 158.75,43.691 40.67,32.887 68.88,118.258 -11,185.848 -56.17,44.269 -145.58,50.172 -256.85,50.172 l 0,0" /><path
         id="path16"
         style="fill:#a9afb3;fill-opacity:1;fill-rule:evenodd;stroke:none"
         d="m 0,307.91 1362.52,0 L 1362.52,0 0,0 0,307.91" /><path
         id="path18"
         style="fill:#a9afb3;fill-opacity:1;fill-rule:evenodd;stroke:none"
         d="m 73.4531,882.012 43.4649,0 0,-529.844 -43.4649,0 0,529.844" /><path
         id="path20"
         style="fill:#ffffff;fill-opacity:1;fill-rule:nonzero;stroke:none"
         d="m 961.785,84.5625 -26.004,0 0,137.1955 27.461,0.027 c 0,0 58.548,-1.91 58.548,-69.051 0,-67.1285 -60.005,-68.1715 -60.005,-68.1715 z m -7.527,176.9805 -60.977,0 0,-216.8047 57.586,0 c 0,0 115.483,-3.3789 115.483,107.9957 0,113.262 -112.092,108.809 -112.092,108.809" /><path
         id="path22"
         style="fill:#ffffff;fill-opacity:1;fill-rule:nonzero;stroke:none"
         d="m 1192.8,83.0352 c -38.33,0 -69.41,31.0778 -69.41,69.4258 0,38.332 31.08,69.406 69.41,69.406 38.34,0 69.43,-31.074 69.43,-69.406 0,-38.348 -31.09,-69.4258 -69.43,-69.4258 z m -0.52,181.3128 c -61.81,0 -111.91,-50.11 -111.91,-111.887 0,-61.7969 50.1,-111.8946 111.91,-111.8946 61.78,0 111.88,50.0977 111.88,111.8946 0,61.777 -50.1,111.887 -111.88,111.887" /><path
         id="path24"
         style="fill:#ffffff;fill-opacity:1;fill-rule:nonzero;stroke:none"
         d="m 477.996,108.848 c -0.101,-0.125 -0.199,-0.254 -0.301,-0.379 -12.722,-15.5198 -32.066,-25.4338 -53.707,-25.4338 -38.343,0 -69.422,31.0778 -69.422,69.4258 0,38.332 31.079,69.406 69.422,69.406 21.563,0 40.832,-9.824 53.567,-25.265 l 0.429,53.586 c -16.129,9.023 -34.73,14.16 -54.539,14.16 -61.789,0 -111.89,-50.11 -111.89,-111.887 0,-61.7969 50.101,-111.8946 111.89,-111.8946 19.852,0 38.493,5.168 54.645,14.2305 l -0.094,54.0511" /><path
         id="path26"
         style="fill:#ffffff;fill-opacity:1;fill-rule:evenodd;stroke:none"
         d="m 247.555,44.8164 44.8047,0 0,216.727 -44.8047,0 0,-216.727 z" /><path
         id="path28"
         style="fill:#ffffff;fill-opacity:1;fill-rule:nonzero;stroke:none"
         d="m 570.68,122.637 30.175,80.683 30.028,-80.683 -60.203,0 z m 52.496,139.093 -43.602,0 -84.945,-216.7495 46.633,0 17.035,43.3984 82.516,0 17.816,-43.3984 46.039,0 -81.492,216.7495" /><path
         id="path30"
         style="fill:#ffffff;fill-opacity:1;fill-rule:nonzero;stroke:none"
         d="m 777.969,163.195 c -9.524,0 -16.328,0 -16.328,0 l 0,61.621 c 0,0 7.168,0.067 15.898,0.067 8.691,0 17.988,-0.567 25.441,-6.395 14.559,-11.418 10.575,-37.636 0.536,-48.39 -5.176,-5.547 -16.121,-6.903 -25.547,-6.903 z M 877.645,43.3398 810.137,132.754 c 0,0 48.996,2.156 46.23,69.023 -2.265,55.266 -42.976,58.34 -94.25,58.34 l -43.316,-0.027 0,-216.8478 43.316,0 -0.015,89.8948 60.808,-89.7972 54.735,0" /><path
         id="path32"
         style="fill:#ffffff;fill-opacity:1;fill-rule:nonzero;stroke:none"
         d="m 134.48,163.195 c -9.515,0 -16.335,0 -16.335,0 l 0,61.621 c 0,0 7.168,0.067 15.902,0.067 8.687,0 17.984,-0.567 25.433,-6.395 14.563,-11.418 10.579,-37.636 0.54,-48.39 -5.165,-5.547 -16.125,-6.903 -25.54,-6.903 z M 234.156,43.3398 166.641,132.754 c 0,0 48.996,2.156 46.242,69.023 -2.27,55.266 -42.977,58.34 -94.25,58.34 l -43.3244,-0.027 0,-216.8478 43.3244,0 -0.028,89.8948 60.809,-89.7972 54.742,0" /></g></g></svg>