<?xml version="1.0" encoding="UTF-8" standalone="no"?>
<svg
   xmlns:dc="http://purl.org/dc/elements/1.1/"
   xmlns:cc="http://creativecommons.org/ns#"
   xmlns:rdf="http://www.w3.org/1999/02/22-rdf-syntax-ns#"
   xmlns:svg="http://www.w3.org/2000/svg"
   xmlns="http://www.w3.org/2000/svg"
   viewBox="0 0 593.75 106.25"
   height="106.25"
   width="593.75"
   xml:space="preserve"
   version="1.1"
   id="svg2"><metadata
     id="metadata8"><rdf:RDF><cc:Work
         rdf:about=""><dc:format>image/svg+xml</dc:format><dc:type
           rdf:resource="http://purl.org/dc/dcmitype/StillImage" /><dc:title></dc:title></cc:Work></rdf:RDF></metadata><defs
     id="defs6"><clipPath
       id="clipPath18"
       clipPathUnits="userSpaceOnUse"><path
         id="path20"
         d="m 0,0 4748.27,0 0,850 L 0,850 0,0 Z" /></clipPath></defs><g
     transform="matrix(1.25,0,0,-1.25,0,106.25)"
     id="g10"><g
       transform="scale(0.1,0.1)"
       id="g12"><g
         id="g14"><g
           clip-path="url(#clipPath18)"
           id="g16"><path
             id="path22"
             style="fill:#23459b;fill-opacity:1;fill-rule:nonzero;stroke:none"
             d="m 1111.02,792.219 80.12,0 0,-234.914 c -0.42,-15.524 4.19,-26.844 21.81,-26.844 15.52,0 21.82,9.227 21.82,26.844 l 0,234.914 80.12,0 0,-227.364 c 0,-53.273 -26.85,-94.382 -102.36,-94.382 -62.5,0 -101.51,29.781 -101.51,94.382 l 0,227.364" /><path
             id="path24"
             style="fill:#23459b;fill-opacity:1;fill-rule:nonzero;stroke:none"
             d="m 1426.04,712.516 1.68,-20.977 1.26,0 c 6.71,9.649 24.75,28.524 55.37,28.524 39.01,0 59.15,-28.106 59.15,-62.079 0,-25.589 0,-179.961 0,-179.961 l -75.93,0 c 0,0 0,151.434 0,164.02 0.42,12.582 -7.55,18.875 -15.94,18.875 -7.55,0 -16.78,-6.293 -16.78,-18.035 l 0,-164.86 -75.5,0 0,234.493 66.69,0" /><path
             id="path26"
             style="fill:#23459b;fill-opacity:1;fill-rule:nonzero;stroke:none"
             d="m 1588.37,712.934 77.19,0 0,-234.911 -77.19,0 0,234.911 z m 0,79.703 77.19,0 0,-56.629 -77.19,0 0,56.629" /><path
             id="path28"
             style="fill:#23459b;fill-opacity:1;fill-rule:nonzero;stroke:none"
             d="m 1694.08,665.531 0,49.078 21.81,0 0,67.961 76.77,0 0,-67.961 32.3,0 0,-49.078 -32.3,0 0,-119.551 c 0,-13.425 8.39,-20.554 20.97,-20.554 5.04,-0.422 11.33,0 11.33,0 l 0,-49.082 c 0,0 -35.66,0 -43.21,0 -41.53,0 -65.86,22.656 -65.86,60.41 l 0,128.777 -21.81,0" /><path
             id="path30"
             style="fill:#23459b;fill-opacity:1;fill-rule:nonzero;stroke:none"
             d="m 1952.06,626.52 0,27.265 c 0,9.649 -7.97,15.942 -16.36,15.942 -9.65,0 -16.36,-7.129 -16.36,-16.36 0,-2.937 0,-15.101 0,-26.847 l 32.72,0 z m 70.05,-67.536 0,-8.386 c -0.84,-47.407 -27.69,-79.703 -86.41,-79.703 -54.12,0 -87.25,27.265 -87.25,80.535 l 0,88.09 c 0,53.277 33.13,80.543 87.25,80.543 59.56,0 86.83,-32.297 86.83,-80.543 l 0,-59.985 -103.19,0 0,-41.945 c 0,-8.813 6.71,-16.36 16.36,-16.36 8.39,0 16.36,6.708 16.36,16.36 l 0,21.394 70.05,0" /><path
             id="path32"
             style="fill:#23459b;fill-opacity:1;fill-rule:nonzero;stroke:none"
             d="m 2137.05,540.527 c 0,-12.589 7.54,-18.039 16.35,-18.039 7.55,0 16.79,5.45 16.79,17.2 l 0,113.261 c 0,12.164 -9.24,17.196 -16.79,17.196 -8.39,0 -16.35,-5.454 -16.35,-17.618 0.41,-12.586 0,-112 0,-112 z m 106.54,252.528 0,-314.614 -65.02,0 -1.26,18.457 -1.68,0 c -3.77,-6.293 -18.87,-25.585 -52.43,-25.585 -38.59,0 -59.57,26.847 -59.57,66.277 l 0,117.453 c 0,39.855 23.91,65.441 58.31,65.441 27.69,0 41.95,-12.586 46.99,-16.359 l 0.42,0 0,88.93 74.24,0" /><path
             id="path34"
             style="fill:#23459b;fill-opacity:1;fill-rule:nonzero;stroke:none"
             d="m 2374.46,793.055 191.28,0 0,-62.922 -54.95,0 0,-251.27 -83.48,0 0,251.27 -52.85,0 0,62.922" /><path
             id="path36"
             style="fill:#23459b;fill-opacity:1;fill-rule:nonzero;stroke:none"
             d="m 2655.93,626.52 0,27.265 c 0,9.649 -7.97,15.942 -16.36,15.942 -9.65,0 -16.36,-7.129 -16.36,-16.36 0,-2.937 0,-15.101 0,-26.847 l 32.72,0 z m 70.05,-67.536 0,-8.386 c -0.84,-47.407 -27.68,-79.703 -86.41,-79.703 -54.12,0 -87.26,27.265 -87.26,80.535 l 0,88.09 c 0,53.277 33.14,80.543 87.26,80.543 59.57,0 86.83,-32.297 86.83,-80.543 l 0,-59.985 -103.19,0 0,-41.945 c 0,-8.813 6.71,-16.36 16.36,-16.36 8.39,0 16.36,6.708 16.36,16.36 l 0,21.394 70.05,0" /><path
             id="path38"
             style="fill:#23459b;fill-opacity:1;fill-rule:nonzero;stroke:none"
             d="m 2949.98,568.633 0,-17.203 c 0,-48.239 -31.88,-80.535 -91.45,-80.535 -54.12,0 -91.45,27.265 -91.45,80.535 l 0,88.09 c 0,53.277 37.33,80.543 91.45,80.543 59.57,0 91.45,-32.297 91.45,-80.543 l 0,-14.676 -75.93,0 0,28.105 c 0,9.649 -7.13,15.52 -15.52,15.52 -9.65,0 -15.94,-6.711 -15.94,-15.52 0,-11.75 0,-114.941 0,-114.941 0,-8.809 6.29,-15.52 15.94,-15.52 8.39,0 15.52,5.871 15.52,15.52 l 0,30.625 75.93,0" /><path
             id="path40"
             style="fill:#23459b;fill-opacity:1;fill-rule:nonzero;stroke:none"
             d="m 3064.07,793.055 0,-93.543 0.42,0 c 7.97,8.808 25.17,21.39 49.08,21.39 41.53,0 58.73,-28.523 58.73,-62.504 0.42,-25.585 0,-179.117 0,-179.117 l -75.51,0 c 0,0 0,151.434 0,164.02 0,12.164 -7.55,18.457 -15.94,18.457 -7.55,0 -16.78,-5.875 -16.78,-17.617 0,-9.231 0,-164.86 0,-164.86 l -75.51,0 0,313.774 75.51,0" /><path
             id="path42"
             style="fill:#23459b;fill-opacity:1;fill-rule:nonzero;stroke:none"
             d="m 3285.98,712.516 1.67,-20.977 1.26,0 c 6.72,9.649 24.75,28.524 55.37,28.524 39.02,0 59.15,-28.106 59.15,-62.079 0,-25.589 0,-179.961 0,-179.961 l -75.93,0 c 0,0 0,151.434 0,164.02 0.42,12.582 -7.55,18.875 -15.94,18.875 -7.55,0 -16.77,-6.293 -16.77,-18.035 l 0,-164.86 -75.51,0 0,234.493 66.7,0" /><path
             id="path44"
             style="fill:#23459b;fill-opacity:1;fill-rule:nonzero;stroke:none"
             d="m 3516.69,538.008 c 0,-8.809 7.55,-16.36 17.2,-15.938 8.39,0 17.2,6.289 17.2,15.938 0,0 0,99.418 0,114.941 0,9.649 -8.81,16.36 -17.2,16.36 -9.65,0 -17.2,-7.129 -17.2,-15.942 0,-11.746 0,-115.359 0,-115.359 z m -73.41,101.512 c 0,53.277 36.5,80.543 90.61,80.543 59.57,0 91.03,-32.297 91.03,-80.543 l 0,-88.09 c 0,-48.239 -31.04,-80.535 -91.03,-80.535 -53.69,0 -90.61,26.843 -90.61,80.117 l 0,88.508" /><path
             id="path46"
             style="fill:#23459b;fill-opacity:1;fill-rule:nonzero;stroke:none"
             d="m 3666.03,478.863 77.5977,0 0,314.191 -77.5977,0 0,-314.191 z" /><path
             id="path48"
             style="fill:#23459b;fill-opacity:1;fill-rule:nonzero;stroke:none"
             d="m 3858.98,538.008 c 0,-8.809 7.55,-16.36 17.2,-15.938 8.39,0 17.2,6.289 17.2,15.938 0,0 0,99.418 0,114.941 0,9.649 -8.81,16.36 -17.2,16.36 -9.65,0 -17.2,-7.129 -17.2,-15.942 0,-11.746 0,-115.359 0,-115.359 z m -73.4,101.512 c 0,53.277 36.49,80.543 90.6,80.543 59.57,0 91.04,-32.297 91.04,-80.543 l 0,-88.09 c 0,-48.239 -31.05,-80.535 -91.04,-80.535 -53.69,0 -90.6,26.843 -90.6,80.117 l 0,88.508" /><path
             id="path50"
             style="fill:#23459b;fill-opacity:1;fill-rule:nonzero;stroke:none"
             d="m 4082.98,551.012 c 0,-12.164 7.56,-17.617 15.95,-17.617 7.54,0 16.35,5.453 16.35,17.203 l 0,101.511 c 0,11.743 -8.81,17.2 -16.35,17.2 -8.81,0 -15.95,-5.457 -15.95,-18.039 0,0 0,-87.672 0,-100.258 z m 0.42,-79.699 0,-4.614 c 0,-8.812 6.3,-15.527 15.53,-15.527 8.38,0 15.93,5.879 15.93,15.527 l 0,38.168 -0.42,0 c -8.39,-7.129 -23.48,-15.515 -46.56,-15.515 -36.91,0 -57.89,24.324 -57.89,63.339 0,25.168 0,102.774 0,102.774 0,37.332 20.56,65.019 58.73,65.019 34.4,0 48.24,-20.132 52.43,-25.168 l 1.68,0 1.26,18.039 64.18,0 0,-231.558 c 0,-47.813 -23.06,-79.707 -89.34,-79.707 -57.05,0 -88.1,25.176 -88.94,69.223 l 73.41,0" /><path
             id="path52"
             style="fill:#23459b;fill-opacity:1;fill-rule:nonzero;stroke:none"
             d="m 4236.09,712.934 77.18,0 0,-234.911 -77.18,0 0,234.911 z m 0,79.703 77.18,0 0,-56.629 -77.18,0 0,56.629" /><path
             id="path54"
             style="fill:#23459b;fill-opacity:1;fill-rule:nonzero;stroke:none"
             d="m 4460.51,626.52 0,27.265 c 0,9.649 -7.97,15.942 -16.37,15.942 -9.65,0 -16.36,-7.129 -16.36,-16.36 0,-2.937 0,-15.101 0,-26.847 l 32.73,0 z m 70.05,-67.536 0,-8.386 c -0.84,-47.407 -27.69,-79.703 -86.42,-79.703 -54.11,0 -87.25,27.265 -87.25,80.535 l 0,88.09 c 0,53.277 33.14,80.543 87.25,80.543 59.57,0 86.84,-32.297 86.84,-80.543 l 0,-59.985 -103.2,0 0,-41.945 c 0,-8.813 6.71,-16.36 16.36,-16.36 8.4,0 16.37,6.708 16.37,16.36 l 0,21.394 70.05,0" /><path
             id="path56"
             style="fill:#23459b;fill-opacity:1;fill-rule:nonzero;stroke:none"
             d="m 4741.56,637.426 -68.8,0 c 0,0 0,2.933 0,5.875 0,3.355 0,6.711 0,8.387 0,5.035 -1.68,10.07 -4.62,13.843 -3.35,3.778 -8.38,6.293 -15.09,6.293 -6.71,0 -11.75,-2.097 -14.68,-5.031 -2.94,-2.941 -4.2,-6.715 -4.2,-10.488 0,-8.809 6.29,-15.524 16.36,-21.813 10.07,-5.875 23.07,-11.75 36.07,-18.043 16.79,-7.969 32.31,-15.937 43.63,-26.426 11.33,-10.906 18.04,-24.75 18.04,-44.46 0,-24.75 -10.07,-43.629 -26.84,-56.211 -17.21,-12.168 -40.7,-18.457 -67.96,-18.457 -29.37,0 -52.43,7.546 -67.54,20.968 -15.52,13.844 -23.91,33.563 -23.91,58.313 l 0,8.808 69.63,0 c 0,0 0,-3.773 0,-7.972 0,-4.617 0,-9.231 0,-10.907 0,-5.453 1.68,-10.906 5.04,-14.679 3.77,-3.778 9.23,-6.293 16.78,-6.293 6.29,0 11.32,2.097 14.67,5.453 3.36,3.352 5.46,7.969 5.46,13.422 0,7.555 -3.78,13.844 -10.9,19.719 -7.55,5.871 -18.88,11.328 -33.98,17.617 -20.98,7.972 -36.49,16.781 -46.56,28.523 -10.49,11.328 -15.95,26.012 -15.95,45.723 0,24.332 10.49,41.949 26.85,53.695 15.94,11.324 37.75,16.778 60.83,16.778 23.9,0 46.14,-5.454 62.08,-17.618 15.94,-12.164 25.59,-31.039 25.59,-58.722 l 0,-6.297" /><path
             id="path58"
             style="fill:#23459b;fill-opacity:1;fill-rule:nonzero;stroke:none"
             d="m 1187.93,260.203 13.43,0 c 22.23,0 31.88,16.777 31.88,40.266 0,18.457 -7.55,38.594 -31.46,38.594 l -13.85,0 0,-78.86 z m 0,-180.3788 -79.7,0 0,314.6098 107.81,0 c 60.41,0 90.61,-24.329 90.61,-86.829 0,-33.562 -7.97,-57.468 -39.01,-71.738 l 0,-0.84 c 20.55,-4.605 39.43,-18.875 40.69,-40.679 2.09,-25.176 2.51,-79.289 6.7,-99.4261 1.68,-4.1914 3.78,-7.9688 7.14,-10.8985 l 0,-4.1992 -84.74,0 c -2.1,5.8672 -3.77,11.7461 -4.19,18.0352 -1.26,27.6876 0.42,53.6956 -1.68,72.9926 -2.1,19.293 -7.97,31.882 -25.17,33.14 l -18.46,0 0,-124.1678" /><path
             id="path60"
             style="fill:#23459b;fill-opacity:1;fill-rule:nonzero;stroke:none"
             d="m 1451.78,227.898 0,27.27 c 0,9.645 -7.97,15.945 -16.36,15.945 -9.64,0 -16.36,-7.136 -16.36,-16.367 0,-2.93 0,-15.098 0,-26.848 l 32.72,0 z m 70.06,-67.539 0,-8.386 c -0.84,-47.403 -27.69,-79.6996 -86.42,-79.6996 -54.11,0 -87.25,27.2696 -87.25,80.5396 l 0,88.093 c 0,53.274 33.14,80.539 87.25,80.539 59.57,0 86.84,-32.297 86.84,-80.539 l 0,-59.988 -103.2,0 0,-41.941 c 0,-8.809 6.72,-16.372 16.36,-16.372 8.39,0 16.36,6.719 16.36,16.372 l 0,21.382 70.06,0" /><path
             id="path62"
             style="fill:#23459b;fill-opacity:1;fill-rule:nonzero;stroke:none"
             d="m 1732.83,238.809 -68.8,0 c 0,0 0,2.937 0,5.871 0,3.355 0,6.715 0,8.386 0,5.039 -1.68,10.071 -4.61,13.848 -3.36,3.777 -8.39,6.289 -15.1,6.289 -6.72,0 -11.75,-2.09 -14.69,-5.027 -2.93,-2.942 -4.19,-6.711 -4.19,-10.488 0,-8.809 6.29,-15.52 16.36,-21.821 10.07,-5.867 23.07,-11.734 36.08,-18.035 16.77,-7.969 32.3,-15.937 43.62,-26.426 11.33,-10.91 18.04,-24.746 18.04,-44.465 0,-24.753 -10.07,-43.628 -26.85,-56.2105 -17.2,-12.168 -40.69,-18.4571 -67.95,-18.4571 -29.37,0 -52.44,7.5508 -67.54,20.9805 -15.52,13.8361 -23.91,33.5551 -23.91,58.3011 l 0,8.804 69.63,0 c 0,0 0,-3.765 0,-7.964 0,-4.614 0,-9.231 0,-10.911 0,-5.449 1.68,-10.898 5.03,-14.675 3.78,-3.782 9.24,-6.289 16.79,-6.289 6.29,0 11.32,2.085 14.68,5.449 3.35,3.355 5.45,7.969 5.45,13.426 0,7.546 -3.78,13.835 -10.91,19.714 -7.54,5.871 -18.87,11.321 -33.97,17.621 -20.98,7.965 -36.5,16.778 -46.57,28.524 -10.49,11.316 -15.93,26.008 -15.93,45.723 0,24.328 10.48,41.945 26.84,53.691 15.94,11.328 37.75,16.777 60.83,16.777 23.91,0 46.14,-5.449 62.08,-17.617 15.94,-12.168 25.59,-31.047 25.59,-58.73 l 0,-6.289" /><path
             id="path64"
             style="fill:#23459b;fill-opacity:1;fill-rule:nonzero;stroke:none"
             d="m 1870.83,227.898 0,27.27 c 0,9.645 -7.97,15.945 -16.36,15.945 -9.65,0 -16.36,-7.136 -16.36,-16.367 0,-2.93 0,-15.098 0,-26.848 l 32.72,0 z m 70.05,-67.539 0,-8.386 c -0.84,-47.403 -27.68,-79.6996 -86.41,-79.6996 -54.11,0 -87.25,27.2696 -87.25,80.5396 l 0,88.093 c 0,53.274 33.14,80.539 87.25,80.539 59.57,0 86.83,-32.297 86.83,-80.539 l 0,-59.988 -103.19,0 0,-41.941 c 0,-8.809 6.71,-16.372 16.36,-16.372 8.39,0 16.36,6.719 16.36,16.372 l 0,21.382 70.05,0" /><path
             id="path66"
             style="fill:#23459b;fill-opacity:1;fill-rule:nonzero;stroke:none"
             d="m 2050.79,147.781 c 0,-15.105 10.9,-20.972 19.71,-20.972 15.1,0 23.91,11.746 23.91,26.843 l 0,36.914 c -16.36,-7.968 -43.62,-17.199 -43.62,-42.785 z m 42.78,108.227 c 0,12.586 -9.23,18.035 -18.87,18.035 -10.49,0 -19.3,-7.969 -19.3,-20.559 0,-4.605 0,-14.675 0,-14.675 l -68.8,0 c 0,0 0,7.968 0,11.328 0,44.043 36.92,71.308 86.42,71.308 60.82,0 89.35,-29.785 89.35,-78.437 l 0,-120.403 c 0,-20.964 4.19,-37.7495 5.45,-43.2027 l -65.44,0 -2.1,19.7188 -2.09,0 c -5.88,-5.8672 -20.98,-26.8477 -57.05,-26.8477 -34.4,0 -60.83,25.586 -60.83,60.8246 0,2.515 0,7.965 0,10.906 0,41.531 36.5,59.988 70.06,74.25 18.87,8.387 43.2,15.523 43.2,37.754" /><path
             id="path68"
             style="fill:#23459b;fill-opacity:1;fill-rule:nonzero;stroke:none"
             d="m 2275.62,314.734 1.25,-31.464 1.68,0 c 8.39,19.718 31.88,34.816 56.21,36.496 l 0,-76.348 c 0,0 -7.55,0 -9.65,0 -23.91,0 -38.17,-15.52 -38.17,-36.074 l 0,-127.5198 -75.51,0 0,234.9098 64.19,0" /><path
             id="path70"
             style="fill:#23459b;fill-opacity:1;fill-rule:nonzero;stroke:none"
             d="m 2541.56,170.012 0,-17.199 c 0,-48.243 -31.88,-80.5396 -91.45,-80.5396 -54.11,0 -91.45,27.2696 -91.45,80.5396 l 0,88.093 c 0,53.274 37.34,80.539 91.45,80.539 59.57,0 91.45,-32.297 91.45,-80.539 l 0,-14.683 -75.93,0 0,28.101 c 0,9.653 -7.13,15.531 -15.52,15.531 -9.65,0 -15.94,-6.718 -15.94,-15.531 0,-11.734 0,-114.929 0,-114.929 0,-8.809 6.29,-15.528 15.94,-15.528 8.39,0 15.52,5.879 15.52,15.528 l 0,30.617 75.93,0" /><path
             id="path72"
             style="fill:#23459b;fill-opacity:1;fill-rule:nonzero;stroke:none"
             d="m 2655.65,394.434 0,-93.543 0.42,0 c 7.97,8.804 25.17,21.394 49.08,21.394 41.53,0 58.73,-28.523 58.73,-62.5 0.42,-25.597 0,-179.1209 0,-179.1209 l -75.51,0 c 0,0 0,151.4379 0,164.0159 0,12.168 -7.55,18.457 -15.94,18.457 -7.55,0 -16.78,-5.871 -16.78,-17.617 0,-9.231 0,-164.8559 0,-164.8559 l -75.51,0 0,313.7699 75.51,0" /><path
             id="path74"
             style="fill:#23459b;fill-opacity:1;fill-rule:nonzero;stroke:none"
             d="m 2979.9,158.691 c 0,-15.527 4.61,-26.433 22.23,-26.433 15.52,-0.422 21.81,8.805 21.81,26.433 l 0,31.036 80.12,0 0,-23.489 c 0,-53.277 -26.84,-94.3825 -102.35,-94.3825 -62.5,0 -101.93,29.7855 -101.93,94.3825 l 0,141.367 c 0,64.602 39.43,94.387 101.93,94.387 75.51,0 102.35,-41.113 102.35,-94.387 l 0,-20.132 -80.12,0 0,27.683 c 0,17.617 -6.29,26.848 -21.81,26.848 -17.62,0 -22.23,-11.328 -22.23,-26.848 l 0,-156.465" /><path
             id="path76"
             style="fill:#23459b;fill-opacity:1;fill-rule:nonzero;stroke:none"
             d="m 3247.1,227.898 0,27.27 c 0,9.645 -7.96,15.945 -16.35,15.945 -9.65,0 -16.37,-7.136 -16.37,-16.367 0,-2.93 0,-15.098 0,-26.848 l 32.72,0 z m 70.06,-67.539 0,-8.386 c -0.84,-47.403 -27.69,-79.6996 -86.41,-79.6996 -54.12,0 -87.25,27.2696 -87.25,80.5396 l 0,88.093 c 0,53.274 33.13,80.539 87.25,80.539 59.56,0 86.83,-32.297 86.83,-80.539 l 0,-59.988 -103.2,0 0,-41.941 c 0,-8.809 6.72,-16.372 16.37,-16.372 8.39,0 16.35,6.719 16.35,16.372 l 0,21.382 70.06,0" /><path
             id="path78"
             style="fill:#23459b;fill-opacity:1;fill-rule:nonzero;stroke:none"
             d="m 3427.06,313.895 1.67,-20.973 1.26,0 c 6.71,9.644 24.75,28.523 55.37,28.523 39.02,0 59.15,-28.105 59.15,-62.082 0,-25.586 0,-179.9607 0,-179.9607 l -75.93,0 c 0,0 0,151.4377 0,164.0157 0.42,12.59 -7.55,18.879 -15.94,18.879 -7.55,0 -16.78,-6.289 -16.78,-18.039 l 0,-164.8557 -75.5,0 0,234.4927 66.7,0" /><path
             id="path80"
             style="fill:#23459b;fill-opacity:1;fill-rule:nonzero;stroke:none"
             d="m 3577.23,266.914 0,49.082 21.81,0 0,67.949 76.76,0 0,-67.949 32.31,0 0,-49.082 -32.31,0 0,-119.551 c 0,-13.425 8.39,-20.554 20.98,-20.554 5.04,-0.422 11.33,0 11.33,0 l 0,-49.0824 c 0,0 -35.66,0 -43.21,0 -41.53,0 -65.86,22.6564 -65.86,60.4104 l 0,128.777 -21.81,0" /><path
             id="path82"
             style="fill:#23459b;fill-opacity:1;fill-rule:nonzero;stroke:none"
             d="m 3835.21,227.898 0,27.27 c 0,9.645 -7.98,15.945 -16.37,15.945 -9.65,0 -16.36,-7.136 -16.36,-16.367 0,-2.93 0,-15.098 0,-26.848 l 32.73,0 z m 70.04,-67.539 0,-8.386 c -0.84,-47.403 -27.68,-79.6996 -86.41,-79.6996 -54.11,0 -87.25,27.2696 -87.25,80.5396 l 0,88.093 c 0,53.274 33.14,80.539 87.25,80.539 59.57,0 86.83,-32.297 86.83,-80.539 l 0,-59.988 -103.19,0 0,-41.941 c 0,-8.809 6.71,-16.372 16.36,-16.372 8.39,0 16.37,6.719 16.37,16.372 l 0,21.382 70.04,0" /><path
             id="path84"
             style="fill:#23459b;fill-opacity:1;fill-rule:nonzero;stroke:none"
             d="m 4006.77,314.734 1.26,-31.464 1.67,0 c 8.4,19.718 31.88,34.816 56.21,36.496 l 0,-76.348 c 0,0 -7.55,0 -9.65,0 -23.91,0 -38.16,-15.52 -38.16,-36.074 l 0,-127.5198 -75.51,0 0,234.9098 64.18,0" /><path
             id="path86"
             style="fill:#23459b;fill-opacity:1;fill-rule:nonzero;stroke:none"
             d="m 582.535,30.6914 -27.832,99.7306 3.442,1.316 54.585,-87.5661 c 26.825,12.0664 53.254,29.1484 74.676,47.0976 l -49.867,80.3125 2.836,2.371 70.953,-62.39 c 23.715,20.207 45.481,45.742 61.606,70.097 l -65,57.903 1.992,3.105 79.347,-35.871 c 17.524,27.195 32.098,59.043 40.743,90.422 l -71.942,33.347 0.891,3.575 78.738,-9.336 c 8.481,31.406 12.258,65.664 11.891,100.215 l -260.199,0 c -0.301,-89.915 -73.286,-162.747 -163.274,-162.747 -90.164,0 -163.266,73.125 -163.266,163.286 0,82.582 61.309,150.843 140.891,161.754 L 337.555,840.5 c -14.075,-2.32 -31.7,-6.906 -44.719,-11.965 l 65.559,-237.07 -3.622,-1.383 -121.714,213.629 c -14.602,-6.449 -30.969,-16.246 -43.286,-25.32 l 120.403,-199.09 -2.942,-2.328 -165.394,164.234 c -12.227,-10.031 -26.524,-24.16 -36.039,-36.445 L 265.48,552.594 263.07,549.711 71.6641,660.238 C 61.2695,646.563 50.8477,627.766 44.043,612.297 L 226.941,511.578 225.566,508.086 23.9102,564.07 C 17.3164,547.113 11.3711,525.266 8.55469,507.227 L 200.512,460.281 199.848,456.477 1.75391,456.371 C 1.10547,446.816 0,434.805 0,425.098 0,415.645 1.04297,404.246 1.66016,394.961 l 186.41384,1.582 0.379,-3.582 L 7.61328,347.844 C 10.9219,326.438 16.4063,305.215 24.0586,285.566 l 168.0464,46.082 1.446,-3.406 -152.4338,-84.387 c 9.1055,-20.281 20.4258,-39.89 33.4414,-58.308 l 138.3124,80 2.274,-2.918 -114.524,-111.313 c 14.34,-17.925 30.977,-34.48 48.992,-49.253 l 102.981,101.89 3.004,-2.168 L 181.996,77.0195 C 201.367,62.8828 222.145,50.6523 244.602,40.7148 L 311.117,154.758 314.59,153.379 280.117,25.9453 C 302.766,16.9922 327.301,10.625 352.898,6.66016 l 32.125,117.83184 3.665,-0.597 0.781,-121.85203 C 401.246,1.0625 413.074,0 425.105,0 c 14.411,0 28.657,1.26953 42.692,2.65625 l 0.055,113.05875 3.671,0.496 L 502.41,7.56641 C 531.383,12.1289 558.891,20.4883 582.387,30.625 M 448.16,848.93 c -7.062,0.664 -15.898,1.07 -22.867,1.07 -6.285,0 -15.035,-0.316 -21.109,-0.961 l 2.343,-261.367 c 6.426,0.762 12.965,1.168 19.594,1.168 6.692,0 13.281,-0.418 19.762,-1.195 l 2.277,261.285 z m 2.387,-261.91 c 12.676,-1.903 24.879,-5.266 36.422,-9.903 l 70.703,251.317 c -11.731,4.507 -27.91,8.961 -40.449,11.089 L 450.547,587.02 Z m 42.59,-12.54 c 11.062,-4.976 21.457,-11.152 31.047,-18.355 l 134.742,223.27 c -9.727,7.015 -23.754,15.714 -34.848,20.722 L 493.137,574.48 Z m 250.625,131.04 c -6.824,8.324 -17.414,19.785 -25.942,26.96 L 531.777,550.051 c 8.328,-7.078 15.942,-14.985 22.703,-23.571 L 743.762,705.52 Z M 564.043,512.98 c 4.477,-7.027 8.418,-14.421 11.777,-22.125 l 228.805,124.551 c -3.492,8.129 -9.828,19.86 -14.906,27.16 L 564.043,512.98 Z m 23.324,-61.613 c -1.277,8.02 -3.125,15.844 -5.512,23.422 l 252.243,64.316 c 2.675,-7.621 5.382,-19.593 6.664,-27.464 L 587.367,451.367" /></g></g></g></g></svg>