<?xml version="1.0" encoding="UTF-8" standalone="no"?>
<svg
   xmlns:dc="http://purl.org/dc/elements/1.1/"
   xmlns:cc="http://creativecommons.org/ns#"
   xmlns:rdf="http://www.w3.org/1999/02/22-rdf-syntax-ns#"
   xmlns:svg="http://www.w3.org/2000/svg"
   xmlns="http://www.w3.org/2000/svg"
   viewBox="0 0 1132.5 138.75"
   height="138.75"
   width="1132.5"
   xml:space="preserve"
   version="1.1"
   id="svg2"><metadata
     id="metadata8"><rdf:RDF><cc:Work
         rdf:about=""><dc:format>image/svg+xml</dc:format><dc:type
           rdf:resource="http://purl.org/dc/dcmitype/StillImage" /><dc:title></dc:title></cc:Work></rdf:RDF></metadata><defs
     id="defs6"><clipPath
       id="clipPath18"
       clipPathUnits="userSpaceOnUse"><path
         id="path20"
         d="M 0,0 906,0 906,111 0,111 0,0 Z" /></clipPath><clipPath
       id="clipPath44"
       clipPathUnits="userSpaceOnUse"><path
         id="path46"
         d="m 0,0 905.317,0 0,110.314 L 0,110.314 0,0 Z" /></clipPath><clipPath
       id="clipPath58"
       clipPathUnits="userSpaceOnUse"><path
         id="path60"
         d="M 0,0 906,0 906,111 0,111 0,0 Z" /></clipPath><clipPath
       id="clipPath70"
       clipPathUnits="userSpaceOnUse"><path
         id="path72"
         d="m 0,0 905.317,0 0,110.314 L 0,110.314 0,0 Z" /></clipPath><clipPath
       id="clipPath88"
       clipPathUnits="userSpaceOnUse"><path
         id="path90"
         d="M 0,0 906,0 906,111 0,111 0,0 Z" /></clipPath></defs><g
     transform="matrix(1.25,0,0,-1.25,0,138.75)"
     id="g10"><g
       id="g12" /><g
       id="g14"><g
         clip-path="url(#clipPath18)"
         id="g16"><path
           id="path22"
           style="fill:#858889;fill-opacity:1;fill-rule:nonzero;stroke:none"
           d="m 216.073,90.158 c 10.03,0 17.277,-3.476 24.028,-9.236 0.797,-0.794 0.894,-1.985 0.1,-2.779 l -2.679,-2.682 c -0.796,-0.991 -1.591,-0.894 -2.582,0.1 -5.164,4.469 -12.215,7.446 -18.967,7.446 -15.688,0 -27.701,-13.204 -27.701,-28.595 0,-15.292 12.013,-28.498 27.701,-28.498 8.64,0 13.703,3.476 18.967,7.448 0.991,0.794 1.786,0.694 2.382,0.297 l 2.979,-2.681 c 0.794,-0.595 0.597,-1.985 -0.1,-2.68 -6.752,-6.554 -15.291,-9.633 -24.128,-9.633 -19.858,0 -35.844,15.788 -35.844,35.647 0,19.858 15.986,35.846 35.844,35.846" /><path
           id="path24"
           style="fill:#858889;fill-opacity:1;fill-rule:nonzero;stroke:none"
           d="m 290.742,25.617 c 15.788,0 28.795,12.907 28.795,28.695 0,15.788 -13.007,28.895 -28.795,28.895 -15.788,0 -28.695,-13.107 -28.695,-28.895 0,-15.788 12.907,-28.695 28.695,-28.695 m 0,64.541 c 19.858,0 35.746,-15.987 35.746,-35.846 0,-19.858 -15.888,-35.646 -35.746,-35.646 -19.858,0 -35.647,15.788 -35.647,35.646 0,19.859 15.789,35.846 35.647,35.846" /><path
           id="path26"
           style="fill:#858889;fill-opacity:1;fill-rule:nonzero;stroke:none"
           d="m 346.646,88.37 c 0,0.992 0.894,1.789 1.885,1.789 l 2.485,0 44.78,-55.806 0.198,0 0,52.924 c 0,0.993 0.794,1.888 1.887,1.888 l 3.476,0 c 0.992,0 1.886,-0.895 1.886,-1.888 l 0,-66.823 c 0,-0.995 -0.894,-1.789 -1.886,-1.789 l -1.788,0 -45.576,56.896 -0.098,0 0,-54.015 c 0,-0.993 -0.794,-1.886 -1.888,-1.886 l -3.476,0 c -0.991,0 -1.885,0.893 -1.885,1.886 l 0,66.824" /><path
           id="path28"
           style="fill:#858889;fill-opacity:1;fill-rule:nonzero;stroke:none"
           d="m 459.244,90.158 c 10.03,0 17.277,-3.476 24.028,-9.236 0.797,-0.794 0.895,-1.985 0.101,-2.779 l -2.68,-2.682 c -0.796,-0.991 -1.591,-0.894 -2.582,0.1 -5.163,4.469 -12.215,7.446 -18.967,7.446 -15.687,0 -27.7,-13.204 -27.7,-28.595 0,-15.292 12.013,-28.498 27.7,-28.498 8.641,0 13.703,3.476 18.967,7.448 0.991,0.794 1.786,0.694 2.383,0.297 l 2.978,-2.681 c 0.794,-0.595 0.597,-1.985 -0.099,-2.68 -6.752,-6.554 -15.291,-9.633 -24.129,-9.633 -19.857,0 -35.843,15.788 -35.843,35.647 0,19.858 15.986,35.846 35.843,35.846" /><path
           id="path30"
           style="fill:#858889;fill-opacity:1;fill-rule:nonzero;stroke:none"
           d="m 502.734,87.277 c 0,0.994 0.895,1.887 1.888,1.887 l 3.772,0 c 1.094,0 1.888,-0.893 1.888,-1.887 l 0,-41.405 c 0,-11.319 7.05,-20.156 18.667,-20.156 11.717,0 18.865,8.638 18.865,19.959 l 0,41.602 c 0,0.994 0.794,1.887 1.888,1.887 l 3.772,0 c 0.993,0 1.886,-0.893 1.886,-1.887 l 0,-41.999 c 0,-15.094 -10.721,-26.613 -26.411,-26.613 -15.59,0 -26.215,11.519 -26.215,26.613 l 0,41.999" /><path
           id="path32"
           style="fill:#858889;fill-opacity:1;fill-rule:nonzero;stroke:none"
           d="m 606.796,53.418 c 7.645,0 14.298,6.355 14.298,14.497 0,7.546 -6.653,14.001 -14.298,14.001 l -19.265,0 0,-28.498 19.265,0 z m -27.108,33.859 c 0,0.994 0.794,1.888 1.885,1.888 l 25.719,0 c 11.915,0 21.646,-9.333 21.646,-21.15 0,-9.136 -6.058,-16.782 -14.697,-20.255 l 13.605,-25.221 c 0.695,-1.291 0,-2.88 -1.689,-2.88 l -5.063,0 c -0.895,0 -1.392,0.497 -1.589,0.894 l -13.206,26.313 -18.965,0 0,-25.32 c 0,-0.993 -0.894,-1.887 -1.888,-1.887 l -3.873,0 c -1.091,0 -1.885,0.894 -1.885,1.887 l 0,65.731" /><path
           id="path34"
           style="fill:#858889;fill-opacity:1;fill-rule:nonzero;stroke:none"
           d="m 679.72,53.418 c 7.645,0 14.299,6.355 14.299,14.497 0,7.546 -6.654,14.001 -14.299,14.001 l -19.263,0 0,-28.498 19.263,0 z m -27.108,33.859 c 0,0.994 0.794,1.888 1.887,1.888 l 25.718,0 c 11.915,0 21.645,-9.333 21.645,-21.15 0,-9.136 -6.056,-16.782 -14.695,-20.255 l 13.604,-25.221 c 0.695,-1.291 0,-2.88 -1.688,-2.88 l -5.064,0 c -0.894,0 -1.391,0.497 -1.589,0.894 l -13.206,26.313 -18.965,0 0,-25.32 c 0,-0.993 -0.895,-1.887 -1.887,-1.887 l -3.873,0 c -1.093,0 -1.887,0.894 -1.887,1.887 l 0,65.731" /><path
           id="path36"
           style="fill:#858889;fill-opacity:1;fill-rule:nonzero;stroke:none"
           d="m 723.211,87.277 c 0,0.994 0.794,1.887 1.887,1.887 l 39.123,0 c 1.091,0 1.885,-0.893 1.885,-1.887 l 0,-2.879 c 0,-0.992 -0.794,-1.886 -1.885,-1.886 l -33.364,0 0,-24.228 28.497,0 c 0.994,0 1.888,-0.893 1.888,-1.887 l 0,-2.879 c 0,-1.092 -0.894,-1.886 -1.888,-1.886 l -28.497,0 0,-25.321 33.364,0 c 1.091,0 1.885,-0.894 1.885,-1.885 l 0,-2.88 c 0,-0.993 -0.794,-1.887 -1.885,-1.887 l -39.123,0 c -1.093,0 -1.887,0.894 -1.887,1.887 l 0,65.731" /><path
           id="path38"
           style="fill:#858889;fill-opacity:1;fill-rule:nonzero;stroke:none"
           d="m 786.958,88.37 c 0,0.992 0.894,1.789 1.886,1.789 l 2.484,0 44.78,-55.806 0.198,0 0,52.924 c 0,0.993 0.794,1.888 1.887,1.888 l 3.477,0 c 0.991,0 1.885,-0.895 1.885,-1.888 l 0,-66.823 c 0,-0.995 -0.894,-1.789 -1.885,-1.789 l -1.788,0 -45.577,56.896 -0.098,0 0,-54.015 c 0,-0.993 -0.794,-1.886 -1.888,-1.886 l -3.475,0 c -0.992,0 -1.886,0.893 -1.886,1.886 l 0,66.824" /></g></g><g
       id="g40"><g
         clip-path="url(#clipPath44)"
         id="g42"><path
           id="path48"
           style="fill:#858889;fill-opacity:1;fill-rule:nonzero;stroke:none"
           d="m 878.607,82.513 -17.279,0 c -1.091,0 -1.885,0.894 -1.885,1.884 l 0,2.881 c 0,0.992 0.794,1.887 1.885,1.887 l 42.102,0 c 1.09,0 1.887,-0.895 1.887,-1.887 l 0,-2.881 c 0,-0.99 -0.797,-1.884 -1.887,-1.884 l -17.277,0 0,-60.966 c 0,-0.994 -0.894,-1.887 -1.889,-1.887 l -3.772,0 c -0.991,0 -1.885,0.893 -1.885,1.887 l 0,60.966" /><path
           id="path50"
           style="fill:#5db9e8;fill-opacity:1;fill-rule:nonzero;stroke:none"
           d="m 84.142,20.334 c 2.059,-0.743 3.99,-1.686 6.001,-2.629 0,0 1.973,-0.9 0.772,-2.315 -2.614,-2.829 -5.844,-5.13 -9.5,-7.057 -11.166,-5.886 -24.351,-9.295 -39.049,-6.15 -3.104,0.663 -7.605,1.89 -8.706,2.838 -1.671,1.624 1.667,2.333 1.667,2.333 13.504,3.541 32.645,9.541 45.665,12.901 0,0 1.778,0.679 3.15,0.079" /><path
           id="path52"
           style="fill:#069a6b;fill-opacity:1;fill-rule:nonzero;stroke:none"
           d="m 139.733,28.978 c 0.071,0.201 -0.062,0.516 -0.653,0.319 C 124.848,23.489 111.566,18.764 97.345,12.933 96.535,12.6 94.83,12.018 93.773,11.274 89.044,6.998 83.942,3.931 77.997,1.272 c 0,0 -0.949,-0.457 -0.413,-1.079 0,0 0.536,-0.621 3.672,0.366 14.489,4.2 37.619,15.045 52.839,23.377 3.212,1.689 4.251,2.793 5.494,4.665 0,0 0.111,0.242 0.144,0.377" /></g></g><g
       id="g54"><g
         clip-path="url(#clipPath58)"
         id="g56"><path
           id="path62"
           style="fill:#39a2e1;fill-opacity:1;fill-rule:nonzero;stroke:none"
           d="m 70.197,36.78 c -0.986,1.715 -3.735,1.18 -3.735,1.18 L 9.776,30.961 c -3.02,-0.285 -3.887,-1.27 -2.333,-3.666 3.425,-5.286 6.88,-10.247 12.325,-14.123 0,0 1.602,-1.375 4.367,-0.875 5.038,0.911 45.261,10.923 50.233,11.952 l 1.202,0.285 c 0,0 3.299,0.629 0.814,3.33 -2,2.555 -4.377,5.75 -6.173,8.873 l -0.014,0.043" /><path
           id="path64"
           style="fill:#73c32c;fill-opacity:1;fill-rule:nonzero;stroke:none"
           d="m 148.4,53.136 c 0.32,4.332 -0.232,5.56 -0.329,5.738 -0.217,0.481 -0.582,0.862 -1.193,0.917 l -30.975,2.445 -0.062,0.013 c -2.778,0.179 -3.513,0.352 -3.463,-3.275 l -0.008,0 c 0.004,-0.053 0.007,-0.106 0.011,-0.16 0.001,-0.036 0.001,-0.069 0.002,-0.106 l 0.005,-10e-4 c 0.18,-2.429 0.101,-4.852 0.024,-7.19 -0.129,-3.905 0.908,-3.692 3.457,-3.541 l 0.063,0.013 30.974,2.445 c 0.837,0.076 1.214,0.762 1.377,1.479 l 0.009,-0.023 c 0.004,0.039 0.007,0.075 0.011,0.113 0.083,0.411 0.101,0.825 0.097,1.133" /></g></g><g
       id="g66"><g
         clip-path="url(#clipPath70)"
         id="g68"><path
           id="path74"
           style="fill:#52ab36;fill-opacity:1;fill-rule:nonzero;stroke:none"
           d="m 110.691,32.765 0.537,0.096 c 0.708,0.146 1.673,0.353 2.749,0.608 10.152,2.557 20.764,4.869 30.805,7.49 2.531,0.661 2.32,1.903 3.028,4.861 0.266,1.795 0.231,2.218 -1.301,1.977 L 113.732,43.82 c -0.95,-0.147 -1.897,-0.252 -2.222,-1.7 -0.581,-2.583 -1.29,-5.244 -2.248,-7.869 0,0 -0.621,-1.736 1.35,-1.5 l 0.079,0.014" /><path
           id="path76"
           style="fill:#1081bb;fill-opacity:1;fill-rule:nonzero;stroke:none"
           d="m 66.889,55.256 c 0.147,4.017 0.294,7.812 0.294,7.812 0.287,3.198 -2.416,3.081 -2.416,3.081 L 5.268,70.789 C 2.78,70.789 1.915,69.178 1.138,66.066 0.241,62.387 -0.034,58.652 0.003,55.256 -0.034,51.86 0.241,48.124 1.138,44.445 1.915,41.333 2.78,39.723 5.268,39.723 l 59.499,4.639 c 0,0 2.682,0.098 2.416,3.082 0,0 -0.316,3.825 -0.294,7.812" /><path
           id="path78"
           style="fill:#06974d;fill-opacity:1;fill-rule:nonzero;stroke:none"
           d="m 144.756,38.538 c -0.138,-0.005 -0.326,-0.063 -0.326,-0.063 -11.718,-3.681 -24.074,-6.626 -35.768,-10.396 -1.247,-0.481 -2.514,-0.495 -3.622,-2.363 -1.041,-2.205 -1.866,-3.964 -3.234,-5.957 0,0 -0.723,-1.137 0.118,-1.254 0,0 0.319,-0.106 1.416,0.346 l 0.167,0.064 36.701,13.596 c 2.88,0.988 3.725,2.571 4.874,5.392 0.092,0.247 0.099,0.613 -0.326,0.635" /><path
           id="path80"
           style="fill:#18557a;fill-opacity:1;fill-rule:nonzero;stroke:none"
           d="m 84.085,89.981 c 2.058,0.743 3.989,1.686 6.001,2.629 0,0 2.015,0.943 0.772,2.315 -2.615,2.829 -5.844,5.13 -9.5,7.057 -11.166,5.886 -24.35,9.295 -39.05,6.15 -3.104,-0.664 -7.605,-1.89 -8.705,-2.838 -1.672,-1.624 1.667,-2.333 1.667,-2.333 13.504,-3.541 32.645,-9.541 45.664,-12.901 0,0 1.779,-0.679 3.151,-0.079" /><path
           id="path82"
           style="fill:#b5da17;fill-opacity:1;fill-rule:nonzero;stroke:none"
           d="m 139.676,81.336 c 0.071,-0.2 -0.062,-0.515 -0.653,-0.319 -14.232,5.809 -27.514,10.534 -41.735,16.365 -0.81,0.333 -2.515,0.915 -3.572,1.658 -4.729,4.277 -9.831,7.344 -15.776,10.002 0,0 -0.949,0.457 -0.413,1.079 0,0 0.536,0.621 3.672,-0.365 14.489,-4.2 37.619,-15.046 52.839,-23.378 3.212,-1.689 4.251,-2.793 5.494,-4.664 0,0 0.111,-0.242 0.144,-0.378" /></g></g><g
       id="g84"><g
         clip-path="url(#clipPath88)"
         id="g86"><path
           id="path92"
           style="fill:#176ca5;fill-opacity:1;fill-rule:nonzero;stroke:none"
           d="m 70.139,73.534 c -0.985,-1.715 -3.734,-1.18 -3.734,-1.18 L 9.719,79.353 c -3.02,0.285 -3.886,1.271 -2.333,3.667 3.424,5.285 6.879,10.247 12.326,14.123 0,0 1.602,1.375 4.365,0.875 5.039,-0.912 45.263,-10.924 50.235,-11.953 l 1.201,-0.286 c 0,0 3.3,-0.628 0.814,-3.329 -2,-2.555 -4.378,-5.75 -6.173,-8.873 l -0.015,-0.043" /><path
           id="path94"
           style="fill:#89cf25;fill-opacity:1;fill-rule:nonzero;stroke:none"
           d="m 110.634,77.55 0.537,-0.096 c 0.708,-0.146 1.673,-0.353 2.749,-0.608 10.152,-2.558 20.764,-4.869 30.805,-7.491 2.531,-0.661 2.32,-1.902 3.028,-4.861 0.266,-1.794 0.231,-2.218 -1.301,-1.976 l -32.777,3.977 c -0.95,0.147 -1.897,0.251 -2.222,1.699 -0.581,2.583 -1.29,5.244 -2.248,7.869 0,0 -0.621,1.737 1.35,1.5 l 0.079,-0.013" /><path
           id="path96"
           style="fill:#a8d61b;fill-opacity:1;fill-rule:nonzero;stroke:none"
           d="m 144.699,71.777 c -0.138,0.005 -0.327,0.062 -0.327,0.062 -11.716,3.682 -24.072,6.627 -35.767,10.397 -1.246,0.481 -2.513,0.495 -3.621,2.363 -1.042,2.205 -1.867,3.964 -3.236,5.957 0,0 -0.721,1.137 0.119,1.254 0,0 0.318,0.106 1.416,-0.347 L 103.45,91.4 140.152,77.804 c 2.88,-0.988 3.724,-2.571 4.874,-5.392 0.091,-0.247 0.097,-0.613 -0.327,-0.635" /></g></g></g></svg>