<?xml version="1.0" encoding="UTF-8" standalone="no"?>
<svg
   xmlns:dc="http://purl.org/dc/elements/1.1/"
   xmlns:cc="http://creativecommons.org/ns#"
   xmlns:rdf="http://www.w3.org/1999/02/22-rdf-syntax-ns#"
   xmlns:svg="http://www.w3.org/2000/svg"
   xmlns="http://www.w3.org/2000/svg"
   viewBox="0 0 788.38251 451.6575"
   height="451.6575"
   width="788.38251"
   xml:space="preserve"
   version="1.1"
   id="svg2"><metadata
     id="metadata8"><rdf:RDF><cc:Work
         rdf:about=""><dc:format>image/svg+xml</dc:format><dc:type
           rdf:resource="http://purl.org/dc/dcmitype/StillImage" /><dc:title></dc:title></cc:Work></rdf:RDF></metadata><defs
     id="defs6"><clipPath
       id="clipPath16"
       clipPathUnits="userSpaceOnUse"><path
         id="path18"
         d="m 45.612,118.492 0,242.833 -43.7966,0 0,-278.999 204.3646,0 0,33.736 -160.574,0 0.006,2.43" /></clipPath><clipPath
       id="clipPath22"
       clipPathUnits="userSpaceOnUse"><path
         id="path24"
         d="m 0,361.32 630.706,0 L 630.706,0 0,0 0,361.32 Z" /></clipPath><linearGradient
       id="linearGradient28"
       spreadMethod="pad"
       gradientTransform="matrix(0,-297.015,-297.015,0,103.998,366.031)"
       gradientUnits="userSpaceOnUse"
       y2="0"
       x2="1"
       y1="0"
       x1="0"><stop
         id="stop30"
         offset="0"
         style="stop-opacity:1;stop-color:#0097d6" /><stop
         id="stop32"
         offset="1"
         style="stop-opacity:1;stop-color:#005575" /></linearGradient><clipPath
       id="clipPath40"
       clipPathUnits="userSpaceOnUse"><path
         id="path42"
         d="m 95.081,361.325 -44.608,0 0,-240.403 155.707,0 0,41.119 -111.099,0 0,199.284" /></clipPath><clipPath
       id="clipPath46"
       clipPathUnits="userSpaceOnUse"><path
         id="path48"
         d="m 0,361.32 630.706,0 L 630.706,0 0,0 0,361.32 Z" /></clipPath><linearGradient
       id="linearGradient52"
       spreadMethod="pad"
       gradientTransform="matrix(0,-297.015,-297.015,0,128.327,366.031)"
       gradientUnits="userSpaceOnUse"
       y2="0"
       x2="1"
       y1="0"
       x1="0"><stop
         id="stop54"
         offset="0"
         style="stop-opacity:1;stop-color:#0097d6" /><stop
         id="stop56"
         offset="1"
         style="stop-opacity:1;stop-color:#005575" /></linearGradient><clipPath
       id="clipPath64"
       clipPathUnits="userSpaceOnUse"><path
         id="path66"
         d="m 536.244,225.413 90.475,135.912 -46.282,0 -93.363,-137.403 94.307,-141.596 49.325,0 -94.462,143.087" /></clipPath><clipPath
       id="clipPath70"
       clipPathUnits="userSpaceOnUse"><path
         id="path72"
         d="m 0,361.32 630.706,0 L 630.706,0 0,0 0,361.32 Z" /></clipPath><linearGradient
       id="linearGradient76"
       spreadMethod="pad"
       gradientTransform="matrix(0,-297.015,-297.015,0,558.89,366.031)"
       gradientUnits="userSpaceOnUse"
       y2="0"
       x2="1"
       y1="0"
       x1="0"><stop
         id="stop78"
         offset="0"
         style="stop-opacity:1;stop-color:#0097d6" /><stop
         id="stop80"
         offset="1"
         style="stop-opacity:1;stop-color:#005575" /></linearGradient><clipPath
       id="clipPath88"
       clipPathUnits="userSpaceOnUse"><path
         id="path90"
         d="m 484.165,228.29 90.396,133.035 -51.867,0 -40.655,-66.561 -40.256,66.561 -310.294,0 0,-36.585 288.573,0" /></clipPath><clipPath
       id="clipPath94"
       clipPathUnits="userSpaceOnUse"><path
         id="path96"
         d="m 0,361.32 630.706,0 L 630.706,0 0,0 0,361.32 Z" /></clipPath><linearGradient
       id="linearGradient100"
       spreadMethod="pad"
       gradientTransform="matrix(0,-297.015,-297.015,0,353.025,366.031)"
       gradientUnits="userSpaceOnUse"
       y2="0"
       x2="1"
       y1="0"
       x1="0"><stop
         id="stop102"
         offset="0"
         style="stop-opacity:1;stop-color:#0097d6" /><stop
         id="stop104"
         offset="1"
         style="stop-opacity:1;stop-color:#005575" /></linearGradient><linearGradient
       id="linearGradient118"
       spreadMethod="pad"
       gradientTransform="matrix(0,-297.015,-297.015,0,194.643,366.031)"
       gradientUnits="userSpaceOnUse"
       y2="0"
       x2="1"
       y1="0"
       x1="0"><stop
         id="stop120"
         offset="0"
         style="stop-opacity:1;stop-color:#0097d6" /><stop
         id="stop122"
         offset="1"
         style="stop-opacity:1;stop-color:#005575" /></linearGradient><linearGradient
       id="linearGradient136"
       spreadMethod="pad"
       gradientTransform="matrix(0,-297.015,-297.015,0,347.406,366.031)"
       gradientUnits="userSpaceOnUse"
       y2="0"
       x2="1"
       y1="0"
       x1="0"><stop
         id="stop138"
         offset="0"
         style="stop-opacity:1;stop-color:#0097d6" /><stop
         id="stop140"
         offset="1"
         style="stop-opacity:1;stop-color:#005575" /></linearGradient><linearGradient
       id="linearGradient154"
       spreadMethod="pad"
       gradientTransform="matrix(0,-297.015,-297.015,0,483.202,366.031)"
       gradientUnits="userSpaceOnUse"
       y2="0"
       x2="1"
       y1="0"
       x1="0"><stop
         id="stop156"
         offset="0"
         style="stop-opacity:1;stop-color:#0097d6" /><stop
         id="stop158"
         offset="1"
         style="stop-opacity:1;stop-color:#005575" /></linearGradient></defs><g
     transform="matrix(1.25,0,0,-1.25,0,451.6575)"
     id="g10"><g
       id="g12"><g
         clip-path="url(#clipPath16)"
         id="g14"><g
           clip-path="url(#clipPath22)"
           id="g20"><g
             id="g26"><path
               id="path34"
               style="fill:url(#linearGradient28);stroke:none"
               d="m 0,361.32 630.706,0 L 630.706,0 0,0 0,361.32 Z" /></g></g></g></g><g
       id="g36"><g
         clip-path="url(#clipPath40)"
         id="g38"><g
           clip-path="url(#clipPath46)"
           id="g44"><g
             id="g50"><path
               id="path58"
               style="fill:url(#linearGradient52);stroke:none"
               d="m 0,361.32 630.706,0 L 630.706,0 0,0 0,361.32 Z" /></g></g></g></g><g
       id="g60"><g
         clip-path="url(#clipPath64)"
         id="g62"><g
           clip-path="url(#clipPath70)"
           id="g68"><g
             id="g74"><path
               id="path82"
               style="fill:url(#linearGradient76);stroke:none"
               d="m 0,361.32 630.706,0 L 630.706,0 0,0 0,361.32 Z" /></g></g></g></g><g
       id="g84"><g
         clip-path="url(#clipPath88)"
         id="g86"><g
           clip-path="url(#clipPath94)"
           id="g92"><g
             id="g98"><path
               id="path106"
               style="fill:url(#linearGradient100);stroke:none"
               d="m 0,361.32 630.706,0 L 630.706,0 0,0 0,361.32 Z" /></g></g></g></g><g
       id="g108"><g
         id="g110"><g
           id="g116"><path
             id="path124"
             style="fill:url(#linearGradient118);stroke:none"
             d="m 213.595,120.922 44.203,0 0,198.957 -126.309,0 0,-37.47 82.106,0 0,-161.487" /></g></g></g><g
       id="g126"><g
         id="g128"><g
           id="g134"><path
             id="path142"
             style="fill:url(#linearGradient136);stroke:none"
             d="m 417.327,319.879 -154.669,0 0,-201.387 c 0,0 0.034,-2.43 0.023,-2.43 l -49.086,0 0,-33.736 93.265,0 0,200.083 80.98,0 38.4,-58.192 -94.46,-141.891 53.204,0 96.233,141.625 -63.89,95.928" /></g></g></g><g
       id="g144"><g
         id="g146"><g
           id="g152"><path
             id="path160"
             style="fill:url(#linearGradient154);stroke:none"
             d="m 390.861,82.326 44.944,0 44.639,72.54 44.241,-72.54 50.858,0 -91.417,137.257 -93.265,-137.257" /></g></g></g><g
       transform="translate(19.662,0)"
       id="g162"><path
         id="path164"
         style="fill:#6d6e70;fill-opacity:1;fill-rule:nonzero;stroke:none"
         d="m 0,0 c -8.794,0 -14.269,2.405 -19.662,7.798 l 3.153,3.153 c 5.309,-5.31 9.623,-6.969 16.758,-6.969 9.291,0 15.182,4.479 15.182,12.195 0,3.484 -1.079,6.388 -3.236,8.296 -2.157,1.825 -3.733,2.406 -8.545,3.152 l -6.886,1.079 c -4.479,0.663 -8.047,2.157 -10.535,4.313 -3.153,2.655 -4.646,6.306 -4.646,10.869 0,9.871 7.052,16.177 18.334,16.177 7.301,0 11.946,-1.992 17.007,-6.388 L 14.02,50.771 c -3.65,3.235 -7.3,5.475 -14.352,5.475 -8.545,0 -13.688,-4.728 -13.688,-12.195 0,-3.401 0.995,-5.973 3.069,-7.715 2.074,-1.742 5.476,-3.153 8.794,-3.65 l 6.388,-0.995 c 5.558,-0.83 8.047,-1.826 10.536,-3.9 C 18.002,25.136 19.91,21.072 19.91,16.342 19.91,6.388 12.278,0 0,0" /></g><g
       transform="translate(52.511,0.49701)"
       id="g166"><path
         id="path168"
         style="fill:#6d6e70;fill-opacity:1;fill-rule:nonzero;stroke:none"
         d="m 4.231,0 -4.2314,0 0,39.986 4.2314,0 L 4.231,0 Z M 0,0 Z m 4.729,53.841 -5.2266,0 0,5.226 5.2266,0 0,-5.226 z" /></g><g
       transform="translate(125.929,0.49701)"
       id="g170"><path
         id="path172"
         style="fill:#6d6e70;fill-opacity:1;fill-rule:nonzero;stroke:none"
         d="m 0,0 0,24.806 c 0,7.714 -3.898,11.946 -11.033,11.946 -6.886,0 -11.283,-4.398 -11.283,-11.2 l 0,-25.552 -4.231,0 0,24.806 c 0,7.714 -3.899,11.946 -11.033,11.946 -7.135,0 -11.283,-4.398 -11.283,-11.946 l 0,-24.806 -4.231,0 0,39.986 4.231,0 0,-4.728 c 2.904,3.401 7.052,5.226 11.863,5.226 5.891,0 10.453,-2.571 12.859,-7.3 2.987,4.729 7.715,7.3 13.606,7.3 4.397,0 8.047,-1.41 10.535,-3.815 2.655,-2.572 4.148,-6.388 4.148,-11.117 L 4.148,0 0,0" /></g><g
       transform="translate(171.72,0.49701)"
       id="g174"><path
         id="path176"
         style="fill:#6d6e70;fill-opacity:1;fill-rule:nonzero;stroke:none"
         d="m 0,0 0,4.729 c -2.986,-3.485 -6.968,-5.22601 -11.78,-5.22601 -4.48,0 -8.047,1.32701 -10.619,3.81501 -2.655,2.573 -4.148,6.388 -4.148,11.118 l 0,25.55 4.231,0 0,-24.804 c 0,-7.715 3.899,-11.946 11.034,-11.946 C -4.148,3.236 0,7.632 0,15.182 l 0,24.804 4.231,0 L 4.231,0 0,0" /></g><g
       transform="translate(201.5,0.49701)"
       id="g178"><path
         id="path180"
         style="fill:#6d6e70;fill-opacity:1;fill-rule:nonzero;stroke:none"
         d="m 0,0 c -6.47,0 -9.623,4.148 -9.623,10.37 l 0,48.697 4.231,0 0,-48.613 c 0,-4.481 1.41,-6.721 6.139,-6.721 l 2.904,0 L 3.651,0 0,0" /></g><g
       transform="translate(239.329,19.578)"
       id="g182"><path
         id="path184"
         style="fill:#6d6e70;fill-opacity:1;fill-rule:nonzero;stroke:none"
         d="m 0,0 -12.445,0 c -6.885,0 -10.204,-2.738 -10.204,-8.048 0,-5.309 3.236,-7.797 10.453,-7.797 3.651,0 7.135,0.332 9.955,3.069 1.494,1.411 2.241,3.9 2.241,7.632 L 0,0 Z m 0,-19.081 0,3.982 c -3.402,-3.401 -6.554,-4.479 -12.196,-4.479 -5.89,0 -9.208,0.995 -11.78,3.65 -1.825,1.908 -2.904,4.811 -2.904,7.798 0,7.3 5.227,11.531 13.938,11.531 l 12.942,0 0,4.48 c 0,6.388 -3.153,9.79 -11.283,9.79 -5.641,0 -8.545,-1.411 -11.034,-5.061 l -3.069,2.655 c 3.401,4.728 7.632,6.138 14.103,6.138 10.536,0 15.514,-4.728 15.514,-13.107 l 0,-27.377 -4.231,0" /></g><g
       transform="translate(269.938,0.49701)"
       id="g186"><path
         id="path188"
         style="fill:#6d6e70;fill-opacity:1;fill-rule:nonzero;stroke:none"
         d="m 0,0 c -6.305,0 -9.623,4.397 -9.623,10.454 l 0,26.38 -5.476,0 0,3.152 5.476,0 0,12.776 4.231,0 0,-12.776 9.042,0 0,-3.152 -9.042,0 0,-26.464 c 0,-4.147 1.908,-6.637 6.139,-6.637 l 2.903,0 L 3.65,0 0,0" /></g><g
       transform="translate(286.28,0.49701)"
       id="g190"><path
         id="path192"
         style="fill:#6d6e70;fill-opacity:1;fill-rule:nonzero;stroke:none"
         d="M 4.231,0 0,0 l 0,39.986 4.231,0 L 4.231,0 Z M 0,0 Z m 4.729,53.841 -5.227,0 0,5.226 5.227,0 0,-5.226 z" /></g><g
       transform="translate(328.672,33.847)"
       id="g194"><path
         id="path196"
         style="fill:#6d6e70;fill-opacity:1;fill-rule:nonzero;stroke:none"
         d="m 0,0 c -2.157,2.157 -5.061,3.402 -8.296,3.402 -3.236,0 -6.139,-1.245 -8.296,-3.402 -3.319,-3.318 -3.568,-8.711 -3.568,-13.356 0,-4.646 0.249,-10.038 3.568,-13.357 2.157,-2.157 5.06,-3.401 8.296,-3.401 3.235,0 6.139,1.244 8.296,3.401 3.318,3.319 3.567,8.711 3.567,13.357 C 3.567,-8.711 3.318,-3.318 0,0 Z m 2.82,-29.451 c -2.82,-2.82 -6.637,-4.396 -11.116,-4.396 -4.481,0 -8.296,1.576 -11.118,4.396 -4.231,4.231 -4.977,10.37 -4.977,16.095 0,5.724 0.746,11.863 4.977,16.094 2.822,2.82 6.637,4.396 11.118,4.396 4.479,0 8.296,-1.576 11.116,-4.396 4.231,-4.231 4.978,-10.37 4.978,-16.094 0,-5.725 -0.747,-11.864 -4.978,-16.095" /></g><g
       transform="translate(376.786,0.49701)"
       id="g198"><path
         id="path200"
         style="fill:#6d6e70;fill-opacity:1;fill-rule:nonzero;stroke:none"
         d="m 0,0 0,24.806 c 0,7.714 -3.9,11.946 -11.034,11.946 -7.135,0 -11.282,-4.398 -11.282,-11.946 l 0,-24.806 -4.231,0 0,39.986 4.231,0 0,-4.728 c 2.986,3.484 6.969,5.226 11.779,5.226 4.48,0 8.048,-1.326 10.619,-3.815 2.655,-2.572 4.149,-6.388 4.149,-11.117 L 4.231,0 0,0" /></g><g
       transform="translate(452.276,6.802)"
       id="g202"><path
         id="path204"
         style="fill:#6d6e70;fill-opacity:1;fill-rule:nonzero;stroke:none"
         d="m 0,0 c -3.9,-4.313 -9.541,-6.802 -15.514,-6.802 -5.558,0 -10.868,2.157 -14.767,6.055 -5.392,5.393 -5.476,10.619 -5.476,23.976 0,13.356 0.084,18.583 5.476,23.975 3.899,3.9 9.209,6.057 14.767,6.057 10.37,0 18.334,-6.804 20.159,-17.256 l -4.48,0 c -1.741,8.13 -7.715,13.274 -15.679,13.274 -4.231,0 -8.213,-1.577 -11.2,-4.563 -4.231,-4.231 -4.562,-8.794 -4.562,-21.487 0,-12.693 0.331,-17.255 4.562,-21.486 2.987,-2.987 6.969,-4.563 11.2,-4.563 4.646,0 9.208,1.99 12.278,5.723 2.572,3.153 3.567,6.637 3.567,11.698 l 0,5.309 -15.845,0 0,3.982 20.326,0 0,-9.622 C 4.812,8.131 3.484,3.733 0,0" /></g><g
       transform="translate(524.863,0.49701)"
       id="g206"><path
         id="path208"
         style="fill:#6d6e70;fill-opacity:1;fill-rule:nonzero;stroke:none"
         d="m 0,0 0,24.806 c 0,7.714 -3.9,11.946 -11.034,11.946 -6.886,0 -11.282,-4.398 -11.282,-11.2 l 0,-25.552 -4.231,0 0,24.806 c 0,7.714 -3.9,11.946 -11.034,11.946 -7.135,0 -11.282,-4.398 -11.282,-11.946 l 0,-24.806 -4.231,0 0,39.986 4.231,0 0,-4.728 c 2.903,3.401 7.051,5.226 11.863,5.226 5.89,0 10.453,-2.571 12.859,-7.3 2.986,4.729 7.715,7.3 13.604,7.3 4.398,0 8.048,-1.41 10.537,-3.815 2.655,-2.572 4.148,-6.388 4.148,-11.117 L 4.148,0 0,0" /></g><g
       transform="translate(560.117,37.249)"
       id="g210"><path
         id="path212"
         style="fill:#6d6e70;fill-opacity:1;fill-rule:nonzero;stroke:none"
         d="m 0,0 c -9.789,0 -11.282,-8.463 -11.282,-16.758 0,-8.296 1.493,-16.758 11.282,-16.758 9.789,0 11.283,8.462 11.283,16.758 C 11.283,-8.463 9.789,0 0,0 Z m 10.37,-33.765 c -2.074,-2.074 -5.642,-3.484 -9.789,-3.484 -4.48,0 -8.379,0.995 -11.863,5.641 l 0,-5.144 -4.231,0 0,59.067 4.231,0 0,-24.223 c 3.484,4.645 7.383,5.64 11.863,5.64 4.147,0 7.715,-1.41 9.789,-3.483 4.065,-4.066 5.144,-10.702 5.144,-17.007 0,-6.306 -1.079,-12.943 -5.144,-17.007" /></g><g
       transform="translate(625.736,0.49701)"
       id="g214"><path
         id="path216"
         style="fill:#6d6e70;fill-opacity:1;fill-rule:nonzero;stroke:none"
         d="m 0,0 0,27.791 -30.778,0 0,-27.791 -4.479,0 0,59.067 4.479,0 0,-27.294 30.778,0 0,27.294 4.48,0 L 4.48,0 0,0" /></g></g></svg>