<?xml version="1.0" encoding="utf-8"?>
<!-- Generator: Adobe Illustrator 12.0.1, SVG Export Plug-In . SVG Version: 6.00 Build 51448)  -->
<!DOCTYPE svg PUBLIC "-//W3C//DTD SVG 1.1//EN" "http://www.w3.org/Graphics/SVG/1.1/DTD/svg11.dtd" [
	<!ENTITY ns_svg "http://www.w3.org/2000/svg">
	<!ENTITY ns_xlink "http://www.w3.org/1999/xlink">
]>
<svg  version="1.1" id="Layer_1" xmlns:svg="http://www.w3.org/2000/svg" xmlns="&ns_svg;" xmlns:xlink="&ns_xlink;"
	 width="800" height="126.195" viewBox="0 0 800 126.195" overflow="visible" enable-background="new 0 0 800 126.195"
	 xml:space="preserve">
<g id="g3">
	<g id="g5">
		<path id="path7" fill="#009999" d="M86.449,28.074c-6.11-2.227-11.95-3.891-17.512-5.284c-5.556-1.109-10.84-1.665-15.563-1.665
			c-6.116,0-10.563,1.109-13.898,3.06c-3.336,1.941-5.007,4.444-5.007,7.504c0,2.22,0.839,4.168,2.781,5.833
			c1.948,1.671,5.007,3.059,8.897,4.729L68.66,53.09c8.897,4.169,15.569,8.893,20.293,14.454c4.729,5.562,6.949,12.233,6.949,19.737
			c-0.277,11.95-5.001,21.402-14.731,28.352c-9.452,6.949-22.234,10.285-38.359,10.563c-6.116,0-12.511-0.277-19.46-1.109
			c-6.672-0.562-13.621-1.947-20.848-3.612V96.728c7.227,2.504,13.898,4.175,20.292,5.284c6.395,1.109,12.229,1.664,17.513,1.664
			c6.671,0,11.678-1.108,15.008-3.328c3.62-1.949,5.284-4.729,5.284-8.344c0-1.941-0.555-3.612-1.948-5.001
			c-1.388-1.671-3.613-3.059-6.388-4.452L27.242,71.989c-9.446-4.168-16.396-9.169-20.57-15.286C2.227,50.864,0,44.192,0,36.411
			c0.277-11.118,5.007-20.016,13.898-26.41C23.074,3.336,35.308,0.277,50.871,0c5.562,0,11.672,0.556,17.789,1.388
			c6.395,0.832,12.233,1.948,17.789,3.059V28.074z M148.992,123.969h-36.688V2.219h36.688V123.969z M267.136,24.738h-54.484v26.964
			h47.251v20.287h-47.251v28.358h55.594v23.621h-90.895V2.219h89.785V24.738L267.136,24.738z M438.362,123.969h-34.19V43.638
			l-35.579,81.447h-21.125l-34.19-81.447v80.331h-24.738V2.219h44.748l30.577,74.499l31.965-74.499h42.533V123.969z M556.5,24.738
			h-54.207v26.964h47.258v20.287h-47.258v28.358h55.316v23.621h-90.896V2.219H556.5V24.738z M685.199,123.969h-38.914L602.64,45.864
			v78.105h-24.737V2.219h40.023l42.534,76.72V2.219h24.738L685.199,123.969L685.199,123.969z M790.548,28.074
			c-6.117-2.227-11.95-3.891-17.512-5.284c-5.556-1.109-10.84-1.665-15.563-1.665c-6.116,0-10.841,1.109-14.176,3.06
			c-3.336,1.941-5.007,4.444-5.007,7.504c0,2.22,0.832,4.168,2.503,5.833c1.665,1.671,4.724,3.059,9.453,4.729l22.513,10.84
			c8.897,4.169,15.569,8.893,20.292,14.731c4.725,5.562,6.949,12.511,6.949,20.57c-0.277,11.395-5.001,20.568-14.73,27.24
			c-9.452,6.949-22.519,10.285-38.638,10.563c-5.839,0-12.232-0.277-19.183-1.109c-6.671-0.562-13.62-1.947-20.849-3.612V96.728
			c7.229,2.504,13.898,4.175,20.293,5.284c6.396,1.109,12.229,1.664,17.513,1.664c6.672,0,11.396-1.108,15.009-3.052
			c3.336-1.948,5.007-4.452,5.007-7.511c0-2.22-0.562-4.445-1.948-6.11c-1.388-1.671-3.612-3.336-6.395-4.452l-24.738-10.562
			c-9.453-4.168-16.125-8.892-20.569-14.73c-4.17-5.557-6.396-12.506-6.396-20.848c0.283-11.118,4.729-20.016,13.621-26.41
			C727.172,3.336,739.405,0.277,754.969,0c5.284,0,11.118,0.556,17.234,1.388c6.117,0.832,12.228,1.948,18.345,3.059V28.074
			L790.548,28.074z"/>
	</g>
</g>
</svg>
