<?xml version="1.0" encoding="UTF-8" standalone="no"?>
<!-- Created with Inkscape (http://www.inkscape.org/) -->

<svg
   xmlns:dc="http://purl.org/dc/elements/1.1/"
   xmlns:cc="http://creativecommons.org/ns#"
   xmlns:rdf="http://www.w3.org/1999/02/22-rdf-syntax-ns#"
   xmlns:svg="http://www.w3.org/2000/svg"
   xmlns="http://www.w3.org/2000/svg"
   xmlns:sodipodi="http://sodipodi.sourceforge.net/DTD/sodipodi-0.dtd"
   xmlns:inkscape="http://www.inkscape.org/namespaces/inkscape"
   id="svg2"
   version="1.1"
   inkscape:version="0.91 r13725"
   xml:space="preserve"
   width="721.25"
   height="440"
   viewBox="0 0 721.25 440"
   sodipodi:docname="ESI-logo-for-print.svg"><metadata
     id="metadata8"><rdf:RDF><cc:Work
         rdf:about=""><dc:format>image/svg+xml</dc:format><dc:type
           rdf:resource="http://purl.org/dc/dcmitype/StillImage" /><dc:title></dc:title></cc:Work></rdf:RDF></metadata><defs
     id="defs6"><clipPath
       clipPathUnits="userSpaceOnUse"
       id="clipPath18"><path
         d="m 0,0 5766.04,0 0,3518.21 L 0,3518.21 0,0 Z"
         id="path20"
         inkscape:connector-curvature="0" /></clipPath></defs><sodipodi:namedview
     pagecolor="#ffffff"
     bordercolor="#666666"
     borderopacity="1"
     objecttolerance="10"
     gridtolerance="10"
     guidetolerance="10"
     inkscape:pageopacity="0"
     inkscape:pageshadow="2"
     inkscape:window-width="730"
     inkscape:window-height="480"
     id="namedview4"
     showgrid="false"
     inkscape:zoom="0.49358752"
     inkscape:cx="360.625"
     inkscape:cy="220"
     inkscape:window-x="0"
     inkscape:window-y="0"
     inkscape:window-maximized="0"
     inkscape:current-layer="g10" /><g
     id="g10"
     inkscape:groupmode="layer"
     inkscape:label="ESI-logo-for-print"
     transform="matrix(1.25,0,0,-1.25,0,440)"><g
       id="g12"
       transform="scale(0.1,0.1)"><g
         id="g14"><g
           id="g16"
           clip-path="url(#clipPath18)"><path
             d="m 271.918,615.449 c -16.492,16.063 -37.813,24.203 -63.91,24.203 -26.149,0 -47.524,-8.14 -64.348,-24.203 -16.867,-16.277 -25.336,-34.949 -25.336,-56.199 0,-21.93 8.469,-40.91 25.336,-56.648 16.824,-15.852 38.199,-23.77 64.348,-23.77 11.664,0 22.894,2.07 33.531,6.199 10.574,4.219 20.02,9.867 28.32,17.028 8.246,7.16 14.809,15.839 19.582,25.82 4.778,9.883 7.219,20.402 7.219,31.371 0,21.25 -8.246,39.922 -24.742,56.199 M 313.695,203.77 c -12.047,13.789 -29.843,24.089 -53.168,31.031 l -80.297,23.648 c -28.863,0 -51.867,-8.558 -69.007,-25.82 C 93.9648,215.602 85.4492,194.23 85.4492,168.73 c 0,-22.582 10.2539,-43.41 30.8668,-62.289 20.563,-18.8824 51.868,-28.3199 93.805,-28.3199 20.567,0 38.469,2.2773 53.551,7.1602 15.082,4.7773 27.672,11.0585 37.652,18.5507 9.871,7.598 17.469,16.059 22.68,25.289 5.098,9.328 7.699,18.34 7.699,27.34 0,17.898 -6.074,33.629 -18.008,47.309 M 405.219,93.1992 C 395.188,74.3203 381.188,58.0391 363.012,44.3711 344.781,30.5898 322.809,19.7422 296.98,11.9297 271.215,4.01172 243.004,0 212.02,0 179.797,0 150.551,4.12109 124.457,12.3594 98.418,20.5 76.1172,32.332 57.6719,47.3008 39.1172,62.3906 24.9023,80.2891 14.8633,100.91 4.98828,121.52 0,143.871 0,167.859 0,188.469 3.14453,206.59 9.22266,222 c 6.18364,15.41 14.10934,28.762 23.76174,40.152 9.5508,11.278 20.5664,20.289 32.8789,26.688 12.3672,6.621 24.3594,11.281 36.0277,14 l -52.4144,52.519 c 0,17.141 5.9687,32.653 17.9609,46.43 11.9922,13.68 25.8789,23.012 41.6645,27.793 -21.3168,11.609 -39.3325,28.316 -54.0864,50.02 -14.7617,21.589 -22.2461,47.847 -22.2461,78.777 0,22.562 4.3399,43.832 12.9102,63.371 8.5742,19.629 20.6172,36.242 36.1367,50.012 15.4063,13.679 33.7466,24.418 54.9566,32.449 21.325,7.918 44.973,11.82 71.125,11.82 12.317,0 23.657,-0.652 33.961,-2.062 10.368,-1.399 19.59,-3.039 27.891,-5.199 8.242,-1.961 18.008,-3.801 29.352,-5.11 11.336,-1.41 22.785,-2.058 34.449,-2.058 11.121,0 23.222,1.738 36.676,5.207 13.347,3.363 23.871,7.48 31.468,12.261 l 17.414,-77.148 c -6.129,-4.231 -15.132,-7.703 -26.746,-10.41 -11.718,-2.711 -22.027,-4.133 -30.925,-4.133 5.425,-6.18 10.308,-15.52 14.429,-27.77 4.121,-12.379 6.137,-26.16 6.137,-41.23 0,-20.617 -3.856,-40.481 -11.777,-59.797 -7.922,-19.203 -19.422,-36.023 -34.559,-50.453 -15.137,-14.43 -33.367,-25.938 -54.633,-34.617 -21.269,-8.352 -45.683,-12.692 -73.137,-12.692 -18.55,0 -32.765,-1.738 -42.753,-5.211 C 155.113,392.242 150.23,385.301 150.23,375 c 0,-1.961 0.754,-4.781 2.547,-8.25 1.625,-3.469 5.321,-6.191 10.743,-8.25 l 125.816,-44.258 c 40.527,-14.441 72.426,-33.972 95.758,-58.82 23.328,-24.633 35.047,-58.262 35.047,-100.91 0,-21.93 -4.883,-42.43 -14.922,-61.3128"
             style="fill:#f1471d;fill-opacity:1;fill-rule:nonzero;stroke:none"
             id="path22"
             inkscape:connector-curvature="0" /><path
             d="m 880.863,572.262 c -4.883,11.609 -11.718,22.25 -20.621,31.789 -8.894,9.769 -19.797,17.469 -32.437,23.328 -12.7,5.859 -26.696,8.793 -41.782,8.793 -14.32,0 -29.019,-2.711 -43.835,-8.242 -14.754,-5.539 -28.321,-13.25 -40.633,-23.231 C 689.238,594.621 678.551,583 669.707,569.551 660.703,556.09 654.898,541.23 652.129,524.629 l 234.863,0 c 0.707,2.82 1.031,6.941 1.031,12.48 0,11.723 -2.386,23.332 -7.16,35.153 m 98.793,-71.5 -52.57,-52.524 -280.871,0 c 0.703,-14.429 4.555,-29.836 11.773,-45.898 7.27,-16.168 17.688,-31.25 31.465,-45.25 13.672,-14.098 30.652,-25.5 50.895,-34.508 20.289,-8.891 44.105,-13.34 71.504,-13.34 30.273,0 56.371,3.578 78.343,10.738 21.918,7.27 41.121,16.379 57.618,27.461 l -10.254,-90.82 c -16.547,-8.789 -35.758,-16.07 -57.672,-21.601 -22.032,-5.418 -48.774,-8.25 -80.297,-8.25 -33.043,0 -64.668,5.761 -94.832,17.582 -30.168,11.609 -56.863,28.32 -79.863,50.019 -23.004,21.59 -41.344,47.418 -55.125,77.258 -13.672,29.953 -20.508,63.043 -20.508,99.5 0,39.82 6.945,75.09 21.051,105.691 14.105,30.489 32.121,56.102 54.144,76.711 21.867,20.719 46.875,36.239 74.652,46.879 27.782,10.738 55.125,16.059 81.926,16.059 32.227,0 60.875,-5.11 85.938,-15.617 25.062,-10.211 46.117,-23.883 63.371,-40.59 17.14,-16.922 30.219,-36.02 39.113,-57.293 8.949,-21.379 13.402,-42.637 13.402,-64.02 0,-15.187 -1.086,-27.89 -3.203,-38.187"
             style="fill:#f1471d;fill-opacity:1;fill-rule:nonzero;stroke:none"
             id="path24"
             inkscape:connector-curvature="0" /><path
             d="m 1444.45,629.672 -148.44,0 0,-248.383 c 0,-26.687 6.78,-45.457 20.07,-56.098 13.46,-10.632 32.45,-15.949 57.3,-15.949 16.38,0 30.49,1.949 42.21,5.969 l -8.25,-74.219 c -6.18,-3.472 -13.89,-5.64 -23.22,-6.73 -9.22,-1.082 -18.67,-1.633 -28.32,-1.633 -21.27,0 -41.23,3.043 -59.68,8.793 -18.56,5.859 -34.67,14.758 -48.45,26.918 -13.67,12.039 -24.57,26.582 -32.44,43.719 -7.87,17.25 -11.78,37.113 -11.78,59.793 l 0,257.82 -91.79,0 0,75.41 91.79,0 0,94.828 92.56,48.399 0,-143.227 164.99,0 -16.55,-75.41"
             style="fill:#f1471d;fill-opacity:1;fill-rule:nonzero;stroke:none"
             id="path26"
             inkscape:connector-curvature="0" /><path
             d="m 1939.24,704.859 94.73,0 0,-466.8 -94.73,0 0,466.8 z m 98.09,130.313 c -4.12,-6.5 -9.11,-12.59 -14.86,-18.551 -5.92,-5.75 -12.05,-10.742 -18.56,-14.871 -6.56,-4.121 -12.26,-6.18 -17.03,-6.18 -4.88,0 -10.53,2.059 -16.98,6.18 -6.57,4.129 -12.75,9.121 -18.56,14.871 -5.91,5.961 -10.79,12.051 -15.03,18.551 -4.12,6.617 -6.07,12.269 -6.07,17.039 0,4.777 1.95,10.41 6.07,17.039 4.24,6.512 9.12,12.801 15.03,18.551 5.81,5.859 11.99,10.738 18.56,14.969 6.45,4.128 12.1,6.191 16.98,6.191 4.77,0 10.47,-2.063 17.03,-6.191 6.51,-4.231 12.64,-9.11 18.56,-14.969 5.75,-5.75 10.74,-12.039 14.86,-18.551 4.13,-6.629 6.24,-12.262 6.24,-17.039 0,-4.77 -2.11,-10.422 -6.24,-17.039"
             style="fill:#f1471d;fill-opacity:1;fill-rule:nonzero;stroke:none"
             id="path28"
             inkscape:connector-curvature="0" /><path
             d="m 2525.56,629.672 -148.44,0 0,-248.383 c 0,-26.687 6.79,-45.457 20.13,-56.098 13.46,-10.632 32.45,-15.949 57.18,-15.949 16.5,0 30.6,1.949 42.22,5.969 l -8.2,-74.219 c -6.24,-3.472 -13.88,-5.64 -23.22,-6.73 -9.22,-1.082 -18.66,-1.633 -28.37,-1.633 -21.16,0 -41.18,3.043 -59.74,8.793 -18.44,5.859 -34.56,14.758 -48.34,26.918 -13.78,12.039 -24.52,26.582 -32.44,43.719 -7.92,17.25 -11.77,37.113 -11.77,59.793 l 0,257.82 -91.75,0 0,75.41 91.75,0 0,94.828 92.55,48.399 0,-143.227 164.88,0 -16.44,-75.41"
             style="fill:#f1471d;fill-opacity:1;fill-rule:nonzero;stroke:none"
             id="path30"
             inkscape:connector-curvature="0" /><path
             d="m 3263.69,606.762 c -4.24,1.308 -9.23,2.398 -14.98,3.039 -5.86,0.758 -12.26,1.09 -19.1,1.09 -15.19,0 -30.05,-2.172 -44.81,-6.192 -14.76,-4.117 -28.21,-11.39 -40.25,-21.59 -11.95,-10.308 -21.49,-24.41 -28.87,-42.199 -7.16,-17.91 -10.74,-40.262 -10.74,-67.07 l 0,-235.781 -93.65,0 0,467.023 93.65,0 0,-94.953 1.08,0 c 8.9,33.641 25.28,58.922 49.38,75.633 24.08,16.918 52.62,25.386 85.49,25.386 6.95,0 14.76,-0.867 23.77,-2.058 8.9,-1.41 16.17,-3.149 21.59,-5.098 l -22.56,-97.23"
             style="fill:#f1471d;fill-opacity:1;fill-rule:nonzero;stroke:none"
             id="path32"
             inkscape:connector-curvature="0" /><path
             d="m 3444.89,704.859 94.83,0 0,-466.8 -94.83,0 0,466.8 z m 98.2,130.313 c -4.23,-6.5 -9.11,-12.59 -14.97,-18.551 -5.86,-5.75 -12.05,-10.742 -18.55,-14.871 -6.52,-4.121 -12.16,-6.18 -16.94,-6.18 -4.88,0 -10.53,2.059 -17.03,6.18 -6.62,4.129 -12.69,9.121 -18.55,14.871 -5.86,5.961 -10.85,12.051 -14.98,18.551 -4.13,6.617 -6.19,12.269 -6.19,17.039 0,4.777 2.06,10.41 6.19,17.039 4.13,6.512 9.12,12.801 14.98,18.551 5.86,5.859 11.93,10.738 18.55,14.969 6.5,4.128 12.15,6.191 17.03,6.191 4.78,0 10.42,-2.063 16.94,-6.191 6.5,-4.231 12.69,-9.11 18.55,-14.969 5.86,-5.75 10.74,-12.039 14.97,-18.551 4.12,-6.629 6.18,-12.262 6.18,-17.039 0,-4.77 -2.06,-10.422 -6.18,-17.039"
             style="fill:#f1471d;fill-opacity:1;fill-rule:nonzero;stroke:none"
             id="path34"
             inkscape:connector-curvature="0" /><path
             d="m 3996.43,615.449 c -16.38,16.063 -37.75,24.203 -63.91,24.203 -26.04,0 -47.52,-8.14 -64.23,-24.203 C 3851.36,599.172 3843,580.5 3843,559.25 c 0,-21.93 8.36,-40.91 25.29,-56.648 16.71,-15.852 38.19,-23.77 64.23,-23.77 11.72,0 23,2.07 33.64,6.199 10.63,4.219 20.08,9.867 28.32,17.028 8.14,7.16 14.75,15.839 19.53,25.82 4.77,9.883 7.27,20.402 7.27,31.371 0,21.25 -8.25,39.922 -24.85,56.199 m 41.78,-411.679 c -11.94,13.789 -29.73,24.089 -53.06,31.031 l -80.41,23.648 c -28.86,0 -51.86,-8.558 -69,-25.82 -17.15,-17.027 -25.73,-38.399 -25.73,-63.899 0,-22.582 10.21,-43.41 30.93,-62.289 20.51,-18.8824 51.87,-28.3199 93.75,-28.3199 20.51,0 38.41,2.2773 53.61,7.1602 15.07,4.7773 27.55,11.0585 37.53,18.5507 10,7.598 17.48,16.059 22.8,25.289 4.99,9.328 7.6,18.34 7.6,27.34 0,17.898 -5.98,33.629 -18.02,47.309 M 4129.79,93.1992 C 4119.81,74.3203 4105.81,58.0391 4087.58,44.3711 4069.35,30.5898 4047.32,19.7422 4021.61,11.9297 3995.89,4.01172 3967.47,0 3936.54,0 c -32.23,0 -61.42,4.12109 -87.36,12.3594 -26.14,8.1406 -48.38,19.9726 -66.94,34.9414 -18.55,15.0898 -32.77,32.9883 -42.75,53.6092 -9.88,20.61 -14.87,42.961 -14.87,66.949 0,20.61 3.04,38.731 9.12,54.141 6.29,15.41 14.11,28.762 23.87,40.152 9.54,11.278 20.51,20.289 32.87,26.688 12.27,6.621 24.31,11.281 35.92,14 l -52.41,52.519 c 0,17.141 5.98,32.653 18.02,46.43 12.04,13.68 25.92,23.012 41.67,27.793 -21.38,11.609 -39.4,28.316 -54.15,50.02 -14.76,21.589 -22.14,47.847 -22.14,78.777 0,22.562 4.34,43.832 12.81,63.371 8.67,19.629 20.72,36.242 36.13,50.012 15.51,13.679 33.74,24.418 55.12,32.449 21.27,7.918 44.92,11.82 71.07,11.82 12.26,0 23.66,-0.652 33.97,-2.062 10.3,-1.399 19.53,-3.039 27.88,-5.199 8.25,-1.961 18.02,-3.801 29.3,-5.11 11.29,-1.41 22.9,-2.058 34.51,-2.058 10.96,0 23.21,1.738 36.67,5.207 13.24,3.363 23.88,7.48 31.36,12.261 l 17.47,-77.148 c -6.08,-4.231 -15.08,-7.703 -26.8,-10.41 -11.61,-2.711 -22.03,-4.133 -30.93,-4.133 5.54,-6.18 10.42,-15.52 14.54,-27.77 4.12,-12.379 6.08,-26.16 6.08,-41.23 0,-20.617 -3.91,-40.481 -11.72,-59.797 -7.92,-19.203 -19.53,-36.023 -34.61,-50.453 -15.09,-14.43 -33.31,-25.938 -54.58,-34.617 -21.27,-8.352 -45.79,-12.692 -73.14,-12.692 -18.66,0 -32.88,-1.738 -42.86,-5.211 -9.98,-3.367 -14.86,-10.308 -14.86,-20.609 0,-1.961 0.87,-4.781 2.6,-8.25 1.74,-3.469 5.32,-6.191 10.74,-8.25 l 125.76,-44.258 c 40.59,-14.441 72.48,-33.972 95.81,-58.82 23.44,-24.633 35.05,-58.262 35.05,-100.91 0,-21.93 -4.99,-42.43 -14.97,-61.3128"
             style="fill:#f1471d;fill-opacity:1;fill-rule:nonzero;stroke:none"
             id="path36"
             inkscape:connector-curvature="0" /><path
             d="m 4624.04,238.059 0,300.132 c 0,12.368 -1.85,24.52 -5.75,36.129 -3.69,11.719 -9.98,22.141 -18.88,31.469 -9.11,9.231 -20.4,16.602 -34.07,22.141 -13.78,5.531 -30.17,8.242 -49.49,8.242 -18.43,0 -34.71,-2.711 -48.82,-8.242 -14.11,-5.539 -25.82,-12.91 -35.05,-22.141 -9.22,-9.328 -16.27,-19.75 -21.05,-31.469 -4.77,-11.609 -7.27,-23.761 -7.27,-36.129 l 0,-300.132 -93.75,0 0,733.722 93.75,0 0,-315 1.09,0 c 11.72,17.809 27.99,32.231 48.94,43.199 20.93,10.95 49.91,16.489 87.02,16.489 25.28,0 48.83,-4.02 70.53,-11.938 21.59,-7.922 40.36,-19.09 55.98,-33.422 15.96,-14.429 28.21,-32.23 37.11,-53.16 8.91,-20.949 13.46,-44.5 13.46,-70.648 l 0,-309.242 -93.75,0"
             style="fill:#f1471d;fill-opacity:1;fill-rule:nonzero;stroke:none"
             id="path38"
             inkscape:connector-curvature="0" /><path
             d="m 5199.89,629.672 -148.33,0 0,-248.383 c 0,-26.687 6.62,-45.457 20.08,-56.098 13.34,-10.632 32.54,-15.949 57.28,-15.949 16.5,0 30.61,1.949 42.22,5.969 l -8.25,-74.219 c -6.19,-3.472 -14,-5.64 -23.23,-6.73 -9.32,-1.082 -18.77,-1.633 -28.32,-1.633 -21.26,0 -41.23,3.043 -59.78,8.793 -18.56,5.859 -34.61,14.758 -48.39,26.918 -13.67,12.039 -24.42,26.582 -32.34,43.719 -8.03,17.25 -11.94,37.113 -11.94,59.793 l 0,257.82 -91.69,0 0,75.41 91.69,0 0,94.828 92.67,48.399 0,-143.227 164.93,0 -16.6,-75.41"
             style="fill:#f1471d;fill-opacity:1;fill-rule:nonzero;stroke:none"
             id="path40"
             inkscape:connector-curvature="0" /><path
             d="m 5549,784.809 -23.58,0 0,-70 23.58,0 c 28.03,0 42.04,11.66 42.04,35 0,23.332 -14.01,35 -42.04,35 z m 73.96,-215.098 -66.74,101.98 -30.8,0 0,-100.953 -49.38,0 0,257.203 80.14,0 c 10.27,0 20.54,-1.89 30.82,-5.66 10.27,-3.769 19.34,-8.91 27.21,-15.422 7.87,-6.507 14.21,-14.57 19.01,-24.16 4.79,-9.59 7.2,-20.547 7.2,-32.89 0,-15.079 -3.43,-28.098 -10.28,-39.059 -6.84,-10.969 -15.74,-19.531 -26.69,-25.699 l 60.66,-87.52 -41.15,-27.82 z m 83.23,197.641 c -8.25,20.57 -19.74,38.046 -34.49,52.437 -14.75,14.402 -32.08,25.711 -51.98,33.93 -19.9,8.222 -41.51,12.34 -64.84,12.34 -24.03,0 -45.98,-4.118 -65.88,-12.34 -19.9,-8.219 -37.39,-19.528 -52.49,-33.93 -15.1,-14.391 -26.76,-31.867 -34.99,-52.437 -8.24,-20.571 -12.35,-43.18 -12.35,-67.852 0,-24.68 4.11,-47.301 12.35,-67.859 8.23,-20.571 19.89,-38.039 34.99,-52.43 15.1,-14.402 32.59,-25.719 52.49,-33.941 19.9,-8.219 41.85,-12.329 65.88,-12.329 23.33,0 44.94,4.11 64.84,12.329 19.9,8.222 37.23,19.539 51.98,33.941 14.75,14.391 26.24,31.859 34.49,52.43 8.23,20.558 12.35,43.179 12.35,67.859 0,24.672 -4.12,47.281 -12.35,67.852 z m 43.36,-152.301 c -11,-25.41 -26.11,-47.379 -45.35,-65.91 -19.23,-18.539 -41.56,-32.961 -66.98,-43.25 -25.42,-10.309 -52.9,-15.45 -82.43,-15.45 -30.23,0 -58.06,5.141 -83.48,15.45 -25.42,10.289 -47.74,24.711 -66.98,43.25 -19.24,18.531 -34.18,40.5 -44.82,65.91 -10.65,25.398 -15.97,53.551 -15.97,84.449 0,30.898 5.32,59.039 15.97,84.449 10.64,25.403 25.58,47.383 44.82,65.91 19.24,18.543 41.56,32.95 66.98,43.25 25.42,10.301 53.25,15.45 83.48,15.45 29.53,0 57.01,-5.149 82.43,-15.45 25.42,-10.3 47.75,-24.707 66.98,-43.25 19.24,-18.527 34.35,-40.507 45.35,-65.91 10.99,-25.41 16.49,-53.551 16.49,-84.449 0,-30.898 -5.5,-59.051 -16.49,-84.449"
             style="fill:#f1471d;fill-opacity:1;fill-rule:nonzero;stroke:none"
             id="path42"
             inkscape:connector-curvature="0" /><path
             d="m 4960.42,2762.95 c -113.84,0 -206.66,-92.7 -206.66,-206.76 l 0,-1048.65 c 0,-113.84 92.82,-206.55 206.66,-206.55 114.07,0 206.75,92.71 206.75,206.55 l 0,1048.65 c 0,114.06 -92.68,206.76 -206.75,206.76"
             style="fill:#f1471d;fill-opacity:1;fill-rule:nonzero;stroke:none"
             id="path44"
             inkscape:connector-curvature="0" /><path
             d="m 2179.86,2433.46 c 17.67,50.63 23.86,111.13 18.01,174.99 l -0.12,1.84 -0.32,1.73 c -97.04,524.98 -555.23,906.19 -1089.47,906.19 -610.843,0 -1107.784219,-497 -1107.784219,-1107.95 0,-152.87 30.894519,-301.2 91.617219,-440.73 240.145,-561.4 892.52,-822.92 1454.137,-582.43 104.74,44.77 153.41,166.53 108.58,271.27 -44.82,104.71 -166.54,153.51 -271.21,108.63 l 0,0 c -76.5,-32.64 -157.36,-50.41 -240.16,-55.08 -15.74,-0.9 -16.06,-0.9 -27.72,-0.9 -382.885,0 -701.947,316.4 -701.947,699.24 0,383.04 311.601,694.54 694.487,694.54 284.44,0 544,-178.57 647,-444.53 1.42,-5.85 2.29,-11.38 2.29,-16.04 0,-6.29 -1.26,-11.5 -3.59,-15.07 -4.55,-7.05 -14.52,-10.52 -23.1,-12.15 l -694.21,0 c -114.053,0 -206.756,-92.7 -206.756,-206.75 0,-113.85 92.703,-206.55 206.756,-206.55 l 827.9,0.01 2.22,0 c 147.59,13.38 268.12,99.41 313.39,229.74"
             style="fill:#f1471d;fill-opacity:1;fill-rule:nonzero;stroke:none"
             id="path46"
             inkscape:connector-curvature="0" /><path
             d="m 5015.81,2895.11 c 91.3,68.09 110.17,197.87 42.09,289.27 l 0,0 c -94.89,127.07 -223.58,223.89 -372.22,279.94 -382.84,144.2 -820.74,-17.24 -1018.49,-375.46 l -0.45,-0.65 -0.88,-0.44 -562.14,-1119.34 c -88.26,-211.85 -332.31,-312.56 -544.17,-224.64 -53.55,22.23 -101.1,54.76 -141.16,96.72 -43.32,47.58 -75.62,105.82 -92.6,167.72 -14.69,53.24 -49.22,97.69 -97.25,124.91 -48.03,27.21 -103.76,34.25 -156.88,19.51 -53.24,-14.75 -97.58,-49.23 -124.8,-97.15 -27.32,-48.04 -34.2,-103.87 -19.56,-156.99 21.09,-76.76 53.18,-149.95 95.36,-217.6 4.87,-9.87 9.86,-18.76 15.55,-26.78 20.97,-30.26 44.51,-59.52 69.88,-87.16 -0.27,0.31 43.69,-46.08 64.35,-64.62 0,0 31.06,-23.96 31.44,-23.53 60.01,-47.6 125.98,-87.18 197.27,-116.77 190.82,-79.14 403.21,-83.93 597.72,-13.45 180.94,65.59 331.89,191.36 429.89,355.4 2.39,-1.31 601.85,1188.4 603.92,1192.41 102.44,177.16 315.49,253.27 507.07,181.18 74.82,-28.3 139.42,-76.77 186.8,-140.41 32.97,-44.24 81.21,-72.97 135.86,-80.88 54.65,-8.03 109.19,5.74 153.4,38.81"
             style="fill:#f68b1b;fill-opacity:1;fill-rule:nonzero;stroke:none"
             id="path48"
             inkscape:connector-curvature="0" /></g></g></g></g></svg>